<?xml version="1.0" standalone="no"?>
<!DOCTYPE svg PUBLIC "-//W3C//DTD SVG 1.1//EN" "http://www.w3.org/Graphics/SVG/1.1/DTD/svg11.dtd" >
<svg xmlns="http://www.w3.org/2000/svg">
<metadata>
This is a custom SVG webfont generated by Font Squirrel.
Copyright   :  2008 Microsoft Corporation All Rights Reserved
Foundry     : Microsoft Corporation
Foundry URL : httpwwwmicrosoftcomtypographyfonts
</metadata>
<defs>
<font id="SegoeUINormal" horiz-adv-x="1124" >
<font-face units-per-em="2048" ascent="1638" descent="-410" />
<missing-glyph horiz-adv-x="544" />
<glyph unicode=" "  horiz-adv-x="544" />
<glyph unicode="&#x09;" horiz-adv-x="544" />
<glyph unicode="&#xa0;" horiz-adv-x="544" />
<glyph unicode="!" horiz-adv-x="564" d="M175 89q0 45 31.5 76.5t75.5 31.5t76 -31.5t32 -76.5q0 -44 -32 -75t-76 -31t-75.5 31t-31.5 75zM197 1391h167l-19 -999h-131z" />
<glyph unicode="&#x22;" horiz-adv-x="778" d="M144 1391h169l-29 -434h-111zM466 1391h169l-29 -434h-111z" />
<glyph unicode="#" horiz-adv-x="1173" d="M32 504l19 103h257l60 291h-269l20 103h269l81 390h123l-82 -390h245l83 390h119l-81 -390h255l-22 -103h-253l-62 -291h273l-26 -103h-267l-85 -385h-123l84 385h-243l-81 -385h-121l81 385h-254zM427 607h246l62 291h-244z" />
<glyph unicode="$" horiz-adv-x="1070" d="M157 1027q0 141 96 243.5t244 122.5v175h101v-171q190 -6 262 -55v-164q-99 77 -262 83v-512q201 -96 275.5 -186t74.5 -204q0 -138 -93 -231.5t-257 -119.5v-211h-101v203q-207 0 -336 83v169q56 -49 153.5 -82.5t182.5 -33.5v496q-214 103 -277 190t-63 205zM320 1048 q0 -84 39 -137.5t138 -107.5v452q-82 -16 -129.5 -72t-47.5 -135zM598 144q187 40 187 201q0 134 -187 237v-438z" />
<glyph unicode="%" horiz-adv-x="1625" d="M78 1041q0 172 90 271.5t243 99.5q149 0 231 -92t82 -259t-92 -267t-240 -100q-144 0 -229 94.5t-85 252.5zM207 1050q0 -118 52 -183.5t143 -65.5t142.5 68t51.5 188q0 118 -51 183.5t-140 65.5q-92 0 -145 -68.5t-53 -187.5zM292 -10l891 1401h140l-892 -1401h-139z M906 326q0 173 91 273t243 100q147 0 229.5 -93t82.5 -261q0 -166 -91.5 -266t-240.5 -100q-143 0 -228.5 95t-85.5 252zM1035 334q0 -116 52.5 -181.5t142.5 -65.5q91 0 142.5 68.5t51.5 187.5t-51 183t-139 64q-93 0 -146 -68t-53 -188z" />
<glyph unicode="&#x26;" horiz-adv-x="1589" d="M115 378q0 149 84.5 254t238.5 172q-29 21 -58 50t-51.5 65t-37 80.5t-14.5 96.5q0 77 28 136t76.5 100t114.5 61.5t142 20.5t138.5 -20.5t107.5 -59.5t70.5 -93.5t25.5 -121.5q0 -116 -66.5 -193t-199.5 -132q67 -26 121 -63.5t100.5 -84.5t86 -100t78.5 -110 q79 109 118.5 241t39.5 277q0 36 -4.5 68.5t-11.5 64.5h154q8 -32 9 -60.5t3 -68.5q0 -88 -18 -177t-49 -173t-72.5 -160t-87.5 -139q34 -46 62.5 -80.5t57 -58t59 -34.5t69.5 -11q29 0 59 8t62 19v-147q-35 -14 -73 -20.5t-75 -6.5q-56 0 -98 15t-78 42.5t-69.5 67.5 t-70.5 90q-38 -42 -89 -80.5t-113 -68.5t-136 -48t-160 -18q-105 0 -192.5 26t-149.5 77t-96.5 125.5t-34.5 171.5zM277 383q0 -66 24.5 -116.5t66.5 -84t98.5 -50.5t121.5 -17q74 0 136 16t114 43t95 62.5t78 73.5q-59 93 -109 158.5t-101 113t-109 81t-133 63.5 q-61 -25 -112.5 -54.5t-89 -69.5t-59 -93.5t-21.5 -125.5zM429 1096q0 -40 12 -75t34 -65t51 -53t62 -40q122 43 182 99.5t60 143.5q0 48 -18 82t-45.5 56.5t-61.5 32.5t-67 10q-95 0 -151.5 -51.5t-57.5 -139.5z" />
<glyph unicode="'" horiz-adv-x="456" d="M144 1391h169l-29 -434h-111z" />
<glyph unicode="(" horiz-adv-x="599" d="M136 531q0 505 300 860h144q-305 -369 -305 -858q0 -486 303 -849h-142q-300 343 -300 847z" />
<glyph unicode="&#xfd3e;" horiz-adv-x="599" d="M136 531q0 505 300 860h144q-305 -369 -305 -858q0 -486 303 -849h-142q-300 343 -300 847z" />
<glyph unicode=")" horiz-adv-x="599" d="M21 1391h144q303 -355 303 -860q0 -504 -303 -847h-142q303 363 303 849q0 489 -305 858z" />
<glyph unicode="&#xfd3f;" horiz-adv-x="599" d="M21 1391h144q303 -355 303 -860q0 -504 -303 -847h-142q303 363 303 849q0 489 -305 858z" />
<glyph unicode="*" horiz-adv-x="828" d="M74 1071l43 121l255 -96l-23 295h134l-22 -295l255 96l41 -121l-266 -54l184 -236l-107 -74l-151 257l-153 -257l-107 74l184 236z" />
<glyph unicode="+" horiz-adv-x="1358" d="M225 514v130h391v391h129v-391h392v-130h-392v-391h-129v391h-391z" />
<glyph unicode="," horiz-adv-x="430" d="M38 -256l113 477h156l-156 -477h-113z" />
<glyph unicode="-" horiz-adv-x="794" d="M140 491v125h529v-125h-529z" />
<glyph unicode="." horiz-adv-x="430" d="M109 87q0 45 31.5 77.5t75.5 32.5q46 0 78 -32.5t32 -77.5q0 -44 -32 -76t-78 -32q-44 0 -75.5 32t-31.5 76z" />
<glyph unicode="/" horiz-adv-x="774" d="M-27 -231l665 1622h151l-668 -1622h-148z" />
<glyph unicode="0" horiz-adv-x="1070" d="M83 667q0 369 121 558t349 189q436 0 436 -713q0 -353 -123 -538.5t-344 -185.5q-207 0 -323 177.5t-116 512.5zM246 675q0 -564 292 -564q288 0 288 574q0 594 -282 594q-298 0 -298 -604z" />
<glyph unicode="1" horiz-adv-x="1070" d="M163 1124v152l481 146v-1282h313v-140h-786v140h314v1080z" />
<glyph unicode="2" horiz-adv-x="1070" d="M93 0v142l406 406q155 155 221.5 258.5t66.5 220.5q0 121 -69 186.5t-196 65.5q-186 0 -357 -159v167q163 127 379 127q186 0 293 -101t107 -270q0 -134 -74 -261.5t-265 -316.5l-321 -318v-3h647v-144h-838z" />
<glyph unicode="3" horiz-adv-x="1070" d="M127 51v172q143 -112 322 -112q146 0 232.5 72.5t86.5 195.5q0 273 -387 273h-115v135h109q345 0 345 256q0 236 -263 236q-147 0 -277 -99v155q134 79 317 79q175 0 280.5 -93t105.5 -238q0 -275 -280 -354v-3q151 -15 239.5 -105.5t88.5 -226.5q0 -187 -134 -302 t-355 -115q-198 0 -315 74z" />
<glyph unicode="4" horiz-adv-x="1070" d="M14 370v103l618 918h192v-892h179v-129h-179v-370h-157v370h-653zM186 499h481v601q0 64 4 144h-4q-13 -35 -53 -107z" />
<glyph unicode="5" horiz-adv-x="1070" d="M159 34v169q143 -92 290 -92q148 0 238 83t90 221q0 137 -92 213.5t-264 76.5q-58 0 -218 -11v697h673v-144h-523v-407q64 4 118 4q224 0 346 -112t122 -307q0 -202 -131.5 -325t-360.5 -123q-193 0 -288 57z" />
<glyph unicode="6" horiz-adv-x="1070" d="M107 612q0 366 156 584t412 218q146 0 231 -40v-150q-108 55 -227 55q-185 0 -296 -164.5t-111 -441.5h3q97 197 319 197q182 0 289.5 -117t107.5 -313q0 -204 -123 -333.5t-313 -129.5q-210 0 -329 166.5t-119 468.5zM282 455q0 -143 76.5 -243.5t202.5 -100.5 q120 0 193.5 87.5t73.5 222.5q0 147 -70.5 230.5t-198.5 83.5q-123 0 -200 -83.5t-77 -196.5z" />
<glyph unicode="7" horiz-adv-x="1070" d="M83 1247v144h897v-50l-551 -1341h-165l521 1247h-702z" />
<glyph unicode="8" horiz-adv-x="1070" d="M97 340q0 267 301 389v4q-251 117 -251 338q0 150 114.5 246.5t295.5 96.5q163 0 267.5 -90t104.5 -232q0 -231 -258 -359v-4q305 -108 305 -376q0 -173 -124 -274.5t-346 -101.5q-178 0 -293.5 100.5t-115.5 262.5zM260 347q0 -104 77 -170t203 -66q121 0 197 65.5 t76 164.5q0 210 -287 313q-266 -106 -266 -307zM310 1075q0 -182 226 -274q230 95 230 272q0 96 -60 151t-164 55q-97 0 -164.5 -57.5t-67.5 -146.5z" />
<glyph unicode="9" horiz-adv-x="1070" d="M91 950q0 203 125.5 333.5t321.5 130.5q206 0 321 -162.5t115 -472.5q0 -385 -149.5 -593.5t-415.5 -208.5q-139 0 -242 46v154q116 -66 246 -66q189 0 294.5 152t105.5 432h-4q-89 -179 -310 -179q-179 0 -293.5 121.5t-114.5 312.5zM254 972q0 -147 75.5 -230.5 t204.5 -83.5q113 0 191 76.5t78 187.5q0 158 -77.5 257.5t-201.5 99.5q-116 0 -193 -86.5t-77 -220.5z" />
<glyph unicode=":" horiz-adv-x="430" d="M109 87q0 45 31.5 77.5t75.5 32.5q46 0 78 -32.5t32 -77.5q0 -44 -32 -76t-78 -32q-44 0 -75.5 32t-31.5 76zM109 908q0 45 31.5 76t75.5 31q46 0 78 -31t32 -76t-32 -77t-78 -32q-44 0 -75.5 32t-31.5 77z" />
<glyph unicode=";" horiz-adv-x="430" d="M38 -256l113 477h156l-156 -477h-113zM111 908q0 45 31.5 76t76.5 31t77 -31t32 -76t-32 -77t-77 -32t-76.5 32t-31.5 77z" />
<glyph unicode="&#x3c;" horiz-adv-x="1358" d="M264 542v57l834 468v-145l-623 -346v-4l623 -304v-145z" />
<glyph unicode="=" horiz-adv-x="1358" d="M225 308v128h912v-128h-912zM225 722v128h912v-128h-912z" />
<glyph unicode="&#x3e;" horiz-adv-x="1358" d="M264 123v145l625 302v6l-625 346v145l834 -468v-57z" />
<glyph unicode="?" horiz-adv-x="890" d="M127 1150v171q148 93 308 93q73 0 138 -19.5t114 -57.5t77 -95.5t28 -132.5q0 -72 -25 -128.5t-63.5 -103.5t-83 -87.5t-82.5 -81t-63.5 -84t-25.5 -95.5q0 -45 10.5 -81.5t21.5 -61.5h-156q-9 25 -15.5 65.5t-6.5 80.5q0 62 24.5 112t61.5 93.5t80.5 83.5t80.5 81.5 t61.5 86.5t24.5 99q0 47 -18 83t-49 60t-71.5 36t-86.5 12q-164 0 -284 -129zM305 89q0 46 32 76q32 32 75 32q44 0 76 -32q32 -30 32 -76q0 -44 -32 -75q-33 -31 -76 -31q-42 0 -75 31q-32 31 -32 75z" />
<glyph unicode="@" horiz-adv-x="1897" d="M167 588q0 355 226.5 588.5t578.5 233.5q330 0 546 -196t216 -511q0 -231 -114 -378.5t-278 -147.5q-212 0 -213 230h-5q-71 -230 -278 -230q-133 0 -214 97.5t-81 263.5q0 220 112 365t294 145q70 0 125 -36t70 -90h4q2 27 10 111h121q-45 -534 -45 -544 q0 -201 115 -201q105 0 174 113.5t69 293.5q0 267 -168.5 436t-467.5 169q-288 0 -476 -202t-188 -504q0 -298 179 -481t482 -183q240 0 410 80v-121q-168 -71 -419 -71q-354 0 -569.5 212.5t-215.5 557.5zM687 536q0 -114 50 -180t133 -66q120 0 190.5 120t70.5 318 q0 207 -176 207q-120 0 -194 -114.5t-74 -284.5z" />
<glyph unicode="A" horiz-adv-x="1281" d="M21 0l534 1391h169l535 -1391h-180l-148 390h-590l-138 -390h-182zM396 536h482l-218 593q-11 29 -22 93h-4q-9 -59 -22 -93z" />
<glyph unicode="B" horiz-adv-x="1138" d="M182 0v1391h396q181 0 286.5 -88.5t105.5 -229.5q0 -119 -64 -206t-177 -124v-4q141 -16 225.5 -106t84.5 -233q0 -179 -128 -289.5t-323 -110.5h-406zM345 147h221q144 0 223 68t79 187q0 246 -335 246h-188v-501zM345 794h167q134 0 210.5 64.5t76.5 182.5 q0 203 -266 203h-188v-450z" />
<glyph unicode="C" horiz-adv-x="1229" d="M91 669q0 334 201 539.5t509 205.5q198 0 328 -57v-174q-149 84 -330 84q-239 0 -388 -160t-149 -428q0 -254 139 -405t365 -151q210 0 363 93v-158q-154 -81 -384 -81q-297 0 -475.5 191t-178.5 501z" />
<glyph unicode="D" horiz-adv-x="1392" d="M182 0v1391h384q736 0 736 -678q0 -322 -204.5 -517.5t-546.5 -195.5h-369zM345 147h208q273 0 425.5 146.5t152.5 415.5q0 535 -568 535h-218v-1097z" />
<glyph unicode="E" horiz-adv-x="1004" d="M182 0v1391h707v-147h-544v-463h503v-147h-503v-487h575v-147h-738z" />
<glyph unicode="F" horiz-adv-x="970" d="M182 0v1391h707v-147h-544v-482h503v-146h-503v-616h-163z" />
<glyph unicode="G" horiz-adv-x="1362" d="M91 677q0 323 204.5 530t517.5 207q227 0 381 -73v-181q-169 107 -400 107q-233 0 -382.5 -161t-149.5 -417q0 -264 138.5 -415t376.5 -151q163 0 282 65v390h-304v148h467v-631q-209 -118 -465 -118q-298 0 -482 192t-184 508z" />
<glyph unicode="H" horiz-adv-x="1410" d="M182 0v1391h163v-610h720v610h163v-1391h-163v634h-720v-634h-163z" />
<glyph unicode="I" horiz-adv-x="528" d="M47 0v140h135v1111h-135v140h434v-140h-136v-1111h136v-140h-434z" />
<glyph unicode="J" horiz-adv-x="709" d="M19 0v161q53 -38 136 -38q220 0 220 374v894h163v-892q0 -248 -104.5 -385t-280.5 -137q-81 0 -134 23z" />
<glyph unicode="K" horiz-adv-x="1152" d="M182 0v1391h163v-654h4q14 22 37 48l520 606h203l-597 -667l638 -724h-227l-537 636q-30 36 -37 49h-4v-685h-163z" />
<glyph unicode="L" horiz-adv-x="935" d="M182 0v1391h163v-1244h559v-147h-722z" />
<glyph unicode="M" horiz-adv-x="1783" d="M182 0v1391h216l426 -970q50 -112 65 -167h5q42 115 67 171l436 966h203v-1391h-161v933q0 111 13 271h-4q-23 -94 -42 -135l-475 -1069h-79l-475 1061q-20 47 -41 143h-4q8 -84 8 -273v-931h-158z" />
<glyph unicode="N" horiz-adv-x="1486" d="M182 0v1391h212l696 -1091q44 -68 57 -93h3q-9 60 -9 204v980h163v-1391h-200l-716 1109q-27 41 -45 87h-5q7 -45 7 -191v-1005h-163z" />
<glyph unicode="O" horiz-adv-x="1497" d="M91 679q0 336 181.5 535.5t493.5 199.5q288 0 464 -194t176 -507q0 -341 -180 -538.5t-483 -197.5q-296 0 -474 195t-178 507zM262 694q0 -258 133.5 -414.5t347.5 -156.5q229 0 361 149.5t132 418.5q0 275 -128 425.5t-353 150.5q-220 0 -356.5 -158t-136.5 -415z" />
<glyph unicode="P" horiz-adv-x="1112" d="M182 0v1391h383q223 0 345.5 -108.5t122.5 -306.5t-136.5 -324t-367.5 -126h-184v-526h-163zM345 673h171q169 0 257.5 77t88.5 218q0 276 -326 276h-191v-571z" />
<glyph unicode="Q" horiz-adv-x="1497" d="M91 679q0 337 181 535q182 200 498 200q283 0 460 -194q176 -194 176 -507q0 -132 -29.5 -249t-89.5 -211t-151 -159.5t-215 -93.5q50 -54 94 -96t88.5 -70.5t92 -43t104.5 -14.5q15 0 33.5 1.5t37.5 5t36.5 7.5t31.5 10v-157q-15 -5 -34.5 -8.5t-39.5 -5.5t-39 -3.5 t-36 -1.5q-93 0 -167 27.5t-138.5 75.5t-125 112t-126.5 138q-62 0 -126 12t-124 36.5t-115 61t-99 85.5q-178 194 -178 507zM262 694q0 -257 133 -415q134 -156 348 -156q229 0 361 150q132 149 132 418q0 276 -128 425q-128 151 -353 151q-220 0 -356 -158 q-137 -158 -137 -415z" />
<glyph unicode="R" horiz-adv-x="1188" d="M182 0v1391h416q91 0 168 -23t133.5 -69.5t88.5 -115.5t32 -163q0 -72 -21.5 -133t-62 -108.5t-97 -81t-127.5 -51.5v-4q35 -15 60.5 -35t49 -47t46 -61.5t51.5 -80.5l261 -418h-194l-233 390q-32 54 -62 92.5t-61.5 62.5t-68 35.5t-82.5 11.5h-134v-592h-163zM345 739 h221q62 0 113.5 18.5t89.5 53t59.5 84.5t21.5 112q0 111 -72.5 174t-209.5 63h-223v-505z" />
<glyph unicode="S" horiz-adv-x="1055" d="M117 56v192q33 -29 79 -52t97 -39t102.5 -25t95.5 -9q150 0 224.5 56t74.5 161q0 56 -25 97.5t-68.5 76t-103 66t-128.5 66.5q-73 37 -136 75t-109.5 83.5t-73.5 103t-27 135.5q0 95 42 165t110 116t154.5 68t176.5 22q206 0 300 -49v-184q-123 86 -316 86 q-53 0 -106.5 -11t-95.5 -36.5t-68 -65t-26 -97.5q0 -53 20 -92t58.5 -71t94.5 -62t129 -66q74 -37 141 -77.5t117.5 -90t80 -109.5t29.5 -138q0 -103 -40 -174t-108.5 -116t-157.5 -64.5t-188 -19.5q-33 0 -81.5 5t-99 15.5t-95.5 25.5t-73 33z" />
<glyph unicode="T" horiz-adv-x="1040" d="M40 1244v147h965v-147h-402v-1244h-163v1244h-400z" />
<glyph unicode="U" horiz-adv-x="1364" d="M165 540v851h163v-840q0 -428 361 -428q348 0 348 413v855h163v-828q0 -586 -529 -586q-506 0 -506 563z" />
<glyph unicode="V" horiz-adv-x="1233" d="M17 1391h182l385 -1103q18 -53 28 -123h4q8 58 32 125l393 1101h175l-515 -1391h-179z" />
<glyph unicode="W" horiz-adv-x="1855" d="M25 1391h180l296 -1067q18 -67 23 -140h5q5 52 30 140l307 1067h156l295 -1075q16 -55 24 -130h3q4 51 27 134l284 1071h176l-392 -1391h-192l-286 1017q-18 65 -22 141h-4q-6 -72 -25 -140l-288 -1018h-189z" />
<glyph unicode="X" horiz-adv-x="1171" d="M25 0l466 699l-429 692h200l284 -489q28 -48 50 -97h3q31 64 55 101l296 485h187l-438 -690l444 -701h-199l-320 533q-15 24 -32 68h-4q-10 -22 -33 -68l-330 -533h-200z" />
<glyph unicode="Y" horiz-adv-x="1098" d="M17 1391h186l311 -629q6 -11 34 -85h3q10 33 37 85l326 629h172l-458 -877v-514h-163v510z" />
<glyph unicode="Z" horiz-adv-x="1132" d="M32 0v46l808 1198h-743v147h993v-39l-815 -1205h796v-147h-1039z" />
<glyph unicode="[" horiz-adv-x="599" d="M194 -316v1707h357v-115h-215v-1477h215v-115h-357z" />
<glyph unicode="\" horiz-adv-x="752" d="M-25 1391h150l649 -1624h-146z" />
<glyph unicode="]" horiz-adv-x="599" d="M51 -201h215v1477h-215v115h356v-1707h-356v115z" />
<glyph unicode="^" horiz-adv-x="1358" d="M223 605l409 809h63l444 -809h-146l-322 601h-6l-299 -601h-143z" />
<glyph unicode="_" horiz-adv-x="824" d="M0 -173h824v-115h-824v115z" />
<glyph unicode="`" horiz-adv-x="532" d="M80 1500h162l215 -319h-123z" />
<glyph unicode="a" horiz-adv-x="1010" d="M87 264q0 278 328 324l298 42q0 253 -205 253q-179 0 -324 -123v163q147 94 338 94q350 0 350 -371v-646h-159v155h-4q-104 -178 -305 -178q-149 0 -233 78.5t-84 208.5zM250 275q0 -72 52 -118t138 -46q119 0 196 82.5t77 210.5v98l-240 -33q-110 -15 -166.5 -54.5 t-56.5 -139.5z" />
<glyph unicode="b" horiz-adv-x="1167" d="M161 0v1471h159v-652h4q117 198 343 198q191 0 299.5 -133.5t108.5 -357.5q0 -250 -121.5 -399.5t-331.5 -149.5q-197 0 -298 167h-4v-144h-159zM320 405q0 -123 80 -208.5t203 -85.5q145 0 227 110.5t82 307.5q0 166 -76.5 260t-207.5 94q-139 0 -223.5 -96.5 t-84.5 -242.5v-139z" />
<glyph unicode="c" horiz-adv-x="917" d="M93 473q0 246 140.5 395t375.5 149q131 0 231 -49v-163q-111 78 -237 78q-152 0 -249.5 -109.5t-97.5 -286.5q0 -175 91.5 -275.5t246.5 -100.5q130 0 244 86v-151q-114 -69 -272 -69q-212 0 -342.5 138t-130.5 358z" />
<glyph unicode="d" horiz-adv-x="1169" d="M93 473q0 247 124 395.5t331 148.5q205 0 298 -161h4v615h159v-1471h-159v169h-4q-111 -192 -342 -192q-187 0 -299 133t-112 363zM256 481q0 -172 80 -271t215 -99q133 0 216 96t83 242v147q0 120 -79.5 203.5t-202.5 83.5q-145 0 -228.5 -107t-83.5 -295z" />
<glyph unicode="e" horiz-adv-x="1038" d="M93 493q0 232 131.5 378t326.5 146t301.5 -126.5t106.5 -350.5v-83h-701q4 -166 89.5 -256t234.5 -90q168 0 308 110v-149q-130 -95 -346 -95q-210 0 -330.5 135t-120.5 381zM260 592h536q-1 137 -66.5 214t-181.5 77q-112 0 -191 -80.5t-97 -210.5z" />
<glyph unicode="f" horiz-adv-x="621" d="M51 857v136h170v161q0 156 90.5 247t224.5 91q73 0 116 -18v-143q-47 26 -106 26q-167 0 -167 -210v-154h233v-136h-233v-857h-158v857h-170z" />
<glyph unicode="g" horiz-adv-x="1169" d="M93 465q0 253 122 402.5t333 149.5q201 0 298 -161h4v137h159v-913q0 -548 -524 -548q-184 0 -322 70v159q168 -93 320 -93q367 0 367 390v109h-4q-114 -190 -342 -190q-185 0 -298 132.5t-113 355.5zM256 475q0 -166 80 -265t212 -99q134 0 218 95t84 243v147 q0 118 -80 202.5t-200 84.5q-147 0 -230.5 -107.5t-83.5 -300.5z" />
<glyph unicode="h" d="M161 0v1471h159v-643h4q114 189 326 189q336 0 336 -405v-612h-160v572q0 311 -230 311q-117 0 -196.5 -90t-79.5 -230v-563h-159z" />
<glyph unicode="i" horiz-adv-x="481" d="M140 1348q0 45 30 74.5t72 29.5q44 0 74.5 -29.5t30.5 -74.5q0 -42 -30.5 -72.5t-74.5 -30.5q-42 0 -72 29.5t-30 73.5zM161 0v993h159v-993h-159z" />
<glyph unicode="j" horiz-adv-x="481" d="M-192 -288q72 -44 136 -44q217 0 217 348v977h159v-951q0 -245 -98.5 -377.5t-281.5 -132.5q-68 0 -132 32v148zM140 1348q0 45 30 74.5t72 29.5q44 0 74.5 -29.5t30.5 -74.5q0 -42 -30.5 -72.5t-74.5 -30.5q-42 0 -72 29.5t-30 73.5z" />
<glyph unicode="k" horiz-adv-x="987" d="M161 0v1471h159v-933h4l417 455h209l-461 -479l497 -514h-224l-438 477h-4v-477h-159z" />
<glyph unicode="l" horiz-adv-x="481" d="M161 0v1471h159v-1471h-159z" />
<glyph unicode="m" horiz-adv-x="1711" d="M161 0v993h159v-157h4q106 181 308 181q102 0 178 -57t104 -149q110 206 330 206q327 0 327 -405v-612h-159v570q0 165 -51 239t-171 74q-102 0 -173 -93.5t-71 -223.5v-566h-159v590q0 293 -226 293q-105 0 -173 -88t-68 -229v-566h-159z" />
<glyph unicode="n" d="M161 0v993h159v-165h4q112 189 326 189q163 0 249.5 -105.5t86.5 -304.5v-607h-160v566q0 317 -230 317q-120 0 -198 -90t-78 -227v-566h-159z" />
<glyph unicode="o" horiz-adv-x="1164" d="M93 485q0 250 137 391t369 141q223 0 347.5 -137t124.5 -379q0 -238 -134.5 -381t-360.5 -143q-220 0 -351.5 139t-131.5 369zM256 491q0 -177 90 -278.5t242 -101.5q154 0 237 99.5t83 284.5q0 186 -83 287t-237 101q-153 0 -242.5 -104.5t-89.5 -287.5z" />
<glyph unicode="p" horiz-adv-x="1167" d="M161 -457v1450h159v-174h4q117 198 343 198q192 0 300 -133.5t108 -357.5q0 -250 -121.5 -399.5t-331.5 -149.5q-193 0 -298 167h-4v-601h-159zM320 405q0 -123 80 -208.5t203 -85.5q145 0 227 110.5t82 307.5q0 166 -76.5 260t-207.5 94q-139 0 -223.5 -96.5 t-84.5 -242.5v-139z" />
<glyph unicode="q" horiz-adv-x="1169" d="M93 473q0 248 124 396t334 148q204 0 295 -161h4v137h159v-1450h-159v628h-4q-104 -194 -340 -194q-187 0 -300 133t-113 363zM256 477q0 -171 80.5 -268.5t207.5 -97.5q140 0 223 95.5t83 240.5v145q0 122 -80 206.5t-204 84.5q-143 0 -226.5 -106.5t-83.5 -299.5z" />
<glyph unicode="r" horiz-adv-x="690" d="M161 0v993h159v-204h4q34 104 104 163t156 59q62 0 95 -14v-165q-42 32 -120 32q-102 0 -170.5 -96t-68.5 -262v-506h-159z" />
<glyph unicode="s" horiz-adv-x="842" d="M101 36v171q130 -96 286 -96q210 0 210 139q0 40 -18 67.5t-48.5 49t-72 38.5t-88.5 35q-66 27 -116 53.5t-83.5 60t-50.5 76t-17 99.5q0 70 32 124t85.5 90.5t121.5 55t141 18.5q129 0 231 -45v-161q-110 72 -252 72q-45 0 -81 -10.5t-61.5 -29t-39.5 -44t-14 -56.5 q0 -39 14 -65t41 -46.5t66 -37t88 -35.5q66 -25 118.5 -52t89.5 -60.5t57 -77t20 -103.5q0 -74 -32.5 -128.5t-87 -90t-125.5 -53t-148 -17.5q-154 0 -266 59z" />
<glyph unicode="t" horiz-adv-x="673" d="M42 857v136h170v243l160 51v-294h250v-136h-250v-559q0 -100 33.5 -142.5t112.5 -42.5q60 0 104 33v-136q-56 -31 -149 -31q-261 0 -261 291v587h-170z" />
<glyph unicode="u" d="M140 400v593h158v-568q0 -314 240 -314q117 0 192 85.5t75 224.5v572h159v-993h-159v157h-4q-99 -180 -306 -180q-355 0 -355 423z" />
<glyph unicode="v" horiz-adv-x="951" d="M14 993h174l252 -721q29 -80 35 -139h4q10 75 31 135l264 725h168l-396 -993h-156z" />
<glyph unicode="w" horiz-adv-x="1435" d="M23 993h167l206 -747q9 -34 13 -89h8q3 43 18 91l228 745h146l206 -749q9 -35 14 -89h8q2 38 16 89l202 749h157l-297 -993h-165l-205 711q-12 41 -16 92h-3q-3 -35 -21 -90l-222 -713h-159z" />
<glyph unicode="x" horiz-adv-x="911" d="M25 0l339 487l-324 506h185l192 -339q21 -38 42 -78h4l248 417h176l-334 -502l328 -491h-186l-194 322q-19 30 -44 76h-4q-5 -9 -46 -76l-198 -322h-184z" />
<glyph unicode="y" horiz-adv-x="961" d="M14 993h176l269 -764q5 -15 20 -76h6q5 24 19 74l283 766h165l-457 -1152q-123 -309 -344 -309q-62 0 -103 13v143q51 -18 94 -18q120 0 180 144l80 188z" />
<glyph unicode="z" horiz-adv-x="898" d="M32 0v49l588 808h-533v136h767v-45l-588 -812h582v-136h-816z" />
<glyph unicode="{" horiz-adv-x="599" d="M89 481v113q152 9 152 209v283q0 301 297 305v-124q-154 -4 -154 -192v-284q0 -204 -145 -251v-4q145 -43 145 -248v-280q0 -108 34.5 -154t119.5 -48v-122q-297 4 -297 300v291q0 196 -152 206z" />
<glyph unicode="|" horiz-adv-x="475" d="M167 -468v1987h143v-1987h-143z" />
<glyph unicode="}" horiz-adv-x="599" d="M64 -194q84 2 119.5 48.5t35.5 153.5v280q0 205 145 248v4q-145 47 -145 251v284q0 188 -155 192v124q297 -4 297 -305v-283q0 -200 151 -209v-113q-151 -10 -151 -206v-291q0 -296 -297 -300v122z" />
<glyph unicode="~" horiz-adv-x="1358" d="M203 427q5 139 77 220t195 81q103 0 228 -86q128 -87 191 -87q60 0 95.5 47.5t37.5 125.5h131q-7 -144 -78 -222.5t-193 -78.5q-106 0 -257 106q-95 65 -155 65q-135 0 -141 -171h-131z" />
<glyph unicode="&#xa1;" horiz-adv-x="564" d="M175 908q0 45 31.5 76t75.5 31t76 -31t32 -76t-32 -76t-76 -31t-75.5 31t-31.5 76zM201 -394l18 999h130l19 -999h-167z" />
<glyph unicode="&#xa2;" horiz-adv-x="1070" d="M178 630q0 212 111.5 355t298.5 179v207h121v-197q119 -2 214 -50v-167q-98 69 -214 76v-761q118 11 214 83v-152q-93 -57 -214 -67v-184h-121v186q-187 21 -298.5 156t-111.5 336zM341 646q0 -145 66 -241.5t181 -122.5v738q-116 -30 -181.5 -129t-65.5 -245z" />
<glyph unicode="&#xa3;" horiz-adv-x="1070" d="M103 0v131q211 67 211 304v181h-191v137h191v246q0 182 106 298.5t274 116.5q113 0 206 -40v-150q-97 55 -205 55q-222 0 -222 -297v-229h287v-137h-287v-151q0 -235 -187 -329h690v-136h-873z" />
<glyph unicode="&#xa4;" horiz-adv-x="1103" d="M97 343l134 130q-74 110 -74 230q0 125 74 230l-134 132l89 93l134 -133q107 75 233 75q125 0 230 -75l135 133l89 -93l-133 -132q76 -109 76 -230q0 -117 -76 -230l133 -130l-89 -93l-133 134q-102 -74 -232 -74q-132 0 -233 74l-134 -134zM286 705q0 -109 78 -188 t189 -79q110 0 189 79t79 188q0 110 -80.5 188.5t-187.5 78.5q-113 0 -190 -78.5t-77 -188.5z" />
<glyph unicode="&#xa5;" horiz-adv-x="1070" d="M66 1391h186l243 -499q27 -56 45 -107h4q13 40 48 113l244 493h175l-346 -636h277v-135h-324v-201h324v-135h-324v-284h-159v284h-334v135h334v201h-334v135h282z" />
<glyph unicode="&#xa6;" horiz-adv-x="475" d="M167 359h143v-827h-143v827zM167 694v825h143v-825h-143z" />
<glyph unicode="&#xa7;" horiz-adv-x="890" d="M127 711q0 158 143 237q-103 80 -103 216q0 123 90.5 202.5t239.5 79.5q126 0 212 -41v-154q-98 60 -216 60q-163 0 -163 -139q0 -54 39 -97.5t197 -119.5q217 -103 217 -284q0 -165 -145 -267q88 -72 88 -181q0 -128 -97 -207.5t-248 -79.5q-127 0 -232 54v154 q126 -72 243 -72q81 0 126 38t45 97q0 51 -34.5 86.5t-175.5 110.5q-226 118 -226 307zM288 724q0 -70 55 -123t191 -114q86 66 86 167q0 70 -51 119t-183 105q-98 -50 -98 -154z" />
<glyph unicode="&#xa8;" horiz-adv-x="822" d="M121 1277q0 41 28 68.5t67 27.5q40 0 69 -28t29 -68q0 -39 -28 -67.5t-67 -28.5q-41 0 -69.5 29t-28.5 67zM497 1277q0 41 27 68.5t66 27.5q40 0 68.5 -28t28.5 -68q0 -39 -27.5 -67.5t-67.5 -28.5q-39 0 -67 27.5t-28 68.5z" />
<glyph unicode="&#xa9;" horiz-adv-x="1768" d="M157 695q0 302 213 515t515 213q300 0 513 -213t213 -515q0 -301 -213 -514t-513 -213q-302 0 -515 213t-213 514zM242 695q0 -265 188.5 -453t454.5 -188q265 0 453 188t188 453q0 266 -188 454.5t-453 188.5q-266 0 -454.5 -188.5t-188.5 -454.5zM439 671 q0 240 140.5 382.5t364.5 142.5q128 0 229 -51v-146q-92 70 -247 70q-151 0 -249.5 -103.5t-98.5 -277.5q0 -169 100.5 -271.5t255.5 -102.5q142 0 243 76v-132q-111 -67 -261 -67q-203 0 -340 137.5t-137 342.5z" />
<glyph unicode="&#xaa;" horiz-adv-x="778" d="M80 883q0 196 240 228l222 30q0 163 -146 163q-132 0 -247 -84v124q108 68 258 68q123 0 191.5 -69.5t68.5 -195.5v-452h-125v97h-4q-76 -115 -224 -115q-105 0 -169.5 57.5t-64.5 148.5zM205 889q0 -50 37 -81t99 -31q80 0 140.5 59t60.5 142v65l-174 -25 q-163 -22 -163 -129z" />
<glyph unicode="&#xab;" horiz-adv-x="1004" d="M89 520l290 334h161l-294 -334l294 -326h-161zM465 520l290 334h165l-298 -334l296 -326h-163z" />
<glyph unicode="&#xac;" horiz-adv-x="1358" d="M225 663v129h912v-546h-128v417h-784z" />
<glyph unicode="&#xad;" horiz-adv-x="794" d="M140 491v125h529v-125h-529z" />
<glyph unicode="&#xae;" horiz-adv-x="1768" d="M157 695q0 302 213 515t515 213q300 0 513 -213t213 -515q0 -301 -213 -514t-513 -213q-302 0 -515 213t-213 514zM242 695q0 -265 188.5 -453t454.5 -188q265 0 453 188t188 453q0 266 -188 454.5t-453 188.5q-266 0 -454.5 -188.5t-188.5 -454.5zM600 241v925h260 q162 0 250 -68t88 -184q0 -95 -61.5 -162t-172.5 -90v-4q77 -17 152 -171l122 -246h-157l-101 222q-77 167 -165 167h-86v-389h-129zM729 739h139q191 0 191 159q0 86 -51.5 121.5t-162.5 35.5h-116v-316z" />
<glyph unicode="&#xaf;" horiz-adv-x="824" d="M0 1354v117h824v-117h-824z" />
<glyph unicode="&#xb0;" horiz-adv-x="748" d="M105 1141q0 111 77.5 188t189.5 77t191 -77.5t79 -187.5q0 -113 -78.5 -192t-190.5 -79q-111 0 -189.5 79t-78.5 192zM221 1141q0 -65 43.5 -111t107.5 -46q63 0 108.5 46.5t45.5 110.5t-45 108t-108 44t-107.5 -44.5t-44.5 -107.5z" />
<glyph unicode="&#xb1;" horiz-adv-x="1358" d="M225 0v129h912v-129h-912zM225 632v128h393v392h127v-392h392v-128h-392v-391h-127v391h-393z" />
<glyph unicode="&#xb2;" horiz-adv-x="727" d="M101 857v111l233 229q101 99 128 152t27 106q0 56 -37 91.5t-97 35.5q-114 0 -209 -99v145q81 73 227 73q115 0 182 -64t67 -168q0 -149 -199 -338l-159 -151v-4h374v-119h-537z" />
<glyph unicode="&#xb3;" horiz-adv-x="727" d="M125 889v137q100 -73 211 -73q77 0 121.5 36t44.5 98q0 137 -212 137h-81v115h77q191 0 191 130q0 115 -139 115q-92 0 -181 -67v135q85 49 207 49q109 0 174 -57.5t65 -150.5q0 -147 -140 -199v-4q171 -41 171 -196q0 -113 -82.5 -185t-219.5 -72q-133 0 -207 52z" />
<glyph unicode="&#xb4;" horiz-adv-x="560" d="M131 1181l216 319h161l-254 -319h-123z" />
<glyph unicode="&#xb5;" horiz-adv-x="1146" d="M161 -384v1377h158v-607q0 -123 67 -196t175 -73q117 0 190 83.5t73 224.5v568h162v-736q0 -182 31 -257h-165q-23 70 -23 163h-5q-81 -185 -270 -185q-162 0 -231 119h-4v-481h-158z" />
<glyph unicode="&#xb6;" horiz-adv-x="909" d="M81 1135q0 113 72.5 184.5t176.5 71.5h479v-100h-124v-1291h-103v1291h-153v-1291h-105v876q-105 0 -174 73.5t-69 185.5z" />
<glyph unicode="&#xb7;" horiz-adv-x="430" d="M109 603q0 46 31.5 78t75.5 32q46 0 78 -32t32 -78q0 -44 -32 -76t-78 -32q-44 0 -75.5 32t-31.5 76z" />
<glyph unicode="&#xb8;" horiz-adv-x="407" d="M49 -330q42 -6 68 -6q137 0 137 88q0 75 -125 75q-10 0 -40 -4v177h105v-101q85 0 135 -38.5t50 -108.5q0 -171 -266 -171q-37 0 -64 2v87z" />
<glyph unicode="&#xb9;" horiz-adv-x="697" d="M123 1489v121l313 93v-737h184v-109h-489v109h179v576z" />
<glyph unicode="&#xba;" horiz-adv-x="855" d="M76 1037q0 175 99.5 274t262.5 99q159 0 250 -96.5t91 -262.5q0 -172 -96.5 -274t-259.5 -102q-162 0 -254.5 97.5t-92.5 264.5zM207 1041q0 -120 57.5 -188t164.5 -68q102 0 161.5 69t59.5 189q0 122 -58.5 191.5t-160.5 69.5q-103 0 -163.5 -70t-60.5 -193z" />
<glyph unicode="&#xbb;" horiz-adv-x="1004" d="M87 194l299 328l-299 332h165l290 -332l-290 -328h-165zM468 194l292 328l-292 332h160l292 -332l-292 -328h-160z" />
<glyph unicode="&#xbc;" horiz-adv-x="1800" d="M123 1198v121l313 93v-737h184v-109h-489v109h179v576zM379 0l834 1391h138l-832 -1391h-140zM1039 198v90l358 537h151v-521h107v-106h-107v-198h-128v198h-381zM1171 304h249v313q0 31 4 86h-4q-12 -30 -37 -71z" />
<glyph unicode="&#xbd;" horiz-adv-x="1848" d="M123 1198v121l313 93v-737h184v-109h-489v109h179v576zM379 0l834 1391h138l-832 -1391h-140zM1158 0v111l233 229q101 99 128 152t27 106q0 56 -37 91.5t-97 35.5q-114 0 -209 -99v145q81 73 227 73q115 0 182 -64t67 -168q0 -149 -199 -338l-159 -151v-4h374v-119h-537 z" />
<glyph unicode="&#xbe;" horiz-adv-x="1891" d="M125 598v137q100 -73 211 -73q77 0 121.5 36t44.5 98q0 137 -212 137h-81v115h77q191 0 191 130q0 115 -139 115q-92 0 -181 -67v135q85 49 207 49q109 0 174 -57.5t65 -150.5q0 -147 -140 -199v-4q171 -41 171 -196q0 -113 -82.5 -185t-219.5 -72q-133 0 -207 52zM448 0 l834 1391h138l-832 -1391h-140zM1102 198v90l358 537h151v-521h107v-106h-107v-198h-128v198h-381zM1234 304h249v313q0 31 4 86h-4q-12 -30 -37 -71z" />
<glyph unicode="&#xbf;" horiz-adv-x="890" d="M139 -112q0 72 25 128.5t63.5 103.5t83 87.5t83 81t63.5 84t25 96.5q0 44 -10.5 80.5t-21.5 61.5h156q9 -25 16 -65.5t7 -79.5q0 -62 -25 -112t-62 -94t-80.5 -84t-80.5 -81.5t-61.5 -86.5t-24.5 -99q0 -47 18 -83t49 -60t71.5 -36t86.5 -12q164 0 284 129v-171 q-148 -93 -307 -93q-74 0 -139 19.5t-113.5 57.5t-77 95.5t-28.5 132.5zM411 908q0 46 32 76q33 31 76 31t76 -31q32 -30 32 -76q0 -45 -32 -76q-32 -32 -76 -32t-76 32q-32 31 -32 76z" />
<glyph unicode="&#xc0;" horiz-adv-x="1281" d="M21 0l534 1391h169l535 -1391h-180l-148 390h-590l-138 -390h-182zM396 536h482l-218 593q-11 29 -22 93h-4q-9 -59 -22 -93zM358 1838h162l215 -319h-123z" />
<glyph unicode="&#xc1;" horiz-adv-x="1281" d="M21 0l534 1391h169l535 -1391h-180l-148 390h-590l-138 -390h-182zM396 536h482l-218 593q-11 29 -22 93h-4q-9 -59 -22 -93zM464 1519l216 319h161l-254 -319h-123z" />
<glyph unicode="&#xc2;" horiz-adv-x="1281" d="M21 0l534 1391h169l535 -1391h-180l-148 390h-590l-138 -390h-182zM396 536h482l-218 593q-11 29 -22 93h-4q-9 -59 -22 -93zM352 1518l209 323h129l209 -323h-118l-159 224l-160 -224h-110z" />
<glyph unicode="&#xc3;" horiz-adv-x="1281" d="M21 0l534 1391h169l535 -1391h-180l-148 390h-590l-138 -390h-182zM396 536h482l-218 593q-11 29 -22 93h-4q-9 -59 -22 -93zM326 1501q0 104 46.5 166.5t129.5 62.5q64 0 145 -51q72 -42 124 -42q82 0 82 112h95q0 -102 -46.5 -166.5t-126.5 -64.5q-69 0 -157 51 q-75 42 -116 42q-85 0 -85 -110h-91z" />
<glyph unicode="&#xc4;" horiz-adv-x="1281" d="M21 0l534 1391h169l535 -1391h-180l-148 390h-590l-138 -390h-182zM396 536h482l-218 593q-11 29 -22 93h-4q-9 -59 -22 -93zM344 1614q0 41 28 68.5t67 27.5q40 0 69 -28t29 -68q0 -39 -28 -67.5t-67 -28.5q-41 0 -69.5 29t-28.5 67zM720 1614q0 41 27 68.5t66 27.5 q40 0 68.5 -28t28.5 -68q0 -39 -27.5 -67.5t-67.5 -28.5q-39 0 -67 27.5t-28 68.5z" />
<glyph unicode="&#xc5;" horiz-adv-x="1281" d="M21 0l513 1337q-98 50 -98 159q0 86 58.5 139.5t147.5 53.5q86 0 140 -53t54 -134q0 -109 -93 -161l516 -1341h-180l-148 390h-590l-138 -390h-182zM396 536h482l-218 593q-11 29 -22 93h-4q-9 -59 -22 -93zM526 1502q0 -111 110 -111q47 0 79 32t32 79t-32 77t-79 30 q-48 0 -79 -30.5t-31 -76.5z" />
<glyph unicode="&#xc6;" horiz-adv-x="1709" d="M10 0l679 1391h896v-147h-542v-463h503v-147h-503v-487h574v-147h-736v390h-495l-187 -390h-189zM453 536h428v708h-92z" />
<glyph unicode="&#xc7;" horiz-adv-x="1229" d="M91 669q0 334 201 539.5t509 205.5q198 0 328 -57v-174q-149 84 -330 84q-239 0 -388 -160t-149 -428q0 -254 139 -405t365 -151q210 0 363 93v-158q-154 -81 -384 -81q-297 0 -475.5 191t-178.5 501zM601 -330q42 -6 68 -6q137 0 137 88q0 75 -125 75q-10 0 -40 -4v177 h105v-101q85 0 135 -38.5t50 -108.5q0 -171 -266 -171q-37 0 -64 2v87z" />
<glyph unicode="&#xc8;" horiz-adv-x="1004" d="M182 0v1391h707v-147h-544v-463h503v-147h-503v-487h575v-147h-738zM305 1838h162l215 -319h-123z" />
<glyph unicode="&#xc9;" horiz-adv-x="1004" d="M182 0v1391h707v-147h-544v-463h503v-147h-503v-487h575v-147h-738zM402 1518l216 319h161l-254 -319h-123z" />
<glyph unicode="&#xca;" horiz-adv-x="1004" d="M182 0v1391h707v-147h-544v-463h503v-147h-503v-487h575v-147h-738zM255 1520l209 323h129l209 -323h-118l-159 224l-160 -224h-110z" />
<glyph unicode="&#xcb;" horiz-adv-x="1004" d="M182 0v1391h707v-147h-544v-463h503v-147h-503v-487h575v-147h-738zM256 1615q0 41 28 68.5t67 27.5q40 0 69 -28t29 -68q0 -39 -28 -67.5t-67 -28.5q-41 0 -69.5 29t-28.5 67zM632 1615q0 41 27 68.5t66 27.5q40 0 68.5 -28t28.5 -68q0 -39 -27.5 -67.5t-67.5 -28.5 q-39 0 -67 27.5t-28 68.5z" />
<glyph unicode="&#xcc;" horiz-adv-x="528" d="M47 0v140h135v1111h-135v140h434v-140h-136v-1111h136v-140h-434zM27 1838h162l215 -319h-123z" />
<glyph unicode="&#xcd;" horiz-adv-x="528" d="M47 0v140h135v1111h-135v140h434v-140h-136v-1111h136v-140h-434zM116 1519l216 319h161l-254 -319h-123z" />
<glyph unicode="&#xce;" horiz-adv-x="528" d="M47 0v140h135v1111h-135v140h434v-140h-136v-1111h136v-140h-434zM-4 1520l209 323h129l209 -323h-118l-159 224l-160 -224h-110z" />
<glyph unicode="&#xcf;" horiz-adv-x="528" d="M47 0v140h135v1111h-135v140h434v-140h-136v-1111h136v-140h-434zM-15 1615q0 41 28 68.5t67 27.5q40 0 69 -28t29 -68q0 -39 -28 -67.5t-67 -28.5q-41 0 -69.5 29t-28.5 67zM361 1615q0 41 27 68.5t66 27.5q40 0 68.5 -28t28.5 -68q0 -39 -27.5 -67.5t-67.5 -28.5 q-39 0 -67 27.5t-28 68.5z" />
<glyph unicode="&#xd0;" horiz-adv-x="1392" d="M27 622v150h155v619h384q736 0 736 -678q0 -324 -204.5 -518.5t-546.5 -194.5h-369v622h-155zM345 147h208q273 0 425.5 146.5t152.5 415.5q0 535 -568 535h-218v-472h326v-150h-326v-475z" />
<glyph unicode="&#xd1;" horiz-adv-x="1486" d="M182 0v1391h212l696 -1091q44 -68 57 -93h3q-9 60 -9 204v980h163v-1391h-200l-716 1109q-27 41 -45 87h-5q7 -45 7 -191v-1005h-163zM458 1501q0 104 46.5 166.5t129.5 62.5q64 0 145 -51q72 -42 124 -42q82 0 82 112h95q0 -102 -46.5 -166.5t-126.5 -64.5 q-69 0 -157 51q-75 42 -116 42q-85 0 -85 -110h-91z" />
<glyph unicode="&#xd2;" horiz-adv-x="1497" d="M91 679q0 336 181.5 535.5t493.5 199.5q288 0 464 -194t176 -507q0 -341 -180 -538.5t-483 -197.5q-296 0 -474 195t-178 507zM262 694q0 -258 133.5 -414.5t347.5 -156.5q229 0 361 149.5t132 418.5q0 275 -128 425.5t-353 150.5q-220 0 -356.5 -158t-136.5 -415z M477 1838h162l215 -319h-123z" />
<glyph unicode="&#xd3;" horiz-adv-x="1497" d="M91 679q0 336 181.5 535.5t493.5 199.5q288 0 464 -194t176 -507q0 -341 -180 -538.5t-483 -197.5q-296 0 -474 195t-178 507zM262 694q0 -258 133.5 -414.5t347.5 -156.5q229 0 361 149.5t132 418.5q0 275 -128 425.5t-353 150.5q-220 0 -356.5 -158t-136.5 -415z M620 1519l216 319h161l-254 -319h-123z" />
<glyph unicode="&#xd4;" horiz-adv-x="1497" d="M91 679q0 336 181.5 535.5t493.5 199.5q288 0 464 -194t176 -507q0 -341 -180 -538.5t-483 -197.5q-296 0 -474 195t-178 507zM262 694q0 -258 133.5 -414.5t347.5 -156.5q229 0 361 149.5t132 418.5q0 275 -128 425.5t-353 150.5q-220 0 -356.5 -158t-136.5 -415z M484 1519l209 323h129l209 -323h-118l-159 224l-160 -224h-110z" />
<glyph unicode="&#xd5;" horiz-adv-x="1497" d="M91 679q0 336 181.5 535.5t493.5 199.5q288 0 464 -194t176 -507q0 -341 -180 -538.5t-483 -197.5q-296 0 -474 195t-178 507zM262 694q0 -258 133.5 -414.5t347.5 -156.5q229 0 361 149.5t132 418.5q0 275 -128 425.5t-353 150.5q-220 0 -356.5 -158t-136.5 -415z M448 1500q0 104 46.5 166.5t129.5 62.5q64 0 145 -51q72 -42 124 -42q82 0 82 112h95q0 -102 -46.5 -166.5t-126.5 -64.5q-69 0 -157 51q-75 42 -116 42q-85 0 -85 -110h-91z" />
<glyph unicode="&#xd6;" horiz-adv-x="1497" d="M91 679q0 336 181.5 535.5t493.5 199.5q288 0 464 -194t176 -507q0 -341 -180 -538.5t-483 -197.5q-296 0 -474 195t-178 507zM262 694q0 -258 133.5 -414.5t347.5 -156.5q229 0 361 149.5t132 418.5q0 275 -128 425.5t-353 150.5q-220 0 -356.5 -158t-136.5 -415z M468 1612q0 41 28 68.5t67 27.5q40 0 69 -28t29 -68q0 -39 -28 -67.5t-67 -28.5q-41 0 -69.5 29t-28.5 67zM844 1612q0 41 27 68.5t66 27.5q40 0 68.5 -28t28.5 -68q0 -39 -27.5 -67.5t-67.5 -28.5q-39 0 -67 27.5t-28 68.5z" />
<glyph unicode="&#xd7;" horiz-adv-x="1358" d="M260 250l330 328l-330 330l91 91l328 -330l330 330l91 -91l-330 -330l330 -328l-91 -91l-330 330l-328 -330z" />
<glyph unicode="&#xd8;" horiz-adv-x="1497" d="M91 14l153 185q-153 189 -153 480q0 333 181 534t494 201q227 0 390 -125l131 157l76 -61l-135 -161q178 -194 178 -511q0 -341 -180 -538.5t-483 -197.5q-258 0 -429 150l-147 -176zM262 694q0 -217 95 -362l700 836q-122 99 -302 99q-221 0 -357 -159t-136 -414z M419 256q127 -133 324 -133q229 0 361 150t132 418q0 252 -114 405z" />
<glyph unicode="&#xd9;" horiz-adv-x="1364" d="M165 540v851h163v-840q0 -428 361 -428q348 0 348 413v855h163v-828q0 -586 -529 -586q-506 0 -506 563zM428 1838h162l215 -319h-123z" />
<glyph unicode="&#xda;" horiz-adv-x="1364" d="M165 540v851h163v-840q0 -428 361 -428q348 0 348 413v855h163v-828q0 -586 -529 -586q-506 0 -506 563zM554 1518l216 319h161l-254 -319h-123z" />
<glyph unicode="&#xdb;" horiz-adv-x="1364" d="M165 540v851h163v-840q0 -428 361 -428q348 0 348 413v855h163v-828q0 -586 -529 -586q-506 0 -506 563zM410 1520l209 323h129l209 -323h-118l-159 224l-160 -224h-110z" />
<glyph unicode="&#xdc;" horiz-adv-x="1364" d="M165 540v851h163v-840q0 -428 361 -428q348 0 348 413v855h163v-828q0 -586 -529 -586q-506 0 -506 563zM397 1616q0 41 28 68.5t67 27.5q40 0 69 -28t29 -68q0 -39 -28 -67.5t-67 -28.5q-41 0 -69.5 29t-28.5 67zM773 1616q0 41 27 68.5t66 27.5q40 0 68.5 -28t28.5 -68 q0 -39 -27.5 -67.5t-67.5 -28.5q-39 0 -67 27.5t-28 68.5z" />
<glyph unicode="&#xdd;" horiz-adv-x="1098" d="M17 1391h186l311 -629q6 -11 34 -85h3q10 33 37 85l326 629h172l-458 -877v-514h-163v510zM429 1519l216 319h161l-254 -319h-123z" />
<glyph unicode="&#xde;" horiz-adv-x="1112" d="M182 0v1391h163v-219h220q225 0 346.5 -108.5t121.5 -306.5t-137 -323.5t-370 -125.5h-181v-308h-163zM345 455h171q168 0 257 75.5t89 216.5q0 278 -326 278h-191v-570z" />
<glyph unicode="&#xdf;" horiz-adv-x="1080" d="M161 0v1081q0 186 106.5 298.5t287.5 112.5q161 0 257 -92t96 -244q0 -123 -73 -221t-189 -136v-5q367 -72 367 -413q0 -171 -108 -287.5t-285 -116.5q-98 0 -173 25v155q73 -46 165 -46q106 0 172 71t66 191q0 146 -97 236.5t-270 110.5v126q115 19 188.5 99.5 t73.5 191.5q0 105 -53.5 162.5t-147.5 57.5q-224 0 -224 -300v-1057h-159z" />
<glyph unicode="&#xe0;" horiz-adv-x="1010" d="M87 264q0 278 328 324l298 42q0 253 -205 253q-179 0 -324 -123v163q147 94 338 94q350 0 350 -371v-646h-159v155h-4q-104 -178 -305 -178q-149 0 -233 78.5t-84 208.5zM250 275q0 -72 52 -118t138 -46q119 0 196 82.5t77 210.5v98l-240 -33q-110 -15 -166.5 -54.5 t-56.5 -139.5zM277 1500h162l215 -319h-123z" />
<glyph unicode="&#xe1;" horiz-adv-x="1010" d="M87 264q0 278 328 324l298 42q0 253 -205 253q-179 0 -324 -123v163q147 94 338 94q350 0 350 -371v-646h-159v155h-4q-104 -178 -305 -178q-149 0 -233 78.5t-84 208.5zM250 275q0 -72 52 -118t138 -46q119 0 196 82.5t77 210.5v98l-240 -33q-110 -15 -166.5 -54.5 t-56.5 -139.5zM357 1181l216 319h161l-254 -319h-123z" />
<glyph unicode="&#xe2;" horiz-adv-x="1010" d="M87 264q0 278 328 324l298 42q0 253 -205 253q-179 0 -324 -123v163q147 94 338 94q350 0 350 -371v-646h-159v155h-4q-104 -178 -305 -178q-149 0 -233 78.5t-84 208.5zM250 275q0 -72 52 -118t138 -46q119 0 196 82.5t77 210.5v98l-240 -33q-110 -15 -166.5 -54.5 t-56.5 -139.5zM235 1181l209 323h129l209 -323h-118l-159 224l-160 -224h-110z" />
<glyph unicode="&#xe3;" horiz-adv-x="1010" d="M87 264q0 278 328 324l298 42q0 253 -205 253q-179 0 -324 -123v163q147 94 338 94q350 0 350 -371v-646h-159v155h-4q-104 -178 -305 -178q-149 0 -233 78.5t-84 208.5zM250 275q0 -72 52 -118t138 -46q119 0 196 82.5t77 210.5v98l-240 -33q-110 -15 -166.5 -54.5 t-56.5 -139.5zM197 1166q0 104 46.5 166.5t129.5 62.5q64 0 145 -51q72 -42 124 -42q82 0 82 112h95q0 -102 -46.5 -166.5t-126.5 -64.5q-69 0 -157 51q-75 42 -116 42q-85 0 -85 -110h-91z" />
<glyph unicode="&#xe4;" horiz-adv-x="1010" d="M87 264q0 278 328 324l298 42q0 253 -205 253q-179 0 -324 -123v163q147 94 338 94q350 0 350 -371v-646h-159v155h-4q-104 -178 -305 -178q-149 0 -233 78.5t-84 208.5zM250 275q0 -72 52 -118t138 -46q119 0 196 82.5t77 210.5v98l-240 -33q-110 -15 -166.5 -54.5 t-56.5 -139.5zM216 1277q0 41 28 68.5t67 27.5q40 0 69 -28t29 -68q0 -39 -28 -67.5t-67 -28.5q-41 0 -69.5 29t-28.5 67zM592 1277q0 41 27 68.5t66 27.5q40 0 68.5 -28t28.5 -68q0 -39 -27.5 -67.5t-67.5 -28.5q-39 0 -67 27.5t-28 68.5z" />
<glyph unicode="&#xe5;" horiz-adv-x="1010" d="M87 264q0 278 328 324l298 42q0 253 -205 253q-179 0 -324 -123v163q147 94 338 94q350 0 350 -371v-646h-159v155h-4q-104 -178 -305 -178q-149 0 -233 78.5t-84 208.5zM250 275q0 -72 52 -118t138 -46q119 0 196 82.5t77 210.5v98l-240 -33q-110 -15 -166.5 -54.5 t-56.5 -139.5zM306 1325q0 87 57 139.5t145 52.5q87 0 142 -52.5t55 -133.5q0 -82 -59 -136t-145 -54q-84 0 -139.5 51t-55.5 133zM393 1329q0 -109 108 -109q49 0 81 31t32 78t-32 78.5t-81 31.5q-46 0 -77 -32t-31 -78z" />
<glyph unicode="&#xe6;" horiz-adv-x="1652" d="M87 264q0 291 372 314l254 16q0 289 -209 289q-169 0 -320 -119v159q144 94 338 94q225 0 291 -194h4q112 194 345 194q196 0 303.5 -127t107.5 -352v-81h-703q3 -166 88.5 -256t233.5 -90q172 0 312 110v-149q-129 -95 -348 -95q-262 0 -371 222h-4q-141 -222 -376 -222 q-148 0 -233 78t-85 209zM248 268q0 -71 51.5 -114t138.5 -43q116 0 195.5 82t79.5 205v61l-197 -12q-135 -8 -201.5 -47.5t-66.5 -131.5zM872 592h538q-2 139 -66.5 215t-179.5 76q-113 0 -193.5 -79.5t-98.5 -211.5z" />
<glyph unicode="&#xe7;" horiz-adv-x="917" d="M93 473q0 246 140.5 395t375.5 149q131 0 231 -49v-163q-111 78 -237 78q-152 0 -249.5 -109.5t-97.5 -286.5q0 -175 91.5 -275.5t246.5 -100.5q130 0 244 86v-151q-114 -69 -272 -69q-212 0 -342.5 138t-130.5 358zM424 -330q42 -6 68 -6q137 0 137 88q0 75 -125 75 q-10 0 -40 -4v177h105v-101q85 0 135 -38.5t50 -108.5q0 -171 -266 -171q-37 0 -64 2v87z" />
<glyph unicode="&#xe8;" horiz-adv-x="1038" d="M93 493q0 232 131.5 378t326.5 146t301.5 -126.5t106.5 -350.5v-83h-701q4 -166 89.5 -256t234.5 -90q168 0 308 110v-149q-130 -95 -346 -95q-210 0 -330.5 135t-120.5 381zM260 592h536q-1 137 -66.5 214t-181.5 77q-112 0 -191 -80.5t-97 -210.5zM326 1500h162 l215 -319h-123z" />
<glyph unicode="&#xe9;" horiz-adv-x="1038" d="M93 493q0 232 131.5 378t326.5 146t301.5 -126.5t106.5 -350.5v-83h-701q4 -166 89.5 -256t234.5 -90q168 0 308 110v-149q-130 -95 -346 -95q-210 0 -330.5 135t-120.5 381zM260 592h536q-1 137 -66.5 214t-181.5 77q-112 0 -191 -80.5t-97 -210.5zM394 1181l216 319 h161l-254 -319h-123z" />
<glyph unicode="&#xea;" horiz-adv-x="1038" d="M93 493q0 232 131.5 378t326.5 146t301.5 -126.5t106.5 -350.5v-83h-701q4 -166 89.5 -256t234.5 -90q168 0 308 110v-149q-130 -95 -346 -95q-210 0 -330.5 135t-120.5 381zM260 592h536q-1 137 -66.5 214t-181.5 77q-112 0 -191 -80.5t-97 -210.5zM267 1181l209 323 h129l209 -323h-118l-159 224l-160 -224h-110z" />
<glyph unicode="&#xeb;" horiz-adv-x="1038" d="M93 493q0 232 131.5 378t326.5 146t301.5 -126.5t106.5 -350.5v-83h-701q4 -166 89.5 -256t234.5 -90q168 0 308 110v-149q-130 -95 -346 -95q-210 0 -330.5 135t-120.5 381zM260 592h536q-1 137 -66.5 214t-181.5 77q-112 0 -191 -80.5t-97 -210.5zM253 1277 q0 41 28 68.5t67 27.5q40 0 69 -28t29 -68q0 -39 -28 -67.5t-67 -28.5q-41 0 -69.5 29t-28.5 67zM629 1277q0 41 27 68.5t66 27.5q40 0 68.5 -28t28.5 -68q0 -39 -27.5 -67.5t-67.5 -28.5q-39 0 -67 27.5t-28 68.5z" />
<glyph unicode="&#xec;" horiz-adv-x="481" d="M161 0v993h159v-993h-159zM-19 1500h162l215 -319h-123z" />
<glyph unicode="&#xed;" horiz-adv-x="481" d="M161 0v993h159v-993h-159zM85 1181l216 319h161l-254 -319h-123z" />
<glyph unicode="&#xee;" horiz-adv-x="481" d="M161 0v993h159v-993h-159zM-44 1181l209 323h129l209 -323h-118l-159 224l-160 -224h-110z" />
<glyph unicode="&#xef;" horiz-adv-x="481" d="M161 0v993h159v-993h-159zM-54 1277q0 41 28 68.5t67 27.5q40 0 69 -28t29 -68q0 -39 -28 -67.5t-67 -28.5q-41 0 -69.5 29t-28.5 67zM322 1277q0 41 27 68.5t66 27.5q40 0 68.5 -28t28.5 -68q0 -39 -27.5 -67.5t-67.5 -28.5q-39 0 -67 27.5t-28 68.5z" />
<glyph unicode="&#xf0;" horiz-adv-x="1110" d="M93 485q0 236 126 383t340 147q119 0 203 -76l4 3q-87 157 -192 258l-290 -147l-49 95l262 128q-115 101 -256 195h214q73 -51 167 -132l280 139l53 -91l-256 -126q318 -298 318 -751q0 -233 -125.5 -382t-340.5 -149t-336.5 135.5t-121.5 370.5zM256 491 q0 -176 80.5 -278t224.5 -102q134 0 213.5 104.5t79.5 279.5q0 388 -289 388q-144 0 -226.5 -105.5t-82.5 -286.5z" />
<glyph unicode="&#xf1;" d="M161 0v993h159v-165h4q112 189 326 189q163 0 249.5 -105.5t86.5 -304.5v-607h-160v566q0 317 -230 317q-120 0 -198 -90t-78 -227v-566h-159zM259 1166q0 104 46.5 166.5t129.5 62.5q64 0 145 -51q72 -42 124 -42q82 0 82 112h95q0 -102 -46.5 -166.5t-126.5 -64.5 q-69 0 -157 51q-75 42 -116 42q-85 0 -85 -110h-91z" />
<glyph unicode="&#xf2;" horiz-adv-x="1164" d="M93 485q0 250 137 391t369 141q223 0 347.5 -137t124.5 -379q0 -238 -134.5 -381t-360.5 -143q-220 0 -351.5 139t-131.5 369zM256 491q0 -177 90 -278.5t242 -101.5q154 0 237 99.5t83 284.5q0 186 -83 287t-237 101q-153 0 -242.5 -104.5t-89.5 -287.5zM348 1500h162 l215 -319h-123z" />
<glyph unicode="&#xf3;" horiz-adv-x="1164" d="M93 485q0 250 137 391t369 141q223 0 347.5 -137t124.5 -379q0 -238 -134.5 -381t-360.5 -143q-220 0 -351.5 139t-131.5 369zM256 491q0 -177 90 -278.5t242 -101.5q154 0 237 99.5t83 284.5q0 186 -83 287t-237 101q-153 0 -242.5 -104.5t-89.5 -287.5zM443 1181 l216 319h161l-254 -319h-123z" />
<glyph unicode="&#xf4;" horiz-adv-x="1164" d="M93 485q0 250 137 391t369 141q223 0 347.5 -137t124.5 -379q0 -238 -134.5 -381t-360.5 -143q-220 0 -351.5 139t-131.5 369zM256 491q0 -177 90 -278.5t242 -101.5q154 0 237 99.5t83 284.5q0 186 -83 287t-237 101q-153 0 -242.5 -104.5t-89.5 -287.5zM311 1181 l209 323h129l209 -323h-118l-159 224l-160 -224h-110z" />
<glyph unicode="&#xf5;" horiz-adv-x="1164" d="M93 485q0 250 137 391t369 141q223 0 347.5 -137t124.5 -379q0 -238 -134.5 -381t-360.5 -143q-220 0 -351.5 139t-131.5 369zM256 491q0 -177 90 -278.5t242 -101.5q154 0 237 99.5t83 284.5q0 186 -83 287t-237 101q-153 0 -242.5 -104.5t-89.5 -287.5zM281 1166 q0 104 46.5 166.5t129.5 62.5q64 0 145 -51q72 -42 124 -42q82 0 82 112h95q0 -102 -46.5 -166.5t-126.5 -64.5q-69 0 -157 51q-75 42 -116 42q-85 0 -85 -110h-91z" />
<glyph unicode="&#xf6;" horiz-adv-x="1164" d="M93 485q0 250 137 391t369 141q223 0 347.5 -137t124.5 -379q0 -238 -134.5 -381t-360.5 -143q-220 0 -351.5 139t-131.5 369zM256 491q0 -177 90 -278.5t242 -101.5q154 0 237 99.5t83 284.5q0 186 -83 287t-237 101q-153 0 -242.5 -104.5t-89.5 -287.5zM299 1277 q0 41 28 68.5t67 27.5q40 0 69 -28t29 -68q0 -39 -28 -67.5t-67 -28.5q-41 0 -69.5 29t-28.5 67zM675 1277q0 41 27 68.5t66 27.5q40 0 68.5 -28t28.5 -68q0 -39 -27.5 -67.5t-67.5 -28.5q-39 0 -67 27.5t-28 68.5z" />
<glyph unicode="&#xf7;" horiz-adv-x="1358" d="M225 514v130h912v-130h-912zM580 209q0 43 29 75t74 32q98 0 98 -106q0 -43 -28 -72t-70 -29q-43 0 -73 29t-30 71zM586 944q0 43 28 74.5t73 31.5q100 0 100 -104q0 -46 -29.5 -75t-70.5 -29q-43 0 -72 29.5t-29 72.5z" />
<glyph unicode="&#xf8;" horiz-adv-x="1164" d="M48 -4l144 159q-99 133 -99 330q0 250 138 391t370 141q179 0 299 -95l157 170l82 -75l-163 -175q95 -134 95 -336q0 -244 -135 -386.5t-360 -142.5q-186 0 -308 99l-141 -156zM256 491q0 -128 49 -217l491 537q-76 72 -208 72q-154 0 -243 -104.5t-89 -287.5zM372 184 q84 -73 214 -73q158 0 241 100.5t83 285.5q0 130 -46 223z" />
<glyph unicode="&#xf9;" d="M140 400v593h158v-568q0 -314 240 -314q117 0 192 85.5t75 224.5v572h159v-993h-159v157h-4q-99 -180 -306 -180q-355 0 -355 423zM307 1500h162l215 -319h-123z" />
<glyph unicode="&#xfa;" d="M140 400v593h158v-568q0 -314 240 -314q117 0 192 85.5t75 224.5v572h159v-993h-159v157h-4q-99 -180 -306 -180q-355 0 -355 423zM438 1181l216 319h161l-254 -319h-123z" />
<glyph unicode="&#xfb;" d="M140 400v593h158v-568q0 -314 240 -314q117 0 192 85.5t75 224.5v572h159v-993h-159v157h-4q-99 -180 -306 -180q-355 0 -355 423zM281 1181l209 323h129l209 -323h-118l-159 224l-160 -224h-110z" />
<glyph unicode="&#xfc;" d="M140 400v593h158v-568q0 -314 240 -314q117 0 192 85.5t75 224.5v572h159v-993h-159v157h-4q-99 -180 -306 -180q-355 0 -355 423zM276 1277q0 41 28 68.5t67 27.5q40 0 69 -28t29 -68q0 -39 -28 -67.5t-67 -28.5q-41 0 -69.5 29t-28.5 67zM652 1277q0 41 27 68.5 t66 27.5q40 0 68.5 -28t28.5 -68q0 -39 -27.5 -67.5t-67.5 -28.5q-39 0 -67 27.5t-28 68.5z" />
<glyph unicode="&#xfd;" horiz-adv-x="961" d="M14 993h176l269 -764q5 -15 20 -76h6q5 24 19 74l283 766h165l-457 -1152q-123 -309 -344 -309q-62 0 -103 13v143q51 -18 94 -18q120 0 180 144l80 188zM362 1181l216 319h161l-254 -319h-123z" />
<glyph unicode="&#xfe;" horiz-adv-x="1167" d="M161 -457v1928h159v-652h4q117 198 343 198q192 0 300 -133.5t108 -357.5q0 -250 -121.5 -399.5t-331.5 -149.5q-193 0 -298 167h-4v-601h-159zM320 405q0 -123 80 -208.5t203 -85.5q145 0 227 110.5t82 307.5q0 166 -76.5 260t-207.5 94q-139 0 -223.5 -96.5 t-84.5 -242.5v-139z" />
<glyph unicode="&#xff;" horiz-adv-x="961" d="M14 993h176l269 -764q5 -15 20 -76h6q5 24 19 74l283 766h165l-457 -1152q-123 -309 -344 -309q-62 0 -103 13v143q51 -18 94 -18q120 0 180 144l80 188zM198 1277q0 41 28 68.5t67 27.5q40 0 69 -28t29 -68q0 -39 -28 -67.5t-67 -28.5q-41 0 -69.5 29t-28.5 67z M574 1277q0 41 27 68.5t66 27.5q40 0 68.5 -28t28.5 -68q0 -39 -27.5 -67.5t-67.5 -28.5q-39 0 -67 27.5t-28 68.5z" />
<glyph unicode="&#x100;" horiz-adv-x="1281" d="M21 0l534 1391h169l535 -1391h-180l-148 390h-590l-138 -390h-182zM396 536h482l-218 593q-11 29 -22 93h-4q-9 -59 -22 -93zM392 1520v106h493v-106h-493z" />
<glyph unicode="&#x101;" horiz-adv-x="1010" d="M87 264q0 278 328 324l298 42q0 253 -205 253q-179 0 -324 -123v163q147 94 338 94q350 0 350 -371v-646h-159v155h-4q-104 -178 -305 -178q-149 0 -233 78.5t-84 208.5zM250 275q0 -72 52 -118t138 -46q119 0 196 82.5t77 210.5v98l-240 -33q-110 -15 -166.5 -54.5 t-56.5 -139.5zM283 1181v106h493v-106h-493z" />
<glyph unicode="&#x102;" horiz-adv-x="1281" d="M21 0l534 1391h169l535 -1391h-180l-148 390h-590l-138 -390h-182zM396 536h482l-218 593q-11 29 -22 93h-4q-9 -59 -22 -93zM372 1765h97q12 -150 167 -150q66 0 113 40.5t56 109.5h99q-9 -110 -85.5 -177.5t-184.5 -67.5q-114 0 -185.5 67t-76.5 178z" />
<glyph unicode="&#x103;" horiz-adv-x="1010" d="M87 264q0 278 328 324l298 42q0 253 -205 253q-179 0 -324 -123v163q147 94 338 94q350 0 350 -371v-646h-159v155h-4q-104 -178 -305 -178q-149 0 -233 78.5t-84 208.5zM250 275q0 -72 52 -118t138 -46q119 0 196 82.5t77 210.5v98l-240 -33q-110 -15 -166.5 -54.5 t-56.5 -139.5zM248 1426h97q12 -150 167 -150q66 0 113 40.5t56 109.5h99q-9 -110 -85.5 -177.5t-184.5 -67.5q-114 0 -185.5 67t-76.5 178z" />
<glyph unicode="&#x104;" horiz-adv-x="1281" d="M21 0l534 1391h169l535 -1391h-180l-148 390h-590l-138 -390h-182zM396 536h482l-218 593q-11 29 -22 93h-4q-9 -59 -22 -93zM922 -242q0 118 152 242h116q-146 -137 -146 -216q0 -68 66 -68q29 0 55 12v-103q-29 -13 -80 -13q-74 0 -118.5 39t-44.5 107z" />
<glyph unicode="&#x105;" horiz-adv-x="1010" d="M87 264q0 278 328 324l298 42q0 253 -205 253q-179 0 -324 -123v163q147 94 338 94q350 0 350 -371v-646h-159v155h-4q-104 -178 -305 -178q-149 0 -233 78.5t-84 208.5zM250 275q0 -72 52 -118t138 -46q119 0 196 82.5t77 210.5v98l-240 -33q-110 -15 -166.5 -54.5 t-56.5 -139.5zM557 -242q0 118 152 242h116q-146 -137 -146 -216q0 -68 66 -68q29 0 55 12v-103q-29 -13 -80 -13q-74 0 -118.5 39t-44.5 107z" />
<glyph unicode="&#x106;" horiz-adv-x="1229" d="M91 669q0 334 201 539.5t509 205.5q198 0 328 -57v-174q-149 84 -330 84q-239 0 -388 -160t-149 -428q0 -254 139 -405t365 -151q210 0 363 93v-158q-154 -81 -384 -81q-297 0 -475.5 191t-178.5 501zM586 1519l216 319h161l-254 -319h-123z" />
<glyph unicode="&#x107;" horiz-adv-x="917" d="M93 473q0 246 140.5 395t375.5 149q131 0 231 -49v-163q-111 78 -237 78q-152 0 -249.5 -109.5t-97.5 -286.5q0 -175 91.5 -275.5t246.5 -100.5q130 0 244 86v-151q-114 -69 -272 -69q-212 0 -342.5 138t-130.5 358zM413 1181l216 319h161l-254 -319h-123z" />
<glyph unicode="&#x108;" horiz-adv-x="1229" d="M91 669q0 334 201 539.5t509 205.5q198 0 328 -57v-174q-149 84 -330 84q-239 0 -388 -160t-149 -428q0 -254 139 -405t365 -151q210 0 363 93v-158q-154 -81 -384 -81q-297 0 -475.5 191t-178.5 501zM468 1521l209 323h129l209 -323h-118l-159 224l-160 -224h-110z" />
<glyph unicode="&#x109;" horiz-adv-x="917" d="M93 473q0 246 140.5 395t375.5 149q131 0 231 -49v-163q-111 78 -237 78q-152 0 -249.5 -109.5t-97.5 -286.5q0 -175 91.5 -275.5t246.5 -100.5q130 0 244 86v-151q-114 -69 -272 -69q-212 0 -342.5 138t-130.5 358zM267 1181l209 323h129l209 -323h-118l-159 224 l-160 -224h-110z" />
<glyph unicode="&#x10a;" horiz-adv-x="1229" d="M91 669q0 334 201 539.5t509 205.5q198 0 328 -57v-174q-149 84 -330 84q-239 0 -388 -160t-149 -428q0 -254 139 -405t365 -151q210 0 363 93v-158q-154 -81 -384 -81q-297 0 -475.5 191t-178.5 501zM649 1616q0 39 28 66.5t68 27.5t67.5 -27t27.5 -67 q0 -39 -27.5 -67.5t-67.5 -28.5q-39 0 -67.5 28t-28.5 68z" />
<glyph unicode="&#x10b;" horiz-adv-x="917" d="M93 473q0 246 140.5 395t375.5 149q131 0 231 -49v-163q-111 78 -237 78q-152 0 -249.5 -109.5t-97.5 -286.5q0 -175 91.5 -275.5t246.5 -100.5q130 0 244 86v-151q-114 -69 -272 -69q-212 0 -342.5 138t-130.5 358zM481 1277q0 39 28 66.5t68 27.5t67.5 -27t27.5 -67 q0 -39 -27.5 -67.5t-67.5 -28.5q-39 0 -67.5 28t-28.5 68z" />
<glyph unicode="&#x10c;" horiz-adv-x="1229" d="M91 669q0 334 201 539.5t509 205.5q198 0 328 -57v-174q-149 84 -330 84q-239 0 -388 -160t-149 -428q0 -254 139 -405t365 -151q210 0 363 93v-158q-154 -81 -384 -81q-297 0 -475.5 191t-178.5 501zM477 1840h111l160 -223l159 223h115l-208 -321h-128z" />
<glyph unicode="&#x10d;" horiz-adv-x="917" d="M93 473q0 246 140.5 395t375.5 149q131 0 231 -49v-163q-111 78 -237 78q-152 0 -249.5 -109.5t-97.5 -286.5q0 -175 91.5 -275.5t246.5 -100.5q130 0 244 86v-151q-114 -69 -272 -69q-212 0 -342.5 138t-130.5 358zM287 1502h111l160 -223l159 223h115l-208 -321h-128z " />
<glyph unicode="&#x10e;" horiz-adv-x="1392" d="M182 0v1391h384q736 0 736 -678q0 -322 -204.5 -517.5t-546.5 -195.5h-369zM345 147h208q273 0 425.5 146.5t152.5 415.5q0 535 -568 535h-218v-1097zM388 1840h111l160 -223l159 223h115l-208 -321h-128z" />
<glyph unicode="&#x10f;" horiz-adv-x="1339" d="M93 473q0 247 124 395.5t331 148.5q205 0 298 -161h4v615h159v-1471h-159v169h-4q-111 -192 -342 -192q-187 0 -299 133t-112 363zM256 481q0 -172 80 -271t215 -99q133 0 216 96t83 242v147q0 120 -79.5 203.5t-202.5 83.5q-145 0 -228.5 -107t-83.5 -295zM1134 1218 l114 253h167l-161 -253h-120z" />
<glyph unicode="&#x110;" horiz-adv-x="1392" d="M27 622v150h155v619h384q736 0 736 -678q0 -324 -204.5 -518.5t-546.5 -194.5h-369v622h-155zM345 147h208q273 0 425.5 146.5t152.5 415.5q0 535 -568 535h-218v-472h326v-150h-326v-475z" />
<glyph unicode="&#x111;" horiz-adv-x="1169" d="M93 473q0 247 124 395.5t331 148.5q202 0 298 -161h4v310h-321v130h321v175h159v-175h132v-130h-132v-1166h-159v169h-4q-111 -192 -342 -192q-187 0 -299 133t-112 363zM256 481q0 -172 80 -271t215 -99q132 0 215.5 96t83.5 242v147q0 120 -79.5 203.5t-202.5 83.5 q-145 0 -228.5 -107t-83.5 -295z" />
<glyph unicode="&#x112;" horiz-adv-x="1004" d="M182 0v1391h707v-147h-544v-463h503v-147h-503v-487h575v-147h-738zM306 1519v106h493v-106h-493z" />
<glyph unicode="&#x113;" horiz-adv-x="1038" d="M93 493q0 232 131.5 378t326.5 146t301.5 -126.5t106.5 -350.5v-83h-701q4 -166 89.5 -256t234.5 -90q168 0 308 110v-149q-130 -95 -346 -95q-210 0 -330.5 135t-120.5 381zM260 592h536q-1 137 -66.5 214t-181.5 77q-112 0 -191 -80.5t-97 -210.5zM302 1181v106h493 v-106h-493z" />
<glyph unicode="&#x114;" horiz-adv-x="1004" d="M182 0v1391h707v-147h-544v-463h503v-147h-503v-487h575v-147h-738zM272 1766h97q12 -150 167 -150q66 0 113 40.5t56 109.5h99q-9 -110 -85.5 -177.5t-184.5 -67.5q-114 0 -185.5 67t-76.5 178z" />
<glyph unicode="&#x115;" horiz-adv-x="1038" d="M93 493q0 232 131.5 378t326.5 146t301.5 -126.5t106.5 -350.5v-83h-701q4 -166 89.5 -256t234.5 -90q168 0 308 110v-149q-130 -95 -346 -95q-210 0 -330.5 135t-120.5 381zM260 592h536q-1 137 -66.5 214t-181.5 77q-112 0 -191 -80.5t-97 -210.5zM274 1426h97 q12 -150 167 -150q66 0 113 40.5t56 109.5h99q-9 -110 -85.5 -177.5t-184.5 -67.5q-114 0 -185.5 67t-76.5 178z" />
<glyph unicode="&#x116;" horiz-adv-x="1004" d="M182 0v1391h707v-147h-544v-463h503v-147h-503v-487h575v-147h-738zM438 1616q0 39 28 66.5t68 27.5t67.5 -27t27.5 -67q0 -39 -27.5 -67.5t-67.5 -28.5q-39 0 -67.5 28t-28.5 68z" />
<glyph unicode="&#x117;" horiz-adv-x="1038" d="M93 493q0 232 131.5 378t326.5 146t301.5 -126.5t106.5 -350.5v-83h-701q4 -166 89.5 -256t234.5 -90q168 0 308 110v-149q-130 -95 -346 -95q-210 0 -330.5 135t-120.5 381zM260 592h536q-1 137 -66.5 214t-181.5 77q-112 0 -191 -80.5t-97 -210.5zM463 1277 q0 39 28 66.5t68 27.5t67.5 -27t27.5 -67q0 -39 -27.5 -67.5t-67.5 -28.5q-39 0 -67.5 28t-28.5 68z" />
<glyph unicode="&#x118;" horiz-adv-x="1004" d="M182 0v1391h707v-147h-544v-463h503v-147h-503v-487h575v-147h-738zM571 -242q0 118 152 242h116q-146 -137 -146 -216q0 -68 66 -68q29 0 55 12v-103q-29 -13 -80 -13q-74 0 -118.5 39t-44.5 107z" />
<glyph unicode="&#x119;" horiz-adv-x="1038" d="M93 493q0 232 131.5 378t326.5 146t301.5 -126.5t106.5 -350.5v-83h-701q4 -166 89.5 -256t234.5 -90q168 0 308 110v-149q-130 -95 -346 -95q-210 0 -330.5 135t-120.5 381zM260 592h536q-1 137 -66.5 214t-181.5 77q-112 0 -191 -80.5t-97 -210.5zM464 -242 q0 118 152 242h116q-146 -137 -146 -216q0 -68 66 -68q29 0 55 12v-103q-29 -13 -80 -13q-74 0 -118.5 39t-44.5 107z" />
<glyph unicode="&#x11a;" horiz-adv-x="1004" d="M182 0v1391h707v-147h-544v-463h503v-147h-503v-487h575v-147h-738zM271 1840h111l160 -223l159 223h115l-208 -321h-128z" />
<glyph unicode="&#x11b;" horiz-adv-x="1038" d="M93 493q0 232 131.5 378t326.5 146t301.5 -126.5t106.5 -350.5v-83h-701q4 -166 89.5 -256t234.5 -90q168 0 308 110v-149q-130 -95 -346 -95q-210 0 -330.5 135t-120.5 381zM260 592h536q-1 137 -66.5 214t-181.5 77q-112 0 -191 -80.5t-97 -210.5zM274 1502h111 l160 -223l159 223h115l-208 -321h-128z" />
<glyph unicode="&#x11c;" horiz-adv-x="1362" d="M91 677q0 323 204.5 530t517.5 207q227 0 381 -73v-181q-169 107 -400 107q-233 0 -382.5 -161t-149.5 -417q0 -264 138.5 -415t376.5 -151q163 0 282 65v390h-304v148h467v-631q-209 -118 -465 -118q-298 0 -482 192t-184 508zM482 1521l209 323h129l209 -323h-118 l-159 224l-160 -224h-110z" />
<glyph unicode="&#x11d;" horiz-adv-x="1169" d="M93 465q0 253 122 402.5t333 149.5q201 0 298 -161h4v137h159v-913q0 -548 -524 -548q-184 0 -322 70v159q168 -93 320 -93q367 0 367 390v109h-4q-114 -190 -342 -190q-185 0 -298 132.5t-113 355.5zM256 475q0 -166 80 -265t212 -99q134 0 218 95t84 243v147 q0 118 -80 202.5t-200 84.5q-147 0 -230.5 -107.5t-83.5 -300.5zM292 1181l209 323h129l209 -323h-118l-159 224l-160 -224h-110z" />
<glyph unicode="&#x11e;" horiz-adv-x="1362" d="M91 677q0 323 204.5 530t517.5 207q227 0 381 -73v-181q-169 107 -400 107q-233 0 -382.5 -161t-149.5 -417q0 -264 138.5 -415t376.5 -151q163 0 282 65v390h-304v148h467v-631q-209 -118 -465 -118q-298 0 -482 192t-184 508zM504 1763h97q12 -150 167 -150 q66 0 113 40.5t56 109.5h99q-9 -110 -85.5 -177.5t-184.5 -67.5q-114 0 -185.5 67t-76.5 178z" />
<glyph unicode="&#x11f;" horiz-adv-x="1169" d="M93 465q0 253 122 402.5t333 149.5q201 0 298 -161h4v137h159v-913q0 -548 -524 -548q-184 0 -322 70v159q168 -93 320 -93q367 0 367 390v109h-4q-114 -190 -342 -190q-185 0 -298 132.5t-113 355.5zM256 475q0 -166 80 -265t212 -99q134 0 218 95t84 243v147 q0 118 -80 202.5t-200 84.5q-147 0 -230.5 -107.5t-83.5 -300.5zM310 1426h97q12 -150 167 -150q66 0 113 40.5t56 109.5h99q-9 -110 -85.5 -177.5t-184.5 -67.5q-114 0 -185.5 67t-76.5 178z" />
<glyph unicode="&#x120;" horiz-adv-x="1362" d="M91 677q0 323 204.5 530t517.5 207q227 0 381 -73v-181q-169 107 -400 107q-233 0 -382.5 -161t-149.5 -417q0 -264 138.5 -415t376.5 -151q163 0 282 65v390h-304v148h467v-631q-209 -118 -465 -118q-298 0 -482 192t-184 508zM678 1616q0 39 28 66.5t68 27.5t67.5 -27 t27.5 -67q0 -39 -27.5 -67.5t-67.5 -28.5q-39 0 -67.5 28t-28.5 68z" />
<glyph unicode="&#x121;" horiz-adv-x="1169" d="M93 465q0 253 122 402.5t333 149.5q201 0 298 -161h4v137h159v-913q0 -548 -524 -548q-184 0 -322 70v159q168 -93 320 -93q367 0 367 390v109h-4q-114 -190 -342 -190q-185 0 -298 132.5t-113 355.5zM256 475q0 -166 80 -265t212 -99q134 0 218 95t84 243v147 q0 118 -80 202.5t-200 84.5q-147 0 -230.5 -107.5t-83.5 -300.5zM462 1277q0 39 28 66.5t68 27.5t67.5 -27t27.5 -67q0 -39 -27.5 -67.5t-67.5 -28.5q-39 0 -67.5 28t-28.5 68z" />
<glyph unicode="&#x122;" horiz-adv-x="1362" d="M91 677q0 323 204.5 530t517.5 207q227 0 381 -73v-181q-169 107 -400 107q-233 0 -382.5 -161t-149.5 -417q0 -264 138.5 -415t376.5 -151q163 0 282 65v390h-304v148h467v-631q-209 -118 -465 -118q-298 0 -482 192t-184 508zM578 -368l114 253h167l-161 -253h-120z " />
<glyph unicode="&#x123;" horiz-adv-x="1169" d="M93 465q0 253 122 402.5t333 149.5q203 0 298 -161h4v137h159v-913q0 -548 -524 -548q-187 0 -322 70v159q169 -93 320 -93q367 0 367 390v109h-4q-113 -190 -342 -190q-184 0 -297.5 133t-113.5 355zM256 475q0 -165 80.5 -264.5t211.5 -99.5q135 0 218.5 94.5 t83.5 243.5v147q0 117 -79.5 202t-200.5 85q-149 0 -231.5 -108t-82.5 -300zM457 1181l161 253h119l-113 -253h-167z" />
<glyph unicode="&#x124;" horiz-adv-x="1410" d="M182 0v1391h163v-610h720v610h163v-1391h-163v634h-720v-634h-163zM429 1519l209 323h129l209 -323h-118l-159 224l-160 -224h-110z" />
<glyph unicode="&#x125;" d="M161 0v1471h159v-643h4q114 189 326 189q336 0 336 -405v-612h-160v572q0 311 -230 311q-117 0 -196.5 -90t-79.5 -230v-563h-159zM337 1597l209 323h129l209 -323h-118l-159 224l-160 -224h-110z" />
<glyph unicode="&#x126;" horiz-adv-x="1410" d="M27 997v148h155v246h163v-246h720v246h163v-246h155v-148h-155v-997h-163v634h-720v-634h-163v997h-155zM345 781h720v216h-720v-216z" />
<glyph unicode="&#x127;" d="M29 1166v130h132v175h159v-175h322v-130h-322v-338h4q116 189 326 189q163 0 249.5 -104t86.5 -301v-612h-160v572q0 311 -230 311q-117 0 -196.5 -90t-79.5 -230v-563h-159v1166h-132z" />
<glyph unicode="&#x128;" horiz-adv-x="528" d="M47 0v140h135v1111h-135v140h434v-140h-136v-1111h136v-140h-434zM-47 1502q0 104 46.5 166.5t129.5 62.5q64 0 145 -51q72 -42 124 -42q82 0 82 112h95q0 -102 -46.5 -166.5t-126.5 -64.5q-69 0 -157 51q-75 42 -116 42q-85 0 -85 -110h-91z" />
<glyph unicode="&#x129;" horiz-adv-x="481" d="M161 0v993h159v-993h-159zM-80 1166q0 104 46.5 166.5t129.5 62.5q64 0 145 -51q72 -42 124 -42q82 0 82 112h95q0 -102 -46.5 -166.5t-126.5 -64.5q-69 0 -157 51q-75 42 -116 42q-85 0 -85 -110h-91z" />
<glyph unicode="&#x12a;" horiz-adv-x="528" d="M47 0v140h135v1111h-135v140h434v-140h-136v-1111h136v-140h-434zM18 1519v106h493v-106h-493z" />
<glyph unicode="&#x12b;" horiz-adv-x="481" d="M161 0v993h159v-993h-159zM-17 1181v106h493v-106h-493z" />
<glyph unicode="&#x12c;" horiz-adv-x="528" d="M47 0v140h135v1111h-135v140h434v-140h-136v-1111h136v-140h-434zM-2 1764h97q12 -150 167 -150q66 0 113 40.5t56 109.5h99q-9 -110 -85.5 -177.5t-184.5 -67.5q-114 0 -185.5 67t-76.5 178z" />
<glyph unicode="&#x12d;" horiz-adv-x="481" d="M161 0v993h159v-993h-159zM-36 1426h97q12 -150 167 -150q66 0 113 40.5t56 109.5h99q-9 -110 -85.5 -177.5t-184.5 -67.5q-114 0 -185.5 67t-76.5 178z" />
<glyph unicode="&#x12e;" horiz-adv-x="528" d="M47 0v140h135v1111h-135v140h434v-140h-136v-1111h136v-140h-434zM146 -242q0 118 152 242h116q-146 -137 -146 -216q0 -68 66 -68q29 0 55 12v-103q-29 -13 -80 -13q-74 0 -118.5 39t-44.5 107z" />
<glyph unicode="&#x12f;" horiz-adv-x="481" d="M140 1348q0 45 30 74.5t72 29.5q44 0 74.5 -29.5t30.5 -74.5q0 -42 -30.5 -72.5t-74.5 -30.5q-42 0 -72 29.5t-30 73.5zM161 0v993h159v-993h-159zM53 -242q0 118 152 242h116q-146 -137 -146 -216q0 -68 66 -68q29 0 55 12v-103q-29 -13 -80 -13q-74 0 -118.5 39 t-44.5 107z" />
<glyph unicode="&#x130;" horiz-adv-x="528" d="M47 0v140h135v1111h-135v140h434v-140h-136v-1111h136v-140h-434zM168 1616q0 39 28 66.5t68 27.5t67.5 -27t27.5 -67q0 -39 -27.5 -67.5t-67.5 -28.5q-39 0 -67.5 28t-28.5 68z" />
<glyph unicode="&#x131;" horiz-adv-x="481" d="M161 0v993h159v-993h-159z" />
<glyph unicode="&#x132;" horiz-adv-x="1237" d="M47 0v140h135v1111h-135v140h434v-140h-136v-1111h136v-140h-434zM550 0v161q53 -38 136 -38q220 0 220 374v894h163v-892q0 -248 -104.5 -385t-280.5 -137q-81 0 -134 23z" />
<glyph unicode="&#x133;" horiz-adv-x="983" d="M140 1348q0 45 30 74.5t72 29.5q44 0 74.5 -29.5t30.5 -74.5q0 -42 -30.5 -72.5t-74.5 -30.5q-42 0 -72 29.5t-30 73.5zM161 0v993h159v-993h-159zM310 -288q72 -44 136 -44q217 0 217 348v977h159v-951q0 -245 -98.5 -377.5t-281.5 -132.5q-68 0 -132 32v148zM642 1348 q0 45 30 74.5t72 29.5q44 0 74.5 -29.5t30.5 -74.5q0 -42 -30.5 -72.5t-74.5 -30.5q-42 0 -72 29.5t-30 73.5z" />
<glyph unicode="&#x134;" horiz-adv-x="709" d="M19 0v161q53 -38 136 -38q220 0 220 374v894h163v-892q0 -248 -104.5 -385t-280.5 -137q-81 0 -134 23zM184 1519l209 323h129l209 -323h-118l-159 224l-160 -224h-110z" />
<glyph unicode="&#x135;" horiz-adv-x="481" d="M-192 -288q72 -44 136 -44q217 0 217 348v977h159v-951q0 -245 -98.5 -377.5t-281.5 -132.5q-68 0 -132 32v148zM-36 1181l209 323h129l209 -323h-118l-159 224l-160 -224h-110z" />
<glyph unicode="&#x136;" horiz-adv-x="1152" d="M182 0v1391h163v-654h4q14 22 37 48l520 606h203l-597 -667l638 -724h-227l-537 636q-30 36 -37 49h-4v-685h-163zM439 -368l114 253h167l-161 -253h-120z" />
<glyph unicode="&#x137;" horiz-adv-x="987" d="M161 0v1471h159v-933h4l417 455h209l-461 -479l497 -514h-224l-438 477h-4v-477h-159zM343 -368l114 253h167l-161 -253h-120z" />
<glyph unicode="&#x138;" horiz-adv-x="987" d="M161 0v993h159v-455h4l417 455h209l-461 -479l497 -514h-224l-438 477h-4v-477h-159z" />
<glyph unicode="&#x139;" horiz-adv-x="935" d="M182 0v1391h163v-1244h559v-147h-722zM453 1519l216 319h161l-254 -319h-123z" />
<glyph unicode="&#x13a;" horiz-adv-x="481" d="M161 0v1471h159v-1471h-159zM138 1601l216 319h161l-254 -319h-123z" />
<glyph unicode="&#x13b;" horiz-adv-x="935" d="M182 0v1391h163v-1244h559v-147h-722zM413 -330q42 -6 68 -6q137 0 137 88q0 75 -125 75q-10 0 -40 -4v177h105v-101q85 0 135 -38.5t50 -108.5q0 -171 -266 -171q-37 0 -64 2v87z" />
<glyph unicode="&#x13c;" horiz-adv-x="481" d="M161 0v1471h159v-1471h-159zM132 -330q42 -6 68 -6q137 0 137 88q0 75 -125 75q-10 0 -40 -4v177h105v-101q85 0 135 -38.5t50 -108.5q0 -171 -266 -171q-37 0 -64 2v87z" />
<glyph unicode="&#x13d;" horiz-adv-x="935" d="M182 0v1391h163v-1244h559v-147h-722zM597 1138l114 253h167l-161 -253h-120z" />
<glyph unicode="&#x13e;" horiz-adv-x="610" d="M161 0v1471h159v-1471h-159zM405 1212l114 253h167l-161 -253h-120z" />
<glyph unicode="&#x13f;" horiz-adv-x="935" d="M182 0v1391h163v-1244h559v-147h-722zM618 742q0 39 28 66.5t68 27.5t67.5 -27t27.5 -67q0 -39 -27.5 -67.5t-67.5 -28.5q-39 0 -67.5 28t-28.5 68z" />
<glyph unicode="&#x140;" horiz-adv-x="625" d="M161 0v1471h159v-1471h-159zM437 742q0 39 28 66.5t68 27.5t67.5 -27t27.5 -67q0 -39 -27.5 -67.5t-67.5 -28.5q-39 0 -67.5 28t-28.5 68z" />
<glyph unicode="&#x141;" horiz-adv-x="935" d="M32 436v148l150 93v714h163v-612l318 197v-150l-318 -194v-485h559v-147h-722v531z" />
<glyph unicode="&#x142;" horiz-adv-x="544" d="M21 445v153l165 115v758h159v-650l169 118v-152l-169 -120v-667h-159v561z" />
<glyph unicode="&#x143;" horiz-adv-x="1486" d="M182 0v1391h212l696 -1091q44 -68 57 -93h3q-9 60 -9 204v980h163v-1391h-200l-716 1109q-27 41 -45 87h-5q7 -45 7 -191v-1005h-163zM599 1519l216 319h161l-254 -319h-123z" />
<glyph unicode="&#x144;" d="M161 0v993h159v-165h4q112 189 326 189q163 0 249.5 -105.5t86.5 -304.5v-607h-160v566q0 317 -230 317q-120 0 -198 -90t-78 -227v-566h-159zM434 1181l216 319h161l-254 -319h-123z" />
<glyph unicode="&#x145;" horiz-adv-x="1486" d="M182 0v1391h212l696 -1091q44 -68 57 -93h3q-9 60 -9 204v980h163v-1391h-200l-716 1109q-27 41 -45 87h-5q7 -45 7 -191v-1005h-163zM563 -368l114 253h167l-161 -253h-120z" />
<glyph unicode="&#x146;" d="M161 0v993h159v-165h4q112 189 326 189q163 0 249.5 -105.5t86.5 -304.5v-607h-160v566q0 317 -230 317q-120 0 -198 -90t-78 -227v-566h-159zM391 -368l114 253h167l-161 -253h-120z" />
<glyph unicode="&#x147;" horiz-adv-x="1486" d="M182 0v1391h212l696 -1091q44 -68 57 -93h3q-9 60 -9 204v980h163v-1391h-200l-716 1109q-27 41 -45 87h-5q7 -45 7 -191v-1005h-163zM470 1840h111l160 -223l159 223h115l-208 -321h-128z" />
<glyph unicode="&#x148;" d="M161 0v993h159v-165h4q112 189 326 189q163 0 249.5 -105.5t86.5 -304.5v-607h-160v566q0 317 -230 317q-120 0 -198 -90t-78 -227v-566h-159zM310 1502h111l160 -223l159 223h115l-208 -321h-128z" />
<glyph unicode="&#x149;" horiz-adv-x="1203" d="M241 0v993h159v-165h4q112 189 326 189q163 0 249.5 -105.5t86.5 -304.5v-607h-160v566q0 317 -230 317q-120 0 -198 -90t-78 -227v-566h-159zM-39 982l107 432h143l-136 -432h-114z" />
<glyph unicode="&#x14a;" horiz-adv-x="1486" d="M182 0v1391h212l696 -1034q2 -2 57 -101h3q-9 70 -9 213v922h163v-1329q0 -471 -354 -471q-74 0 -133 30v160q75 -43 137 -43q183 0 183 262l-749 1109q-21 31 -45 87h-5q7 -51 7 -191v-1005h-163z" />
<glyph unicode="&#x14b;" d="M161 0v993h159v-165h4q113 189 326 189q336 0 336 -410v-582q0 -434 -348 -434q-73 0 -134 30v160q76 -43 138 -43q184 0 184 262v566q0 317 -230 317q-119 0 -197.5 -90t-78.5 -227v-566h-159z" />
<glyph unicode="&#x14c;" horiz-adv-x="1497" d="M91 679q0 336 181.5 535.5t493.5 199.5q288 0 464 -194t176 -507q0 -341 -180 -538.5t-483 -197.5q-296 0 -474 195t-178 507zM262 694q0 -258 133.5 -414.5t347.5 -156.5q229 0 361 149.5t132 418.5q0 275 -128 425.5t-353 150.5q-220 0 -356.5 -158t-136.5 -415z M508 1519v106h493v-106h-493z" />
<glyph unicode="&#x14d;" horiz-adv-x="1164" d="M93 485q0 250 137 391t369 141q223 0 347.5 -137t124.5 -379q0 -238 -134.5 -381t-360.5 -143q-220 0 -351.5 139t-131.5 369zM256 491q0 -177 90 -278.5t242 -101.5q154 0 237 99.5t83 284.5q0 186 -83 287t-237 101q-153 0 -242.5 -104.5t-89.5 -287.5zM345 1181v106 h493v-106h-493z" />
<glyph unicode="&#x14e;" horiz-adv-x="1497" d="M91 679q0 336 181.5 535.5t493.5 199.5q288 0 464 -194t176 -507q0 -341 -180 -538.5t-483 -197.5q-296 0 -474 195t-178 507zM262 694q0 -258 133.5 -414.5t347.5 -156.5q229 0 361 149.5t132 418.5q0 275 -128 425.5t-353 150.5q-220 0 -356.5 -158t-136.5 -415z M493 1766h97q12 -150 167 -150q66 0 113 40.5t56 109.5h99q-9 -110 -85.5 -177.5t-184.5 -67.5q-114 0 -185.5 67t-76.5 178z" />
<glyph unicode="&#x14f;" horiz-adv-x="1164" d="M93 485q0 250 137 391t369 141q223 0 347.5 -137t124.5 -379q0 -238 -134.5 -381t-360.5 -143q-220 0 -351.5 139t-131.5 369zM256 491q0 -177 90 -278.5t242 -101.5q154 0 237 99.5t83 284.5q0 186 -83 287t-237 101q-153 0 -242.5 -104.5t-89.5 -287.5zM336 1426h97 q12 -150 167 -150q66 0 113 40.5t56 109.5h99q-9 -110 -85.5 -177.5t-184.5 -67.5q-114 0 -185.5 67t-76.5 178z" />
<glyph unicode="&#x150;" horiz-adv-x="1497" d="M91 679q0 336 181.5 535.5t493.5 199.5q288 0 464 -194t176 -507q0 -341 -180 -538.5t-483 -197.5q-296 0 -474 195t-178 507zM262 694q0 -258 133.5 -414.5t347.5 -156.5q229 0 361 149.5t132 418.5q0 275 -128 425.5t-353 150.5q-220 0 -356.5 -158t-136.5 -415z M529 1521l200 309h126l-233 -309h-93zM763 1521l203 309h129l-238 -309h-94z" />
<glyph unicode="&#x151;" horiz-adv-x="1164" d="M93 485q0 250 137 391t369 141q223 0 347.5 -137t124.5 -379q0 -238 -134.5 -381t-360.5 -143q-220 0 -351.5 139t-131.5 369zM256 491q0 -177 90 -278.5t242 -101.5q154 0 237 99.5t83 284.5q0 186 -83 287t-237 101q-153 0 -242.5 -104.5t-89.5 -287.5zM371 1181 l200 309h126l-233 -309h-93zM605 1181l203 309h129l-238 -309h-94z" />
<glyph unicode="&#x152;" horiz-adv-x="1848" d="M91 679q0 336 184 535.5t499 199.5q87 0 173 -9q108 -14 110 -14h668v-147h-544v-463h503v-147h-503v-487h575v-147h-699q-15 0 -134 -14q-95 -9 -176 -9q-303 0 -479.5 195t-176.5 507zM262 694q0 -251 135.5 -411t355.5 -160q112 0 265 32v1085q-155 27 -259 27 q-223 0 -360 -161t-137 -412z" />
<glyph unicode="&#x153;" horiz-adv-x="1843" d="M93 483q0 250 138 392t370 142q286 0 390 -228h4q116 228 374 228q190 0 295.5 -128t105.5 -347v-85h-703q3 -166 89 -256t235 -90q170 0 309 110v-149q-132 -95 -346 -95q-262 0 -370 230h-4q-127 -230 -404 -230q-222 0 -352.5 138.5t-130.5 367.5zM256 487 q0 -175 89.5 -275.5t240.5 -100.5q154 0 238 99t84 283q0 188 -84 289t-236 101q-153 0 -242.5 -105.5t-89.5 -290.5zM1069 592h538q-2 137 -67 214t-177 77q-117 0 -198 -83t-96 -208z" />
<glyph unicode="&#x154;" horiz-adv-x="1188" d="M182 0v1391h416q91 0 168 -23t133.5 -69.5t88.5 -115.5t32 -163q0 -72 -21.5 -133t-62 -108.5t-97 -81t-127.5 -51.5v-4q35 -15 60.5 -35t49 -47t46 -61.5t51.5 -80.5l261 -418h-194l-233 390q-32 54 -62 92.5t-61.5 62.5t-68 35.5t-82.5 11.5h-134v-592h-163zM345 739 h221q62 0 113.5 18.5t89.5 53t59.5 84.5t21.5 112q0 111 -72.5 174t-209.5 63h-223v-505zM471 1519l216 319h161l-254 -319h-123z" />
<glyph unicode="&#x155;" horiz-adv-x="690" d="M161 0v993h159v-204h4q34 104 104 163t156 59q62 0 95 -14v-165q-42 32 -120 32q-102 0 -170.5 -96t-68.5 -262v-506h-159zM290 1181l216 319h161l-254 -319h-123z" />
<glyph unicode="&#x156;" horiz-adv-x="1188" d="M182 0v1391h416q91 0 168 -23t133.5 -69.5t88.5 -115.5t32 -163q0 -72 -21.5 -133t-62 -108.5t-97 -81t-127.5 -51.5v-4q35 -15 60.5 -35t49 -47t46 -61.5t51.5 -80.5l261 -418h-194l-233 390q-32 54 -62 92.5t-61.5 62.5t-68 35.5t-82.5 11.5h-134v-592h-163zM345 739 h221q62 0 113.5 18.5t89.5 53t59.5 84.5t21.5 112q0 111 -72.5 174t-209.5 63h-223v-505zM433 -368l114 253h167l-161 -253h-120z" />
<glyph unicode="&#x157;" horiz-adv-x="690" d="M161 0v993h159v-204h4q34 104 104 163t156 59q62 0 95 -14v-165q-42 32 -120 32q-102 0 -170.5 -96t-68.5 -262v-506h-159zM236 -368l114 253h167l-161 -253h-120z" />
<glyph unicode="&#x158;" horiz-adv-x="1188" d="M182 0v1391h416q91 0 168 -23t133.5 -69.5t88.5 -115.5t32 -163q0 -72 -21.5 -133t-62 -108.5t-97 -81t-127.5 -51.5v-4q35 -15 60.5 -35t49 -47t46 -61.5t51.5 -80.5l261 -418h-194l-233 390q-32 54 -62 92.5t-61.5 62.5t-68 35.5t-82.5 11.5h-134v-592h-163zM345 739 h221q62 0 113.5 18.5t89.5 53t59.5 84.5t21.5 112q0 111 -72.5 174t-209.5 63h-223v-505zM319 1840h111l160 -223l159 223h115l-208 -321h-128z" />
<glyph unicode="&#x159;" horiz-adv-x="690" d="M161 0v993h159v-204h4q34 104 104 163t156 59q62 0 95 -14v-165q-42 32 -120 32q-102 0 -170.5 -96t-68.5 -262v-506h-159zM147 1502h111l160 -223l159 223h115l-208 -321h-128z" />
<glyph unicode="&#x15a;" horiz-adv-x="1055" d="M117 56v192q33 -29 79 -52t97 -39t102.5 -25t95.5 -9q150 0 224.5 56t74.5 161q0 56 -25 97.5t-68.5 76t-103 66t-128.5 66.5q-73 37 -136 75t-109.5 83.5t-73.5 103t-27 135.5q0 95 42 165t110 116t154.5 68t176.5 22q206 0 300 -49v-184q-123 86 -316 86 q-53 0 -106.5 -11t-95.5 -36.5t-68 -65t-26 -97.5q0 -53 20 -92t58.5 -71t94.5 -62t129 -66q74 -37 141 -77.5t117.5 -90t80 -109.5t29.5 -138q0 -103 -40 -174t-108.5 -116t-157.5 -64.5t-188 -19.5q-33 0 -81.5 5t-99 15.5t-95.5 25.5t-73 33zM419 1518l216 319h161 l-254 -319h-123z" />
<glyph unicode="&#x15b;" horiz-adv-x="842" d="M101 36v171q130 -96 286 -96q210 0 210 139q0 40 -18 67.5t-48.5 49t-72 38.5t-88.5 35q-66 27 -116 53.5t-83.5 60t-50.5 76t-17 99.5q0 70 32 124t85.5 90.5t121.5 55t141 18.5q129 0 231 -45v-161q-110 72 -252 72q-45 0 -81 -10.5t-61.5 -29t-39.5 -44t-14 -56.5 q0 -39 14 -65t41 -46.5t66 -37t88 -35.5q66 -25 118.5 -52t89.5 -60.5t57 -77t20 -103.5q0 -74 -32.5 -128.5t-87 -90t-125.5 -53t-148 -17.5q-154 0 -266 59zM315 1181l216 319h161l-254 -319h-123z" />
<glyph unicode="&#x15c;" horiz-adv-x="1055" d="M117 56v192q33 -29 79 -52t97 -39t102.5 -25t95.5 -9q150 0 224.5 56t74.5 161q0 56 -25 97.5t-68.5 76t-103 66t-128.5 66.5q-73 37 -136 75t-109.5 83.5t-73.5 103t-27 135.5q0 95 42 165t110 116t154.5 68t176.5 22q206 0 300 -49v-184q-123 86 -316 86 q-53 0 -106.5 -11t-95.5 -36.5t-68 -65t-26 -97.5q0 -53 20 -92t58.5 -71t94.5 -62t129 -66q74 -37 141 -77.5t117.5 -90t80 -109.5t29.5 -138q0 -103 -40 -174t-108.5 -116t-157.5 -64.5t-188 -19.5q-33 0 -81.5 5t-99 15.5t-95.5 25.5t-73 33zM261 1519l209 323h129 l209 -323h-118l-159 224l-160 -224h-110z" />
<glyph unicode="&#x15d;" horiz-adv-x="842" d="M101 36v171q130 -96 286 -96q210 0 210 139q0 40 -18 67.5t-48.5 49t-72 38.5t-88.5 35q-66 27 -116 53.5t-83.5 60t-50.5 76t-17 99.5q0 70 32 124t85.5 90.5t121.5 55t141 18.5q129 0 231 -45v-161q-110 72 -252 72q-45 0 -81 -10.5t-61.5 -29t-39.5 -44t-14 -56.5 q0 -39 14 -65t41 -46.5t66 -37t88 -35.5q66 -25 118.5 -52t89.5 -60.5t57 -77t20 -103.5q0 -74 -32.5 -128.5t-87 -90t-125.5 -53t-148 -17.5q-154 0 -266 59zM142 1181l209 323h129l209 -323h-118l-159 224l-160 -224h-110z" />
<glyph unicode="&#x15e;" horiz-adv-x="1055" d="M117 56v192q33 -29 79 -52t97 -39t102.5 -25t95.5 -9q150 0 224.5 56t74.5 161q0 56 -25 97.5t-68.5 76t-103 66t-128.5 66.5q-73 37 -136 75t-109.5 83.5t-73.5 103t-27 135.5q0 95 42 165t110 116t154.5 68t176.5 22q206 0 300 -49v-184q-123 86 -316 86 q-53 0 -106.5 -11t-95.5 -36.5t-68 -65t-26 -97.5q0 -53 20 -92t58.5 -71t94.5 -62t129 -66q74 -37 141 -77.5t117.5 -90t80 -109.5t29.5 -138q0 -103 -40 -174t-108.5 -116t-157.5 -64.5t-188 -19.5q-33 0 -81.5 5t-99 15.5t-95.5 25.5t-73 33zM412 -330q42 -6 68 -6 q137 0 137 88q0 75 -125 75q-10 0 -40 -4v177h105v-101q85 0 135 -38.5t50 -108.5q0 -171 -266 -171q-37 0 -64 2v87z" />
<glyph unicode="&#x15f;" horiz-adv-x="842" d="M101 36v171q130 -96 286 -96q210 0 210 139q0 40 -18 67.5t-48.5 49t-72 38.5t-88.5 35q-66 27 -116 53.5t-83.5 60t-50.5 76t-17 99.5q0 70 32 124t85.5 90.5t121.5 55t141 18.5q129 0 231 -45v-161q-110 72 -252 72q-45 0 -81 -10.5t-61.5 -29t-39.5 -44t-14 -56.5 q0 -39 14 -65t41 -46.5t66 -37t88 -35.5q66 -25 118.5 -52t89.5 -60.5t57 -77t20 -103.5q0 -74 -32.5 -128.5t-87 -90t-125.5 -53t-148 -17.5q-154 0 -266 59zM300 -330q42 -6 68 -6q137 0 137 88q0 75 -125 75q-10 0 -40 -4v177h105v-101q85 0 135 -38.5t50 -108.5 q0 -171 -266 -171q-37 0 -64 2v87z" />
<glyph unicode="&#x160;" horiz-adv-x="1055" d="M117 56v192q33 -29 79 -52t97 -39t102.5 -25t95.5 -9q150 0 224.5 56t74.5 161q0 56 -25 97.5t-68.5 76t-103 66t-128.5 66.5q-73 37 -136 75t-109.5 83.5t-73.5 103t-27 135.5q0 95 42 165t110 116t154.5 68t176.5 22q206 0 300 -49v-184q-123 86 -316 86 q-53 0 -106.5 -11t-95.5 -36.5t-68 -65t-26 -97.5q0 -53 20 -92t58.5 -71t94.5 -62t129 -66q74 -37 141 -77.5t117.5 -90t80 -109.5t29.5 -138q0 -103 -40 -174t-108.5 -116t-157.5 -64.5t-188 -19.5q-33 0 -81.5 5t-99 15.5t-95.5 25.5t-73 33zM256 1842h111l160 -223 l159 223h115l-208 -321h-128z" />
<glyph unicode="&#x161;" horiz-adv-x="842" d="M101 36v171q130 -96 286 -96q210 0 210 139q0 40 -18 67.5t-48.5 49t-72 38.5t-88.5 35q-66 27 -116 53.5t-83.5 60t-50.5 76t-17 99.5q0 70 32 124t85.5 90.5t121.5 55t141 18.5q129 0 231 -45v-161q-110 72 -252 72q-45 0 -81 -10.5t-61.5 -29t-39.5 -44t-14 -56.5 q0 -39 14 -65t41 -46.5t66 -37t88 -35.5q66 -25 118.5 -52t89.5 -60.5t57 -77t20 -103.5q0 -74 -32.5 -128.5t-87 -90t-125.5 -53t-148 -17.5q-154 0 -266 59zM116 1502h111l160 -223l159 223h115l-208 -321h-128z" />
<glyph unicode="&#x162;" horiz-adv-x="1040" d="M40 1244v147h965v-147h-402v-1244h-163v1244h-400zM411 -330q42 -6 68 -6q137 0 137 88q0 75 -125 75q-10 0 -40 -4v177h105v-101q85 0 135 -38.5t50 -108.5q0 -171 -266 -171q-37 0 -64 2v87z" />
<glyph unicode="&#x163;" horiz-adv-x="673" d="M42 857v136h170v243l160 51v-294h250v-136h-250v-559q0 -100 33.5 -142.5t112.5 -42.5q60 0 104 33v-136q-56 -31 -149 -31q-261 0 -261 291v587h-170zM316 -330q42 -6 68 -6q137 0 137 88q0 75 -125 75q-10 0 -40 -4v177h105v-101q85 0 135 -38.5t50 -108.5 q0 -171 -266 -171q-37 0 -64 2v87z" />
<glyph unicode="&#x164;" horiz-adv-x="1040" d="M40 1244v147h965v-147h-402v-1244h-163v1244h-400zM251 1840h111l160 -223l159 223h115l-208 -321h-128z" />
<glyph unicode="&#x165;" horiz-adv-x="873" d="M42 857v136h170v243l160 51v-294h250v-136h-250v-559q0 -100 33.5 -142.5t112.5 -42.5q60 0 104 33v-136q-56 -31 -149 -31q-261 0 -261 291v587h-170zM669 1100l114 252h167l-161 -252h-120z" />
<glyph unicode="&#x166;" horiz-adv-x="1040" d="M40 1244v147h965v-147h-402v-472h239v-150h-239v-622h-163v622h-241v150h241v472h-400z" />
<glyph unicode="&#x167;" horiz-adv-x="673" d="M42 857v136h170v243q4 2 80 26l80 25v-294h250v-136h-250v-197h240v-129h-240v-233q0 -100 33 -142.5t113 -42.5q58 0 104 33v-136q-56 -31 -149 -31q-261 0 -261 291v261h-158v129h158v197h-170z" />
<glyph unicode="&#x168;" horiz-adv-x="1364" d="M165 540v851h163v-840q0 -428 361 -428q348 0 348 413v855h163v-828q0 -586 -529 -586q-506 0 -506 563zM374 1504q0 104 46.5 166.5t129.5 62.5q64 0 145 -51q72 -42 124 -42q82 0 82 112h95q0 -102 -46.5 -166.5t-126.5 -64.5q-69 0 -157 51q-75 42 -116 42 q-85 0 -85 -110h-91z" />
<glyph unicode="&#x169;" d="M140 400v593h158v-568q0 -314 240 -314q117 0 192 85.5t75 224.5v572h159v-993h-159v157h-4q-99 -180 -306 -180q-355 0 -355 423zM242 1166q0 104 46.5 166.5t129.5 62.5q64 0 145 -51q72 -42 124 -42q82 0 82 112h95q0 -102 -46.5 -166.5t-126.5 -64.5q-69 0 -157 51 q-75 42 -116 42q-85 0 -85 -110h-91z" />
<glyph unicode="&#x16a;" horiz-adv-x="1364" d="M165 540v851h163v-840q0 -428 361 -428q348 0 348 413v855h163v-828q0 -586 -529 -586q-506 0 -506 563zM433 1519v106h493v-106h-493z" />
<glyph unicode="&#x16b;" d="M140 400v593h158v-568q0 -314 240 -314q117 0 192 85.5t75 224.5v572h159v-993h-159v157h-4q-99 -180 -306 -180q-355 0 -355 423zM302 1181v106h493v-106h-493z" />
<glyph unicode="&#x16c;" horiz-adv-x="1364" d="M165 540v851h163v-840q0 -428 361 -428q348 0 348 413v855h163v-828q0 -586 -529 -586q-506 0 -506 563zM412 1764h97q12 -150 167 -150q66 0 113 40.5t56 109.5h99q-9 -110 -85.5 -177.5t-184.5 -67.5q-114 0 -185.5 67t-76.5 178z" />
<glyph unicode="&#x16d;" d="M140 400v593h158v-568q0 -314 240 -314q117 0 192 85.5t75 224.5v572h159v-993h-159v157h-4q-99 -180 -306 -180q-355 0 -355 423zM281 1426h97q12 -150 167 -150q66 0 113 40.5t56 109.5h99q-9 -110 -85.5 -177.5t-184.5 -67.5q-114 0 -185.5 67t-76.5 178z" />
<glyph unicode="&#x16e;" horiz-adv-x="1364" d="M165 540v851h163v-840q0 -428 361 -428q348 0 348 413v855h163v-828q0 -586 -529 -586q-506 0 -506 563zM466 1704q0 87 57 139.5t145 52.5q87 0 142 -52.5t55 -133.5q0 -82 -59 -136t-145 -54q-84 0 -139.5 51t-55.5 133zM553 1708q0 -109 108 -109q49 0 81 31t32 78 t-32 78.5t-81 31.5q-46 0 -77 -32t-31 -78z" />
<glyph unicode="&#x16f;" d="M140 400v593h158v-568q0 -314 240 -314q117 0 192 85.5t75 224.5v572h159v-993h-159v157h-4q-99 -180 -306 -180q-355 0 -355 423zM352 1325q0 87 57 139.5t145 52.5q87 0 142 -52.5t55 -133.5q0 -82 -59 -136t-145 -54q-84 0 -139.5 51t-55.5 133zM439 1329 q0 -109 108 -109q49 0 81 31t32 78t-32 78.5t-81 31.5q-46 0 -77 -32t-31 -78z" />
<glyph unicode="&#x170;" horiz-adv-x="1364" d="M165 540v851h163v-840q0 -428 361 -428q348 0 348 413v855h163v-828q0 -586 -529 -586q-506 0 -506 563zM453 1519l200 309h126l-233 -309h-93zM687 1519l203 309h129l-238 -309h-94z" />
<glyph unicode="&#x171;" d="M140 400v593h158v-568q0 -314 240 -314q117 0 192 85.5t75 224.5v572h159v-993h-159v157h-4q-99 -180 -306 -180q-355 0 -355 423zM315 1181l200 309h126l-233 -309h-93zM549 1181l203 309h129l-238 -309h-94z" />
<glyph unicode="&#x172;" horiz-adv-x="1364" d="M165 540v851h163v-840q0 -428 361 -428q348 0 348 413v855h163v-828q0 -586 -529 -586q-506 0 -506 563zM572 -242q0 118 152 242h116q-146 -137 -146 -216q0 -68 66 -68q29 0 55 12v-103q-29 -13 -80 -13q-74 0 -118.5 39t-44.5 107z" />
<glyph unicode="&#x173;" d="M140 400v593h158v-568q0 -314 240 -314q117 0 192 85.5t75 224.5v572h159v-993h-159v157h-4q-99 -180 -306 -180q-355 0 -355 423zM696 -242q0 118 152 242h116q-146 -137 -146 -216q0 -68 66 -68q29 0 55 12v-103q-29 -13 -80 -13q-74 0 -118.5 39t-44.5 107z" />
<glyph unicode="&#x174;" horiz-adv-x="1855" d="M25 1391h180l296 -1067q18 -67 23 -140h5q5 52 30 140l307 1067h156l295 -1075q16 -55 24 -130h3q4 51 27 134l284 1071h176l-392 -1391h-192l-286 1017q-18 65 -22 141h-4q-6 -72 -25 -140l-288 -1018h-189zM674 1519l209 323h129l209 -323h-118l-159 224l-160 -224 h-110z" />
<glyph unicode="&#x175;" horiz-adv-x="1435" d="M23 993h167l206 -747q9 -34 13 -89h8q3 43 18 91l228 745h146l206 -749q9 -35 14 -89h8q2 38 16 89l202 749h157l-297 -993h-165l-205 711q-12 41 -16 92h-3q-3 -35 -21 -90l-222 -713h-159zM461 1181l209 323h129l209 -323h-118l-159 224l-160 -224h-110z" />
<glyph unicode="&#x176;" horiz-adv-x="1098" d="M17 1391h186l311 -629q6 -11 34 -85h3q10 33 37 85l326 629h172l-458 -877v-514h-163v510zM280 1518l209 323h129l209 -323h-118l-159 224l-160 -224h-110z" />
<glyph unicode="&#x177;" horiz-adv-x="961" d="M14 993h176l269 -764q5 -15 20 -76h6q5 24 19 74l283 766h165l-457 -1152q-123 -309 -344 -309q-62 0 -103 13v143q51 -18 94 -18q120 0 180 144l80 188zM225 1181l209 323h129l209 -323h-118l-159 224l-160 -224h-110z" />
<glyph unicode="&#x178;" horiz-adv-x="1098" d="M17 1391h186l311 -629q6 -11 34 -85h3q10 33 37 85l326 629h172l-458 -877v-514h-163v510zM266 1614q0 41 28 68.5t67 27.5q40 0 69 -28t29 -68q0 -39 -28 -67.5t-67 -28.5q-41 0 -69.5 29t-28.5 67zM642 1614q0 41 27 68.5t66 27.5q40 0 68.5 -28t28.5 -68 q0 -39 -27.5 -67.5t-67.5 -28.5q-39 0 -67 27.5t-28 68.5z" />
<glyph unicode="&#x179;" horiz-adv-x="1132" d="M32 0v46l808 1198h-743v147h993v-39l-815 -1205h796v-147h-1039zM465 1520l216 319h161l-254 -319h-123z" />
<glyph unicode="&#x17a;" horiz-adv-x="898" d="M32 0v49l588 808h-533v136h767v-45l-588 -812h582v-136h-816zM324 1181l216 319h161l-254 -319h-123z" />
<glyph unicode="&#x17b;" horiz-adv-x="1132" d="M32 0v46l808 1198h-743v147h993v-39l-815 -1205h796v-147h-1039zM480 1615q0 39 28 66.5t68 27.5t67.5 -27t27.5 -67q0 -39 -27.5 -67.5t-67.5 -28.5q-39 0 -67.5 28t-28.5 68z" />
<glyph unicode="&#x17c;" horiz-adv-x="898" d="M32 0v49l588 808h-533v136h767v-45l-588 -812h582v-136h-816zM376 1277q0 39 28 66.5t68 27.5t67.5 -27t27.5 -67q0 -39 -27.5 -67.5t-67.5 -28.5q-39 0 -67.5 28t-28.5 68z" />
<glyph unicode="&#x17d;" horiz-adv-x="1132" d="M32 0v46l808 1198h-743v147h993v-39l-815 -1205h796v-147h-1039zM328 1839h111l160 -223l159 223h115l-208 -321h-128z" />
<glyph unicode="&#x17e;" horiz-adv-x="898" d="M32 0v49l588 808h-533v136h767v-45l-588 -812h582v-136h-816zM213 1502h111l160 -223l159 223h115l-208 -321h-128z" />
<glyph unicode="&#x17f;" horiz-adv-x="479" d="M161 0v1154q0 156 91.5 247t224.5 91q72 0 115 -18v-143q-45 26 -105 26q-167 0 -167 -210v-1147h-159z" />
<glyph unicode="&#x180;" horiz-adv-x="1167" d="M32 1168v136h129v167h157v-167h241v-136h-241v-349h4q117 198 343 198q192 0 301 -132.5t109 -358.5q0 -249 -122 -399t-333 -150q-193 0 -298 167h-4v-144h-157v1168h-129zM318 405q0 -123 79.5 -208.5t203.5 -85.5q144 0 227.5 109t83.5 300q0 170 -76.5 266.5 t-209.5 96.5q-139 0 -223.5 -96.5t-84.5 -242.5v-139z" />
<glyph unicode="&#x181;" horiz-adv-x="1218" d="M-81 1094q0 128 94.5 212.5t250.5 84.5h394q180 0 286 -88.5t106 -229.5q0 -119 -64 -206t-177 -124v-4q141 -16 225 -106t84 -233q0 -179 -128 -289.5t-323 -110.5h-405v1244h-23q-79 0 -122 -45.5t-43 -119.5q0 -54 19 -103h-153q-21 54 -21 118zM425 147h221 q144 0 223 68t79 187q0 246 -336 246h-187v-501zM425 794h167q134 0 210 64.5t76 182.5q0 203 -266 203h-187v-450z" />
<glyph unicode="&#x182;" horiz-adv-x="1135" d="M182 0v1391h743v-147h-580v-443h264q208 0 323.5 -100.5t115.5 -285.5q0 -192 -121.5 -303.5t-330.5 -111.5h-414zM345 147h229q145 0 223.5 68t78.5 190q0 249 -302 249h-229v-507z" />
<glyph unicode="&#x183;" horiz-adv-x="1167" d="M161 0v1471h781v-136h-624v-516h4q117 198 343 198q192 0 301 -132.5t109 -358.5q0 -249 -122 -399t-333 -150q-193 0 -298 167h-4v-144h-157zM318 405q0 -123 79.5 -208.5t203.5 -85.5q144 0 227.5 109t83.5 300q0 170 -76.5 266.5t-209.5 96.5q-139 0 -223.5 -96.5 t-84.5 -242.5v-139z" />
<glyph unicode="&#x184;" horiz-adv-x="1146" d="M49 1234v21l275 159h21v-615h264q208 0 323.5 -99.5t115.5 -284.5q0 -192 -121.5 -303.5t-330.5 -111.5h-414v1118zM345 146h229q145 0 222.5 68.5t77.5 190.5q0 251 -300 251h-229v-510z" />
<glyph unicode="&#x185;" horiz-adv-x="1167" d="M32 1293v22l264 156h22v-652h4q117 198 343 198q192 0 301 -132.5t109 -358.5q0 -249 -122 -399t-333 -150q-193 0 -298 167h-4v-144h-157v1181zM318 405q0 -123 79.5 -208.5t203.5 -85.5q144 0 227.5 109t83.5 300q0 170 -76.5 266.5t-209.5 96.5q-139 0 -223.5 -96.5 t-84.5 -242.5v-139z" />
<glyph unicode="&#x186;" horiz-adv-x="1231" d="M103 34v173q149 -84 330 -84q238 0 387.5 160.5t149.5 427.5q0 255 -139 405.5t-366 150.5q-210 0 -362 -93v159q154 81 384 81q296 0 475 -191t179 -501q0 -334 -200 -539.5t-510 -205.5q-198 0 -328 57z" />
<glyph unicode="&#x187;" horiz-adv-x="1231" d="M91 669q0 333 200 539t508 206q90 0 181 -23q3 92 67.5 159t164.5 67q47 0 94 -18v-136q-41 19 -76 19q-110 0 -110 -153q0 -58 15 -144l-9 -5q-160 87 -337 87q-234 0 -380.5 -160.5t-146.5 -427.5q0 -254 139 -405t365 -151q210 0 363 93v-158q-154 -81 -384 -81 q-297 0 -475.5 191t-178.5 501z" />
<glyph unicode="&#x188;" horiz-adv-x="925" d="M93 477q0 232 137 386t354 154q73 0 136 -20q2 85 59.5 144t143.5 59q39 0 84 -19v-124q-34 18 -65 18q-98 0 -98 -138q0 -81 8 -126l-6 -4q-143 76 -264 76q-145 0 -235.5 -108.5t-90.5 -287.5q0 -175 91.5 -275.5t246.5 -100.5q130 0 244 86v-151q-114 -69 -272 -69 q-214 0 -343.5 139t-129.5 361z" />
<glyph unicode="&#x189;" horiz-adv-x="1392" d="M27 622v150h155v619h384q736 0 736 -678q0 -324 -204.5 -518.5t-546.5 -194.5h-369v622h-155zM345 147h208q273 0 425.5 146.5t152.5 415.5q0 535 -568 535h-218v-472h326v-150h-326v-475z" />
<glyph unicode="&#x18a;" horiz-adv-x="1472" d="M-81 1094q0 128 94.5 212.5t250.5 84.5h382q735 0 735 -678q0 -322 -204 -517.5t-547 -195.5h-368v1244h-23q-79 0 -122 -45.5t-43 -119.5q0 -54 19 -103h-153q-21 54 -21 118zM425 147h207q274 0 426 146.5t152 415.5q0 535 -568 535h-217v-1097z" />
<glyph unicode="&#x18b;" horiz-adv-x="1136" d="M89 388q0 188 129 299.5t347 111.5h226v443h-581v149h744v-1391h-408q-222 0 -339.5 100t-117.5 288zM262 394q0 -250 301 -250h228v510h-225q-304 0 -304 -260z" />
<glyph unicode="&#x18c;" horiz-adv-x="1167" d="M93 473q0 247 124 395.5t331 148.5q205 0 298 -161h4v479h-623v136h780v-1471h-157v169h-4q-111 -192 -342 -192q-187 0 -299 133t-112 363zM256 481q0 -172 80 -271t215 -99q133 0 216 96t83 242v147q0 120 -79.5 203.5t-202.5 83.5q-145 0 -228.5 -107t-83.5 -295z" />
<glyph unicode="&#x18d;" horiz-adv-x="1175" d="M93 551q0 201 140.5 333.5t362.5 132.5q216 0 351.5 -126.5t135.5 -316.5q0 -286 -372 -504q119 -81 161 -142t42 -138q0 -110 -105.5 -184t-272.5 -74t-307 74v167q145 -105 311 -105q211 0 211 123q0 51 -43 96t-237 161q-204 122 -291 241.5t-87 261.5zM256 565 q0 -107 62.5 -199t267.5 -217q192 108 263 206t71 210q0 145 -90.5 231.5t-241.5 86.5q-150 0 -241 -87t-91 -231z" />
<glyph unicode="&#x18e;" horiz-adv-x="1006" d="M87 0v147h575v475h-503v146h503v476h-543v147h705v-1391h-737z" />
<glyph unicode="&#x18f;" horiz-adv-x="1431" d="M83 770h1085q-17 230 -154 363.5t-349 133.5q-209 0 -360 -93v159q153 81 372 81q309 0 486.5 -191t177.5 -528q0 -312 -177 -515t-469 -203q-293 0 -452.5 201t-159.5 592zM258 624q4 -228 121.5 -364.5t317.5 -136.5q201 0 326 136t145 365h-910z" />
<glyph unicode="&#x190;" horiz-adv-x="1074" d="M109 370q0 129 78.5 224t217.5 132v5q-248 78 -248 308q0 162 132.5 268.5t342.5 106.5q173 0 314 -68v-165q-149 86 -318 86q-137 0 -219.5 -61t-82.5 -165q0 -109 98.5 -179.5t264.5 -70.5h102v-147h-104q-407 0 -407 -263q0 -121 93 -189.5t253 -68.5q194 0 356 89 v-161q-161 -74 -362 -74q-238 0 -374.5 107t-136.5 286z" />
<glyph unicode="&#x191;" horiz-adv-x="970" d="M-99 -177q49 -28 109 -28q172 0 172 256v1340h707v-147h-544v-482h503v-146h-503v-565q0 -402 -328 -402q-63 0 -116 19v155z" />
<glyph unicode="&#x192;" horiz-adv-x="1070" d="M91 -115q35 -21 84 -21q145 0 184 283l88 617h-100v134h121l27 213q16 127 101 203.5t215 76.5q62 0 112 -18v-145q-46 27 -104 27q-142 0 -165 -155l-30 -202h161v-134h-182l-87 -628q-56 -406 -338 -406q-30 0 -87 16v139z" />
<glyph unicode="&#x193;" horiz-adv-x="1374" d="M91 677q0 323 204.5 530t517.5 207q117 0 232 -33q3 97 68 166.5t164 69.5q47 0 94 -18v-136q-40 19 -75 19q-111 0 -111 -163q0 -70 15 -151l-8 -6q-185 105 -389 105q-238 0 -389.5 -160t-151.5 -418q0 -264 138.5 -415t376.5 -151q163 0 282 65v390h-304v148h469v-631 q-209 -118 -467 -118q-298 0 -482 192t-184 508z" />
<glyph unicode="&#x194;" horiz-adv-x="1233" d="M17 1391h182l385 -1059q20 -57 28 -109h4q13 55 32 109l393 1059h175l-498 -1296l6 -12q110 -221 110 -327q0 -95 -66.5 -159.5t-162.5 -64.5q-93 0 -156 63.5t-63 160.5q0 59 20 115.5t95 206.5l7 15zM544 -241q0 -85 65 -85q66 0 66 85q0 66 -66 203q-65 -137 -65 -203 z" />
<glyph unicode="&#x195;" horiz-adv-x="1736" d="M161 0v1471h159v-635h4q95 181 292 181q326 0 326 -405v-165q0 -332 239 -332q129 0 205.5 94.5t76.5 253.5q0 272 -140 530h173q125 -258 125 -524q0 -222 -123.5 -357t-319.5 -135q-395 0 -395 459v134q0 165 -51 239t-171 74q-105 0 -173 -88t-68 -229v-566h-159z" />
<glyph unicode="&#x196;" horiz-adv-x="572" d="M178 264v1127h163v-1123q0 -139 101 -139q47 0 91 20v-145q-59 -21 -116 -21q-239 0 -239 281z" />
<glyph unicode="&#x197;" horiz-adv-x="552" d="M40 634v147h154v610h163v-610h155v-147h-155v-634h-163v634h-154z" />
<glyph unicode="&#x198;" horiz-adv-x="1152" d="M182 0v1391h163v-654h4l307 408q136 182 208 225.5t161 43.5q55 0 108 -25v-151q-54 29 -115 29q-77 0 -192 -149l-306 -398l630 -720h-227l-537 636q-30 36 -37 49h-4v-685h-163z" />
<glyph unicode="&#x199;" horiz-adv-x="989" d="M161 0v1166q0 148 87 237t221 89q69 0 115 -18v-143q-53 26 -105 26q-159 0 -159 -201v-618h4l417 455h209l-461 -479l497 -514h-224l-438 477h-4v-477h-159z" />
<glyph unicode="&#x19a;" horiz-adv-x="481" d="M19 687v136h142v648h159v-648h141v-136h-141v-687h-159v687h-142z" />
<glyph unicode="&#x19b;" horiz-adv-x="989" d="M-2 0l449 986l-26 73l-262 -128l-56 110l278 135q-51 151 -150 151q-60 0 -118 -17v148q58 14 126 14q101 0 163 -50.5t114 -179.5l237 115l56 -110l-248 -121l400 -1126h-170l-273 803l-345 -803h-175z" />
<glyph unicode="&#x19c;" horiz-adv-x="1772" d="M178 415v976h163v-956q0 -160 50 -236t172 -76q100 0 170 92.5t70 222.5v953h163v-976q0 -292 219 -292q105 0 173 88t68 227v953h163v-1391h-159v157h-4q-105 -180 -308 -180q-208 0 -278 205q-111 -205 -332 -205q-330 0 -330 438z" />
<glyph unicode="&#x19d;" horiz-adv-x="1486" d="M-99 -177q49 -28 109 -28q172 0 172 256v1340h212l696 -1091q44 -68 57 -93h3q-9 60 -9 204v980h165v-1391h-202l-716 1109q-27 41 -45 87h-5q7 -45 7 -191v-954q0 -402 -328 -402q-63 0 -116 19v155z" />
<glyph unicode="&#x19e;" horiz-adv-x="1142" d="M127 993h163q26 -69 26 -169h4q109 193 330 193q162 0 249 -104t87 -301v-1004h-162v947q0 317 -228 317q-122 0 -199 -86t-77 -216v-570h-159v673q0 232 -34 320z" />
<glyph unicode="&#x19f;" horiz-adv-x="1497" d="M91 679q0 336 181.5 535.5t493.5 199.5q288 0 464 -194t176 -507q0 -341 -180 -538.5t-483 -197.5q-296 0 -474 195t-178 507zM266 618q20 -227 150 -361t327 -134q213 0 342.5 129.5t148.5 365.5h-968zM266 768h968q-19 239 -144.5 369t-334.5 130q-202 0 -335 -136 t-154 -363z" />
<glyph unicode="&#x1a0;" horiz-adv-x="1515" d="M91 679q0 336 181.5 535.5t493.5 199.5q210 0 366 -107q47 -9 78 -9q207 0 207 126q0 70 -20 126h132q17 -52 17 -130q0 -105 -68 -170t-186 -65h-33q147 -188 147 -472q0 -341 -180 -538.5t-483 -197.5q-296 0 -474 195t-178 507zM262 694q0 -258 133.5 -414.5 t347.5 -156.5q229 0 361 149.5t132 418.5q0 275 -128 425.5t-353 150.5q-220 0 -356.5 -158t-136.5 -415z" />
<glyph unicode="&#x1a1;" horiz-adv-x="1186" d="M93 485q0 250 137 391t369 141q47 0 130 -14q60 -10 165 -10q58 0 96 34.5t38 83.5q0 70 -19 127h130q18 -55 18 -132q0 -186 -212 -225q126 -137 126 -380q0 -238 -134.5 -381t-360.5 -143q-220 0 -351.5 139t-131.5 369zM256 491q0 -177 90 -278.5t242 -101.5 q154 0 237 99.5t83 284.5q0 186 -83 287t-237 101q-153 0 -242.5 -104.5t-89.5 -287.5z" />
<glyph unicode="&#x1a2;" horiz-adv-x="1924" d="M91 679q0 322 188 528.5t489 206.5q109 0 293 -33t289 -33q210 0 392 66v-1414h-163v1230q-114 -24 -240 -24q-53 0 -129 8v-1119q-242 -118 -467 -118q-297 0 -474.5 194t-177.5 508zM262 694q0 -258 135.5 -414.5t357.5 -156.5q155 0 293 59v1054q-196 31 -288 31 q-221 0 -359.5 -158t-138.5 -415z" />
<glyph unicode="&#x1a3;" horiz-adv-x="1569" d="M93 487q0 242 143.5 386t372.5 144q82 0 229 -32q148 -33 229 -33q173 0 341 65v-1017h-159v840q-97 -23 -186 -23q-60 0 -119 7v-764q-170 -83 -348 -83q-229 0 -366 137t-137 373zM256 491q0 -179 95.5 -279.5t257.5 -100.5q107 0 180 36v707q-124 29 -191 29 q-154 0 -248 -104.5t-94 -287.5z" />
<glyph unicode="&#x1a4;" horiz-adv-x="1194" d="M-81 1094q0 128 94.5 212.5t250.5 84.5h380q223 0 346 -109t123 -306t-137 -323.5t-369 -126.5h-182v-526h-163v1244h-23q-79 0 -122 -45.5t-43 -119.5q0 -54 19 -103h-153q-21 54 -21 118zM425 673h171q346 0 346 295q0 276 -326 276h-191v-571z" />
<glyph unicode="&#x1a5;" horiz-adv-x="1167" d="M161 -457v1623q0 147 86.5 236.5t221.5 89.5q69 0 115 -18v-143q-53 26 -105 26q-159 0 -159 -201v-337h4q114 198 343 198q191 0 299.5 -132.5t108.5 -358.5q0 -250 -121.5 -399.5t-331.5 -149.5q-195 0 -298 167h-4v-601h-159zM320 405q0 -122 80 -208t203 -86 q145 0 227 110t82 308q0 166 -76.5 260t-207.5 94q-139 0 -223.5 -96t-84.5 -243v-139z" />
<glyph unicode="&#x1a6;" horiz-adv-x="1144" d="M182 0v1391h163v-147h253q198 0 310 -99.5t112 -270.5q0 -279 -309 -354v-4q84 -52 153 -194l224 -469h-194l-191 424q-90 200 -246 200h-112v-477h-163zM345 624h216q133 0 211 62t78 174q0 236 -282 236h-223v-472z" />
<glyph unicode="&#x1a7;" horiz-adv-x="1055" d="M95 351q0 78 29.5 138t80 109.5t117.5 90t142 77.5q72 36 128 66t95 62t58.5 71t19.5 92q0 58 -26 97.5t-67.5 65t-94.5 36.5t-108 11q-193 0 -316 -86v184q95 49 300 49q90 0 177 -22t155 -68t109.5 -116t41.5 -165q0 -78 -26.5 -135.5t-73 -103t-110 -83.5t-135.5 -75 q-69 -35 -128.5 -66.5t-103.5 -66t-68.5 -76t-24.5 -97.5q0 -105 74 -161t225 -56q43 0 94.5 9t102.5 25t97 39t79 52v-192q-27 -18 -72 -33t-95.5 -25.5t-98.5 -15.5t-82 -5q-99 0 -188.5 19.5t-157.5 64.5t-108.5 116t-40.5 174z" />
<glyph unicode="&#x1a8;" horiz-adv-x="842" d="M83 266q0 60 20 103.5t57 77t90 60.5t118 52q49 19 88 35.5t66 37t41 46.5t14 65q0 31 -14 56.5t-39.5 44t-61.5 29t-81 10.5q-142 0 -252 -72v161q102 45 231 45q73 0 141 -18.5t121.5 -55t85.5 -90.5t32 -124q0 -57 -17 -99.5t-50.5 -76t-83.5 -60t-116 -53.5 q-47 -18 -88.5 -35t-72 -38.5t-48.5 -49t-18 -67.5q0 -139 210 -139q157 0 286 96v-171q-112 -59 -266 -59q-76 0 -147.5 17.5t-126 53t-87 90t-32.5 128.5z" />
<glyph unicode="&#x1a9;" horiz-adv-x="1025" d="M44 0v76l453 642l-412 586v87h833v-149h-594l365 -520l-405 -578h694v-144h-934z" />
<glyph unicode="&#x1aa;" horiz-adv-x="587" d="M-121 1251q0 101 69.5 171t174.5 70q124 0 194.5 -83t70.5 -228v-1323q0 -190 141 -190q54 0 99 32v-136q-56 -32 -145 -32q-252 0 -252 299v1217q-55 -28 -120 -28q-98 0 -165 65.5t-67 165.5zM25 1257q0 -43 30 -72t78 -29q51 0 98 25v13q0 163 -110 163q-40 0 -68 -29 t-28 -71z" />
<glyph unicode="&#x1ab;" horiz-adv-x="675" d="M42 857v136h170v243q75 23 160 51v-294h250v-136h-250v-561q0 -100 33 -142.5t113 -42.5q58 0 104 33v-210q0 -131 -74.5 -208t-196.5 -77q-58 0 -109 23v142q51 -30 109 -30q122 0 122 154v39q-261 0 -261 291v589h-170z" />
<glyph unicode="&#x1ac;" horiz-adv-x="1042" d="M-49 1094q0 129 94 213t251 84h709v-147h-402v-1244h-163v1244h-150q-87 0 -136 -45t-49 -120q0 -54 20 -103h-152q-22 54 -22 118z" />
<glyph unicode="&#x1ad;" horiz-adv-x="675" d="M42 857v136h170v187q0 142 74 227t201 85q72 0 135 -27v-142q-59 34 -121 34q-129 0 -129 -185v-179h250v-136h-250v-559q0 -100 33 -142.5t113 -42.5q58 0 104 33v-136q-56 -31 -149 -31q-261 0 -261 291v587h-170z" />
<glyph unicode="&#x1ae;" horiz-adv-x="1042" d="M38 1244v147h967v-147h-402v-1193q0 -256 165 -256q68 0 119 23v-144q-57 -25 -132 -25q-315 0 -315 393v1202h-402z" />
<glyph unicode="&#x1af;" horiz-adv-x="1406" d="M165 540v851h163v-840q0 -428 361 -428q348 0 348 413v855h143q58 0 96 34.5t38 81.5q0 72 -20 128h132q17 -54 17 -131q0 -204 -243 -234v-707q0 -586 -529 -586q-506 0 -506 563z" />
<glyph unicode="&#x1b0;" horiz-adv-x="1167" d="M140 400v593h158v-568q0 -314 240 -314q117 0 192 85.5t75 224.5v572h118q58 0 96 34.5t38 83.5q0 70 -19 127h130q18 -55 18 -132q0 -192 -222 -227v-879h-159v157h-4q-99 -180 -306 -180q-355 0 -355 423z" />
<glyph unicode="&#x1b1;" horiz-adv-x="1499" d="M95 628q0 390 338 619h-338v144h503v-144q-334 -246 -334 -613q0 -239 134.5 -376t348.5 -137q217 0 353 138t136 375q0 365 -336 613v144h503v-144h-336q338 -229 338 -617q0 -301 -179.5 -477t-474.5 -176q-298 0 -477 173.5t-179 477.5z" />
<glyph unicode="&#x1b2;" horiz-adv-x="1414" d="M178 557v834h163v-826q0 -442 334 -442q211 0 346 194.5t135 478.5q0 471 -256 471q-70 0 -132 -27v149q75 25 159 25q181 0 288.5 -164.5t107.5 -440.5q0 -348 -185.5 -590t-470.5 -242q-489 0 -489 580z" />
<glyph unicode="&#x1b3;" horiz-adv-x="1131" d="M15 1391h172l326 -629q26 -49 38 -85h2l34 85l193 398q68 141 137 197.5t172 56.5q56 0 112 -23v-151q-46 27 -102 27q-87 0 -169 -165l-294 -592v-510h-163v514z" />
<glyph unicode="&#x1b4;" horiz-adv-x="1027" d="M14 993h176l269 -764q10 -27 20 -76h6q5 25 19 76l187 502q105 286 308 286q40 0 87 -16v-139q-42 19 -85 19q-99 0 -163 -163l-343 -877q-122 -309 -344 -309q-64 0 -103 13v143q49 -18 94 -18q120 0 180 144l80 188z" />
<glyph unicode="&#x1b5;" horiz-adv-x="1132" d="M32 0v46l397 588h-220v147h320l311 463h-745v147h995v-39l-387 -571h245v-147h-345l-328 -487h796v-147h-1039z" />
<glyph unicode="&#x1b6;" horiz-adv-x="898" d="M32 0v49l286 393h-163v136h260l205 279h-533v136h767v-45l-268 -370h182v-136h-279l-223 -306h582v-136h-816z" />
<glyph unicode="&#x1b7;" horiz-adv-x="1212" d="M10 -188q217 -132 432 -132q226 0 367 116t141 301q0 198 -147 307.5t-405 109.5h-90v74l486 656h-756v147h995v-74l-495 -665q265 -22 423.5 -169.5t158.5 -379.5q0 -249 -194.5 -410t-485.5 -161q-225 0 -430 104v176z" />
<glyph unicode="&#x1b8;" horiz-adv-x="1212" d="M91 91q0 228 162 383.5t420 177.5l-495 665v74h996v-147h-755l485 -656v-74h-89q-256 0 -404.5 -111t-148.5 -306q0 -185 140.5 -301t365.5 -116q233 0 434 121v-165q-207 -104 -451 -104q-290 0 -475 154.5t-185 404.5z" />
<glyph unicode="&#x1b9;" horiz-adv-x="877" d="M29 -25q0 171 120 292.5t320 149.5l-382 527v49h789v-136h-554l367 -516v-49h-82q-194 0 -304.5 -83t-110.5 -228q0 -137 106 -224t270 -87q191 0 342 95v-151q-150 -79 -345 -79q-237 0 -386.5 121t-149.5 319z" />
<glyph unicode="&#x1ba;" horiz-adv-x="812" d="M10 -239q0 191 302 290q159 53 220.5 106t61.5 139q0 87 -77 137t-214 50h-80v59l274 315h-487v136h706v-68l-285 -327q153 -18 237.5 -96.5t84.5 -203.5q0 -122 -80.5 -207t-270.5 -151q-143 -49 -186 -82.5t-43 -84.5q0 -105 178 -105q165 0 299 88v-154 q-133 -70 -312 -70q-156 0 -242 61t-86 168z" />
<glyph unicode="&#x1bb;" horiz-adv-x="1070" d="M93 0v142l372 396h-246v143h377q101 115 141 191.5t40 158.5q0 117 -70 182.5t-195 65.5q-184 0 -357 -159v167q157 127 379 127q187 0 293 -100.5t106 -270.5t-154 -362h154v-143h-281l-368 -394h647v-144h-838z" />
<glyph unicode="&#x1bc;" horiz-adv-x="1070" d="M113 1247v144h763v-144h-461l-49 -407q63 4 105 4q224 0 346 -111.5t122 -307.5q0 -202 -131.5 -325t-360.5 -123q-183 0 -288 57v169q143 -92 290 -92q149 0 238.5 83.5t89.5 220.5q0 138 -92 214t-264 76q-49 0 -123 -5q-92 -6 -99 -6l67 553h-153z" />
<glyph unicode="&#x1bd;" horiz-adv-x="754" d="M70 857v136h586v-136h-340l-39 -245q49 2 68 2q153 0 251.5 -81t98.5 -225q0 -146 -103 -238.5t-276 -92.5q-153 0 -229 46v161q111 -73 229 -73q97 0 157 52t60 137q0 81 -64 130t-175 49q-22 0 -183 -8l60 386h-101z" />
<glyph unicode="&#x1be;" horiz-adv-x="782" d="M29 857v136h122v243l159 51v-294h251v-136h-251v-95q0 -72 34 -118t133 -93q133 -66 187 -134t54 -159q0 -123 -97.5 -202t-265.5 -79q-145 0 -246 59v171q114 -96 259 -96q189 0 189 139q0 45 -27.5 81.5t-148.5 97.5q-141 73 -185.5 148.5t-44.5 181.5v98h-122z" />
<glyph unicode="&#x1bf;" horiz-adv-x="1084" d="M161 -457v1450h159v-125q167 149 355 149q147 0 243.5 -95.5t96.5 -236.5q0 -216 -184.5 -409.5t-510.5 -319.5v-413h-159zM320 109q235 94 383.5 243t148.5 317q0 91 -54.5 150t-143.5 59q-153 0 -334 -175v-594z" />
<glyph unicode="&#x1c0;" horiz-adv-x="475" d="M167 -468v1987h143v-1987h-143z" />
<glyph unicode="&#x1c1;" horiz-adv-x="760" d="M167 -468v1987h143v-1987h-143zM453 -468v1987h143v-1987h-143z" />
<glyph unicode="&#x1c2;" horiz-adv-x="905" d="M49 316v135h332v271h-332v134h332v663h143v-663h332v-134h-332v-271h332v-135h-332v-784h-143v784h-332z" />
<glyph unicode="&#x1c3;" horiz-adv-x="564" d="M175 89q0 45 31.5 76.5t75.5 31.5t76 -31.5t32 -76.5q0 -44 -32 -75t-76 -31t-75.5 31t-31.5 75zM197 1391h167l-19 -999h-131z" />
<glyph unicode="&#x1c4;" horiz-adv-x="2459" d="M182 0v1391h384q736 0 736 -678q0 -322 -204.5 -517.5t-546.5 -195.5h-369zM345 147h208q273 0 425.5 146.5t152.5 415.5q0 535 -568 535h-218v-1097zM1359 0v46l808 1198h-743v147h993v-39l-815 -1205h796v-147h-1039zM1654 1834h111l160 -223l159 223h115l-208 -321 h-128z" />
<glyph unicode="&#x1c5;" horiz-adv-x="2262" d="M182 0v1391h384q736 0 736 -678q0 -322 -204.5 -517.5t-546.5 -195.5h-369zM345 147h208q273 0 425.5 146.5t152.5 415.5q0 535 -568 535h-218v-1097zM1397 0v49l588 808h-533v136h767v-45l-588 -812h582v-136h-816zM1578 1502h111l160 -223l159 223h115l-208 -321h-128z " />
<glyph unicode="&#x1c6;" horiz-adv-x="2036" d="M93 473q0 247 124 395.5t331 148.5q205 0 298 -161h4v615h159v-1471h-159v169h-4q-111 -192 -342 -192q-187 0 -299 133t-112 363zM256 481q0 -172 80 -271t215 -99q133 0 216 96t83 242v147q0 120 -79.5 203.5t-202.5 83.5q-145 0 -228.5 -107t-83.5 -295zM1170 0v49 l588 808h-533v136h767v-45l-588 -812h582v-136h-816zM1352 1502h111l160 -223l159 223h115l-208 -321h-128z" />
<glyph unicode="&#x1c7;" horiz-adv-x="1700" d="M182 0v1391h163v-1244h559v-147h-722zM1010 0v161q53 -38 136 -38q220 0 220 374v894h163v-892q0 -248 -104.5 -385t-280.5 -137q-81 0 -134 23z" />
<glyph unicode="&#x1c8;" horiz-adv-x="1429" d="M182 0v1391h163v-1244h559v-147h-722zM758 -288q72 -44 136 -44q217 0 217 348v977h159v-951q0 -245 -98.5 -377.5t-281.5 -132.5q-68 0 -132 32v148zM1090 1348q0 45 30 74.5t72 29.5q44 0 74.5 -29.5t30.5 -74.5q0 -42 -30.5 -72.5t-74.5 -30.5q-42 0 -72 29.5 t-30 73.5z" />
<glyph unicode="&#x1c9;" horiz-adv-x="994" d="M161 0v1471h159v-1471h-159zM321 -288q72 -44 136 -44q217 0 217 348v977h159v-951q0 -245 -98.5 -377.5t-281.5 -132.5q-68 0 -132 32v148zM653 1348q0 45 30 74.5t72 29.5q44 0 74.5 -29.5t30.5 -74.5q0 -42 -30.5 -72.5t-74.5 -30.5q-42 0 -72 29.5t-30 73.5z" />
<glyph unicode="&#x1ca;" horiz-adv-x="2130" d="M182 0v1391h212l696 -1091q44 -68 57 -93h3q-9 60 -9 204v980h163v-1391h-200l-716 1109q-27 41 -45 87h-5q7 -45 7 -191v-1005h-163zM1440 0v161q53 -38 136 -38q220 0 220 374v894h163v-892q0 -248 -104.5 -385t-280.5 -137q-81 0 -134 23z" />
<glyph unicode="&#x1cb;" horiz-adv-x="1922" d="M182 0v1391h212l696 -1091q44 -68 57 -93h3q-9 60 -9 204v980h163v-1391h-200l-716 1109q-27 41 -45 87h-5q7 -45 7 -191v-1005h-163zM1249 -288q72 -44 136 -44q217 0 217 348v977h159v-951q0 -245 -98.5 -377.5t-281.5 -132.5q-68 0 -132 32v148zM1581 1348 q0 45 30 74.5t72 29.5q44 0 74.5 -29.5t30.5 -74.5q0 -42 -30.5 -72.5t-74.5 -30.5q-42 0 -72 29.5t-30 73.5z" />
<glyph unicode="&#x1cc;" horiz-adv-x="1605" d="M161 0v993h159v-165h4q112 189 326 189q163 0 249.5 -105.5t86.5 -304.5v-607h-160v566q0 317 -230 317q-120 0 -198 -90t-78 -227v-566h-159zM932 -288q72 -44 136 -44q217 0 217 348v977h159v-951q0 -245 -98.5 -377.5t-281.5 -132.5q-68 0 -132 32v148zM1264 1348 q0 45 30 74.5t72 29.5q44 0 74.5 -29.5t30.5 -74.5q0 -42 -30.5 -72.5t-74.5 -30.5q-42 0 -72 29.5t-30 73.5z" />
<glyph unicode="&#x1cd;" horiz-adv-x="1281" d="M21 0l534 1391h169l535 -1391h-180l-148 390h-590l-138 -390h-182zM396 536h482l-218 593q-11 29 -22 93h-4q-9 -59 -22 -93zM365 1834h111l160 -223l159 223h115l-208 -321h-128z" />
<glyph unicode="&#x1ce;" horiz-adv-x="1002" d="M79 264q0 278 328 324l298 42q0 253 -205 253q-179 0 -324 -123v163q147 94 338 94q350 0 350 -371v-646h-159v155h-4q-104 -178 -305 -178q-149 0 -233 78.5t-84 208.5zM242 275q0 -72 52 -118t138 -46q119 0 196 82.5t77 210.5v98l-240 -33q-110 -15 -166.5 -54.5 t-56.5 -139.5zM222 1502h111l160 -223l159 223h115l-208 -321h-128z" />
<glyph unicode="&#x1cf;" horiz-adv-x="528" d="M47 0v140h135v1111h-135v140h434v-140h-136v-1111h136v-140h-434zM-9 1834h111l160 -223l159 223h115l-208 -321h-128z" />
<glyph unicode="&#x1d0;" horiz-adv-x="481" d="M161 0v993h159v-993h-159zM-32 1502h111l160 -223l159 223h115l-208 -321h-128z" />
<glyph unicode="&#x1d1;" horiz-adv-x="1497" d="M91 679q0 336 181.5 535.5t493.5 199.5q288 0 464 -194t176 -507q0 -341 -180 -538.5t-483 -197.5q-296 0 -474 195t-178 507zM262 694q0 -258 133.5 -414.5t347.5 -156.5q229 0 361 149.5t132 418.5q0 275 -128 425.5t-353 150.5q-220 0 -356.5 -158t-136.5 -415z M476 1834h111l160 -223l159 223h115l-208 -321h-128z" />
<glyph unicode="&#x1d2;" horiz-adv-x="1164" d="M93 485q0 250 137 391t369 141q223 0 347.5 -137t124.5 -379q0 -238 -134.5 -381t-360.5 -143q-220 0 -351.5 139t-131.5 369zM256 491q0 -177 90 -278.5t242 -101.5q154 0 237 99.5t83 284.5q0 186 -83 287t-237 101q-153 0 -242.5 -104.5t-89.5 -287.5zM309 1502h111 l160 -223l159 223h115l-208 -321h-128z" />
<glyph unicode="&#x1d3;" horiz-adv-x="1364" d="M165 540v851h163v-840q0 -428 361 -428q348 0 348 413v855h163v-828q0 -586 -529 -586q-506 0 -506 563zM410 1834h111l160 -223l159 223h115l-208 -321h-128z" />
<glyph unicode="&#x1d4;" d="M140 400v593h158v-568q0 -314 240 -314q117 0 192 85.5t75 224.5v572h159v-993h-159v157h-4q-99 -180 -306 -180q-355 0 -355 423zM289 1502h111l160 -223l159 223h115l-208 -321h-128z" />
<glyph unicode="&#x1d5;" horiz-adv-x="1364" d="M165 540v851h163v-840q0 -428 361 -428q348 0 348 413v855h163v-828q0 -586 -529 -586q-506 0 -506 563zM400 1618q0 41 27.5 68.5t68.5 27.5q40 0 68.5 -28t28.5 -68q0 -39 -27.5 -67.5t-67.5 -28.5t-69 28t-29 68zM438 1781v106h492v-106h-492zM775 1618 q0 41 27.5 68.5t65.5 27.5q41 0 69.5 -28t28.5 -68q0 -39 -27.5 -67.5t-68.5 -28.5q-39 0 -67 27.5t-28 68.5z" />
<glyph unicode="&#x1d6;" d="M140 400v593h158v-568q0 -314 240 -314q117 0 192 85.5t75 224.5v572h159v-993h-159v157h-4q-99 -180 -306 -180q-355 0 -355 423zM276 1277q0 41 27.5 68.5t68.5 27.5q40 0 68.5 -28t28.5 -68q0 -39 -27.5 -67.5t-67.5 -28.5t-69 28t-29 68zM314 1440v106h492v-106h-492 zM651 1277q0 41 27.5 68.5t65.5 27.5q41 0 69.5 -28t28.5 -68q0 -39 -27.5 -67.5t-68.5 -28.5q-39 0 -67 27.5t-28 68.5z" />
<glyph unicode="&#x1d7;" horiz-adv-x="1364" d="M165 540v851h163v-840q0 -428 361 -428q348 0 348 413v855h163v-828q0 -586 -529 -586q-506 0 -506 563zM399 1618q0 40 28 68t69 28q39 0 68 -28t29 -68q0 -39 -28 -67.5t-68 -28.5q-39 0 -68.5 28t-29.5 68zM607 1732l216 318h161l-255 -318h-122zM776 1618 q0 41 26.5 68.5t66.5 27.5q41 0 69 -28t28 -68q0 -39 -27 -67.5t-68 -28.5q-39 0 -67 27.5t-28 68.5z" />
<glyph unicode="&#x1d8;" d="M140 400v593h158v-568q0 -314 240 -314q117 0 192 85.5t75 224.5v572h159v-993h-159v157h-4q-99 -180 -306 -180q-355 0 -355 423zM275 1277q0 40 28 68t69 28q39 0 68 -28t29 -68q0 -39 -28 -67.5t-68 -28.5q-39 0 -68.5 28t-29.5 68zM483 1391l216 318h161l-255 -318 h-122zM652 1277q0 41 26.5 68.5t66.5 27.5q41 0 69 -28t28 -68q0 -39 -27 -67.5t-68 -28.5q-39 0 -67 27.5t-28 68.5z" />
<glyph unicode="&#x1d9;" horiz-adv-x="1364" d="M165 540v851h163v-840q0 -428 361 -428q348 0 348 413v855h163v-828q0 -586 -529 -586q-506 0 -506 563zM399 1618q0 40 28 68t69 28q39 0 68 -28t29 -68q0 -39 -28 -67.5t-68 -28.5q-39 0 -68.5 28t-29.5 68zM412 2073h112l159 -223l159 223h114l-206 -320h-129z M776 1618q0 41 26.5 68.5t66.5 27.5q41 0 69 -28t28 -68q0 -39 -27 -67.5t-68 -28.5q-39 0 -67 27.5t-28 68.5z" />
<glyph unicode="&#x1da;" d="M140 400v593h158v-568q0 -314 240 -314q117 0 192 85.5t75 224.5v572h159v-993h-159v157h-4q-99 -180 -306 -180q-355 0 -355 423zM275 1277q0 40 28 68t69 28q39 0 68 -28t29 -68q0 -39 -28 -67.5t-68 -28.5q-39 0 -68.5 28t-29.5 68zM288 1732h112l159 -223l159 223 h114l-206 -320h-129zM652 1277q0 41 26.5 68.5t66.5 27.5q41 0 69 -28t28 -68q0 -39 -27 -67.5t-68 -28.5q-39 0 -67 27.5t-28 68.5z" />
<glyph unicode="&#x1db;" horiz-adv-x="1364" d="M165 540v851h163v-840q0 -428 361 -428q348 0 348 413v855h163v-828q0 -586 -529 -586q-506 0 -506 563zM381 2050h161l218 -318h-123zM400 1618q0 40 28.5 68t69.5 28q38 0 65.5 -27.5t27.5 -68.5t-28 -68.5t-67 -27.5q-41 0 -68.5 28.5t-27.5 67.5zM773 1618 q0 40 29 68t68 28q41 0 68.5 -28t27.5 -68t-29 -68t-69 -28q-39 0 -67 28.5t-28 67.5z" />
<glyph unicode="&#x1dc;" d="M140 400v593h158v-568q0 -314 240 -314q117 0 192 85.5t75 224.5v572h159v-993h-159v157h-4q-99 -180 -306 -180q-355 0 -355 423zM258 1709h161l218 -318h-123zM277 1277q0 40 28.5 68t69.5 28q38 0 65.5 -27.5t27.5 -68.5t-28 -68.5t-67 -27.5q-41 0 -68.5 28.5 t-27.5 67.5zM650 1277q0 40 29 68t68 28q41 0 68.5 -28t27.5 -68t-29 -68t-69 -28q-39 0 -67 28.5t-28 67.5z" />
<glyph unicode="&#x1dd;" horiz-adv-x="1038" d="M80 453v83h701q-5 166 -89.5 256.5t-234.5 90.5q-168 0 -308 -111v150q130 95 346 95q210 0 330.5 -135.5t120.5 -380.5q0 -234 -131.5 -379t-325.5 -145q-197 0 -303 127t-106 349zM242 402q2 -139 67 -215t182 -76q112 0 190.5 80.5t97.5 210.5h-537z" />
<glyph unicode="&#x1de;" horiz-adv-x="1281" d="M21 0l534 1391h169l535 -1391h-180l-148 390h-590l-138 -390h-182zM396 536h482l-218 593q-11 29 -22 93h-4q-9 -59 -22 -93zM347 1618q0 41 27.5 68.5t68.5 27.5q40 0 68.5 -28t28.5 -68q0 -39 -27.5 -67.5t-67.5 -28.5t-69 28t-29 68zM385 1781v106h492v-106h-492z M722 1618q0 41 27.5 68.5t65.5 27.5q41 0 69.5 -28t28.5 -68q0 -39 -27.5 -67.5t-68.5 -28.5q-39 0 -67 27.5t-28 68.5z" />
<glyph unicode="&#x1df;" horiz-adv-x="1002" d="M79 264q0 278 328 324l298 42q0 253 -205 253q-179 0 -324 -123v163q147 94 338 94q350 0 350 -371v-646h-159v155h-4q-104 -178 -305 -178q-149 0 -233 78.5t-84 208.5zM242 275q0 -72 52 -118t138 -46q119 0 196 82.5t77 210.5v98l-240 -33q-110 -15 -166.5 -54.5 t-56.5 -139.5zM208 1277q0 41 27.5 68.5t68.5 27.5q40 0 68.5 -28t28.5 -68q0 -39 -27.5 -67.5t-67.5 -28.5t-69 28t-29 68zM246 1440v106h492v-106h-492zM583 1277q0 41 27.5 68.5t65.5 27.5q41 0 69.5 -28t28.5 -68q0 -39 -27.5 -67.5t-68.5 -28.5q-39 0 -67 27.5 t-28 68.5z" />
<glyph unicode="&#x1e0;" horiz-adv-x="1281" d="M21 0l534 1391h169l535 -1391h-180l-148 390h-590l-138 -390h-182zM396 536h482l-218 593q-11 29 -22 93h-4q-9 -59 -22 -93zM396 1782v105h493v-105h-493zM547 1623q0 40 28.5 67t66.5 27q40 0 68 -27t28 -67q0 -39 -28 -67.5t-68 -28.5q-38 0 -66.5 28t-28.5 68z" />
<glyph unicode="&#x1e1;" horiz-adv-x="1002" d="M79 264q0 278 328 324l298 42q0 253 -205 253q-179 0 -324 -123v163q147 94 338 94q350 0 350 -371v-646h-159v155h-4q-104 -178 -305 -178q-149 0 -233 78.5t-84 208.5zM242 275q0 -72 52 -118t138 -46q119 0 196 82.5t77 210.5v98l-240 -33q-110 -15 -166.5 -54.5 t-56.5 -139.5zM256 1436v105h493v-105h-493zM407 1277q0 40 28.5 67t66.5 27q40 0 68 -27t28 -67q0 -39 -28 -67.5t-68 -28.5q-38 0 -66.5 28t-28.5 68z" />
<glyph unicode="&#x1e2;" horiz-adv-x="1709" d="M10 0l679 1391h896v-147h-542v-463h503v-147h-503v-487h574v-147h-736v390h-495l-187 -390h-189zM453 536h428v708h-92zM892 1520v106h493v-106h-493z" />
<glyph unicode="&#x1e3;" horiz-adv-x="1645" d="M79 264q0 291 372 314l254 16q0 289 -209 289q-169 0 -320 -119v159q144 94 338 94q225 0 291 -194h4q112 194 345 194q196 0 303.5 -127t107.5 -352v-81h-703q3 -166 88.5 -256t233.5 -90q172 0 312 110v-149q-129 -95 -348 -95q-262 0 -371 222h-4q-141 -222 -376 -222 q-148 0 -233 78t-85 209zM240 268q0 -71 51.5 -114t138.5 -43q116 0 195.5 82t79.5 205v61l-197 -12q-135 -8 -201.5 -47.5t-66.5 -131.5zM864 592h538q-2 139 -66.5 215t-179.5 76q-113 0 -193.5 -79.5t-98.5 -211.5zM582 1181v106h493v-106h-493z" />
<glyph unicode="&#x1e4;" horiz-adv-x="1362" d="M91 677q0 323 204.5 530t517.5 207q227 0 381 -73v-181q-169 107 -400 107q-233 0 -382.5 -161t-149.5 -417q0 -264 138.5 -415t376.5 -151q163 0 282 65v108h-302v135h302v147h-304v148h467v-295h141v-135h-141v-201q-209 -118 -465 -118q-298 0 -482 192t-184 508z" />
<glyph unicode="&#x1e5;" horiz-adv-x="1169" d="M93 485q0 238 124 385t331 147q201 0 298 -161h4v137h159v-913q0 -78 -12 -148h173v-135h-213q-115 -265 -472 -265q-184 0 -322 70v159q168 -93 320 -93q212 0 302 129h-322v135h375q12 59 12 126v149h-4q-114 -191 -342 -191q-183 0 -297 129.5t-114 339.5zM256 495 q0 -153 81 -248.5t211 -95.5q134 0 218 94.5t84 243.5v107q0 118 -80 202.5t-200 84.5q-146 0 -230 -104t-84 -284z" />
<glyph unicode="&#x1e6;" horiz-adv-x="1362" d="M91 677q0 323 204.5 530t517.5 207q227 0 381 -73v-181q-169 107 -400 107q-233 0 -382.5 -161t-149.5 -417q0 -264 138.5 -415t376.5 -151q163 0 282 65v390h-304v148h467v-631q-209 -118 -465 -118q-298 0 -482 192t-184 508zM437 1834h111l160 -223l159 223h115 l-208 -321h-128z" />
<glyph unicode="&#x1e7;" horiz-adv-x="1169" d="M93 465q0 253 122 402.5t333 149.5q201 0 298 -161h4v137h159v-913q0 -548 -524 -548q-184 0 -322 70v159q168 -93 320 -93q367 0 367 390v109h-4q-114 -190 -342 -190q-185 0 -298 132.5t-113 355.5zM256 475q0 -166 80 -265t212 -99q134 0 218 95t84 243v147 q0 118 -80 202.5t-200 84.5q-147 0 -230.5 -107.5t-83.5 -300.5zM287 1502h111l160 -223l159 223h115l-208 -321h-128z" />
<glyph unicode="&#x1e8;" horiz-adv-x="1152" d="M182 0v1391h163v-654h4q14 22 37 48l520 606h203l-597 -667l638 -724h-227l-537 636q-30 36 -37 49h-4v-685h-163zM313 1834h111l160 -223l159 223h115l-208 -321h-128z" />
<glyph unicode="&#x1e9;" horiz-adv-x="987" d="M161 0v1471h159v-933h4l417 455h209l-461 -479l497 -514h-224l-438 477h-4v-477h-159zM224 1834h111l160 -223l159 223h115l-208 -321h-128z" />
<glyph unicode="&#x1ea;" horiz-adv-x="1497" d="M91 679q0 336 181.5 535.5t493.5 199.5q288 0 464 -194t176 -507q0 -316 -158.5 -512.5t-432.5 -219.5q-124 -123 -124 -197q0 -68 66 -68q29 0 54 12v-103q-29 -13 -80 -13q-73 0 -118 39t-45 107q0 107 127 221q-274 16 -439 208.5t-165 491.5zM262 694 q0 -258 133.5 -414.5t347.5 -156.5q229 0 361 149.5t132 418.5q0 275 -128 425.5t-353 150.5q-220 0 -356.5 -158t-136.5 -415z" />
<glyph unicode="&#x1eb;" horiz-adv-x="1164" d="M93 485q0 250 137 391t369 141q223 0 347.5 -137t124.5 -379q0 -216 -111.5 -356t-305.5 -164q-125 -125 -125 -197q0 -68 65 -68q29 0 54 12v-103q-29 -13 -80 -13q-73 0 -118 39t-45 107q0 107 128 221q-202 13 -321 151t-119 355zM256 491q0 -177 90 -278.5 t242 -101.5q154 0 237 99.5t83 284.5q0 186 -83 287t-237 101q-153 0 -242.5 -104.5t-89.5 -287.5z" />
<glyph unicode="&#x1ec;" horiz-adv-x="1497" d="M91 679q0 336 181.5 535.5t493.5 199.5q288 0 464 -194t176 -507q0 -316 -158.5 -512.5t-432.5 -219.5q-124 -123 -124 -197q0 -68 66 -68q29 0 54 12v-103q-29 -13 -80 -13q-73 0 -118 39t-45 107q0 107 127 221q-274 16 -439 208.5t-165 491.5zM262 694 q0 -258 133.5 -414.5t347.5 -156.5q229 0 361 149.5t132 418.5q0 275 -128 425.5t-353 150.5q-220 0 -356.5 -158t-136.5 -415zM512 1520v106h493v-106h-493z" />
<glyph unicode="&#x1ed;" horiz-adv-x="1164" d="M93 485q0 250 137 391t369 141q223 0 347.5 -137t124.5 -379q0 -216 -111.5 -356t-305.5 -164q-125 -125 -125 -197q0 -68 65 -68q29 0 54 12v-103q-29 -13 -80 -13q-73 0 -118 39t-45 107q0 107 128 221q-202 13 -321 151t-119 355zM256 491q0 -177 90 -278.5 t242 -101.5q154 0 237 99.5t83 284.5q0 186 -83 287t-237 101q-153 0 -242.5 -104.5t-89.5 -287.5zM345 1181v106h493v-106h-493z" />
<glyph unicode="&#x1ee;" horiz-adv-x="1212" d="M10 -188q217 -132 432 -132q226 0 367 116t141 301q0 198 -147 307.5t-405 109.5h-90v74l486 656h-756v147h995v-74l-495 -665q265 -22 423.5 -169.5t158.5 -379.5q0 -249 -194.5 -410t-485.5 -161q-225 0 -430 104v176zM234 1834h111l160 -223l159 223h115l-208 -321 h-128z" />
<glyph unicode="&#x1ef;" horiz-adv-x="877" d="M-34 -229q160 -101 332 -101q169 0 277 88.5t108 227.5q0 145 -107.5 225.5t-307.5 80.5h-80v49l373 516h-561v136h789v-49l-382 -527q212 -25 325.5 -138.5t113.5 -288.5q0 -198 -157 -326.5t-397 -128.5q-177 0 -326 79v157zM91 1502h111l160 -223l159 223h115 l-208 -321h-128z" />
<glyph unicode="&#x1f0;" horiz-adv-x="481" d="M-192 -288q72 -44 136 -44q217 0 217 348v977h159v-951q0 -245 -98.5 -377.5t-281.5 -132.5q-68 0 -132 32v148zM-33 1502h111l160 -223l159 223h115l-208 -321h-128z" />
<glyph unicode="&#x1f1;" horiz-adv-x="2459" d="M182 0v1391h384q736 0 736 -678q0 -322 -204.5 -517.5t-546.5 -195.5h-369zM345 147h208q273 0 425.5 146.5t152.5 415.5q0 535 -568 535h-218v-1097zM1359 0v46l808 1198h-743v147h993v-39l-815 -1205h796v-147h-1039z" />
<glyph unicode="&#x1f2;" horiz-adv-x="2262" d="M182 0v1391h384q736 0 736 -678q0 -322 -204.5 -517.5t-546.5 -195.5h-369zM345 147h208q273 0 425.5 146.5t152.5 415.5q0 535 -568 535h-218v-1097zM1398 0v49l588 808h-533v136h767v-45l-588 -812h582v-136h-816z" />
<glyph unicode="&#x1f3;" horiz-adv-x="2036" d="M93 473q0 247 124 395.5t331 148.5q205 0 298 -161h4v615h159v-1471h-159v169h-4q-111 -192 -342 -192q-187 0 -299 133t-112 363zM256 481q0 -172 80 -271t215 -99q133 0 216 96t83 242v147q0 120 -79.5 203.5t-202.5 83.5q-145 0 -228.5 -107t-83.5 -295zM1171 0v49 l588 808h-533v136h767v-45l-588 -812h582v-136h-816z" />
<glyph unicode="&#x1f4;" horiz-adv-x="1362" d="M91 677q0 323 204.5 530t517.5 207q227 0 381 -73v-181q-169 107 -400 107q-233 0 -382.5 -161t-149.5 -417q0 -264 138.5 -415t376.5 -151q163 0 282 65v390h-304v148h467v-631q-209 -118 -465 -118q-298 0 -482 192t-184 508zM665 1521l216 319h161l-254 -319h-123z " />
<glyph unicode="&#x1f5;" horiz-adv-x="1169" d="M93 465q0 253 122 402.5t333 149.5q201 0 298 -161h4v137h159v-913q0 -548 -524 -548q-184 0 -322 70v159q168 -93 320 -93q367 0 367 390v109h-4q-114 -190 -342 -190q-185 0 -298 132.5t-113 355.5zM256 475q0 -166 80 -265t212 -99q134 0 218 95t84 243v147 q0 118 -80 202.5t-200 84.5q-147 0 -230.5 -107.5t-83.5 -300.5zM463 1181l216 319h161l-254 -319h-123z" />
<glyph unicode="&#x1f6;" horiz-adv-x="1984" d="M182 0v1391h163v-610h680v610h162v-974q0 -294 253 -294t253 288v582h163v-578q0 -207 -112.5 -322.5t-311.5 -115.5q-195 0 -301 111t-106 316v230h-680v-634h-163z" />
<glyph unicode="&#x1f7;" horiz-adv-x="1368" d="M182 -457v1848h163v-219q228 242 505 242q188 0 308.5 -131t120.5 -324q0 -311 -246.5 -577.5t-687.5 -437.5v-401h-163zM345 107q343 140 553.5 362t210.5 473q0 138 -79 229.5t-211 91.5q-227 0 -474 -279v-877z" />
<glyph unicode="&#x1f8;" horiz-adv-x="1486" d="M182 0v1391h212l696 -1091q44 -68 57 -93h3q-9 60 -9 204v980h163v-1391h-200l-716 1109q-27 41 -45 87h-5q7 -45 7 -191v-1005h-163zM450 1840h162l215 -319h-123z" />
<glyph unicode="&#x1f9;" d="M161 0v993h159v-165h4q112 189 326 189q163 0 249.5 -105.5t86.5 -304.5v-607h-160v566q0 317 -230 317q-120 0 -198 -90t-78 -227v-566h-159zM277 1500h162l215 -319h-123z" />
<glyph unicode="&#x1fa;" horiz-adv-x="1281" d="M21 0l513 1337q-98 50 -98 159q0 86 58.5 139.5t147.5 53.5q86 0 140 -53t54 -134q0 -109 -93 -161l516 -1341h-180l-148 390h-590l-138 -390h-182zM396 536h482l-218 593q-11 29 -22 93h-4q-9 -59 -22 -93zM519 1748l216 318h161l-254 -318h-123zM526 1502 q0 -111 110 -111q47 0 79 32t32 79t-32 77t-79 30q-48 0 -79 -30.5t-31 -76.5z" />
<glyph unicode="&#x1fb;" horiz-adv-x="1010" d="M87 264q0 278 328 324l298 42q0 253 -205 253q-179 0 -324 -123v163q147 94 338 94q350 0 350 -371v-646h-159v155h-4q-104 -178 -305 -178q-149 0 -233 78.5t-84 208.5zM250 275q0 -72 52 -118t138 -46q119 0 196 82.5t77 210.5v98l-240 -33q-110 -15 -166.5 -54.5 t-56.5 -139.5zM306 1265q0 87 57 139.5t145 52.5q87 0 142 -52.5t55 -133.5q0 -82 -59 -136t-145 -54q-84 0 -139.5 51t-55.5 133zM393 1269q0 -109 108 -109q49 0 81 31t32 78t-32 78.5t-81 31.5q-46 0 -77 -32t-31 -78zM391 1519l216 319h161l-254 -319h-123z" />
<glyph unicode="&#x1fc;" horiz-adv-x="1709" d="M10 0l679 1391h896v-147h-542v-463h503v-147h-503v-487h574v-147h-736v390h-495l-187 -390h-189zM453 536h428v708h-92zM923 1519l216 319h161l-254 -319h-123z" />
<glyph unicode="&#x1fd;" horiz-adv-x="1652" d="M87 264q0 291 372 314l254 16q0 289 -209 289q-169 0 -320 -119v159q144 94 338 94q225 0 291 -194h4q112 194 345 194q196 0 303.5 -127t107.5 -352v-81h-703q3 -166 88.5 -256t233.5 -90q172 0 312 110v-149q-129 -95 -348 -95q-262 0 -371 222h-4q-141 -222 -376 -222 q-148 0 -233 78t-85 209zM248 268q0 -71 51.5 -114t138.5 -43q116 0 195.5 82t79.5 205v61l-197 -12q-135 -8 -201.5 -47.5t-66.5 -131.5zM872 592h538q-2 139 -66.5 215t-179.5 76q-113 0 -193.5 -79.5t-98.5 -211.5zM710 1181l216 319h161l-254 -319h-123z" />
<glyph unicode="&#x1fe;" horiz-adv-x="1497" d="M91 14l153 185q-153 189 -153 480q0 333 181 534t494 201q227 0 390 -125l131 157l76 -61l-135 -161q178 -194 178 -511q0 -341 -180 -538.5t-483 -197.5q-258 0 -429 150l-147 -176zM262 694q0 -217 95 -362l700 836q-122 99 -302 99q-221 0 -357 -159t-136 -414z M419 256q127 -133 324 -133q229 0 361 150t132 418q0 252 -114 405zM622 1519l216 319h161l-254 -319h-123z" />
<glyph unicode="&#x1ff;" horiz-adv-x="1164" d="M48 -4l144 159q-99 133 -99 330q0 250 138 391t370 141q179 0 299 -95l157 170l82 -75l-163 -175q95 -134 95 -336q0 -244 -135 -386.5t-360 -142.5q-186 0 -308 99l-141 -156zM256 491q0 -128 49 -217l491 537q-76 72 -208 72q-154 0 -243 -104.5t-89 -287.5zM372 184 q84 -73 214 -73q158 0 241 100.5t83 285.5q0 130 -46 223zM465 1181l216 319h161l-254 -319h-123z" />
<glyph unicode="&#x200;" horiz-adv-x="1281" d="M21 0l534 1391h169l535 -1391h-180l-148 390h-590l-138 -390h-182zM396 536h482l-218 593q-11 29 -22 93h-4q-9 -59 -22 -93zM243 1830h129l202 -309h-93zM483 1830h125l201 -309h-94z" />
<glyph unicode="&#x201;" horiz-adv-x="1002" d="M79 264q0 278 328 324l298 42q0 253 -205 253q-179 0 -324 -123v163q147 94 338 94q350 0 350 -371v-646h-159v155h-4q-104 -178 -305 -178q-149 0 -233 78.5t-84 208.5zM242 275q0 -72 52 -118t138 -46q119 0 196 82.5t77 210.5v98l-240 -33q-110 -15 -166.5 -54.5 t-56.5 -139.5zM122 1490h129l202 -309h-93zM362 1490h125l201 -309h-94z" />
<glyph unicode="&#x202;" horiz-adv-x="1281" d="M21 0l534 1391h169l535 -1391h-180l-148 390h-590l-138 -390h-182zM396 536h482l-218 593q-11 29 -22 93h-4q-9 -59 -22 -93zM310 1492q10 103 84.5 167t187.5 64t187.5 -64.5t84.5 -166.5h-103q-23 135 -169 135t-169 -135h-103z" />
<glyph unicode="&#x203;" horiz-adv-x="1002" d="M79 264q0 278 328 324l298 42q0 253 -205 253q-179 0 -324 -123v163q147 94 338 94q350 0 350 -371v-646h-159v155h-4q-104 -178 -305 -178q-149 0 -233 78.5t-84 208.5zM242 275q0 -72 52 -118t138 -46q119 0 196 82.5t77 210.5v98l-240 -33q-110 -15 -166.5 -54.5 t-56.5 -139.5zM230 1193q10 103 84.5 167t187.5 64t187.5 -64.5t84.5 -166.5h-103q-23 135 -169 135t-169 -135h-103z" />
<glyph unicode="&#x204;" horiz-adv-x="1004" d="M182 0v1391h707v-147h-544v-463h503v-147h-503v-487h575v-147h-738zM154 1830h129l202 -309h-93zM394 1830h125l201 -309h-94z" />
<glyph unicode="&#x205;" horiz-adv-x="1038" d="M93 493q0 232 131.5 378t326.5 146t301.5 -126.5t106.5 -350.5v-83h-701q4 -166 89.5 -256t234.5 -90q168 0 308 110v-149q-130 -95 -346 -95q-210 0 -330.5 135t-120.5 381zM260 592h536q-1 137 -66.5 214t-181.5 77q-112 0 -191 -80.5t-97 -210.5zM152 1490h129 l202 -309h-93zM392 1490h125l201 -309h-94z" />
<glyph unicode="&#x206;" horiz-adv-x="1004" d="M182 0v1391h707v-147h-544v-463h503v-147h-503v-487h575v-147h-738zM266 1530q10 103 84.5 167t187.5 64t187.5 -64.5t84.5 -166.5h-103q-23 135 -169 135t-169 -135h-103z" />
<glyph unicode="&#x207;" horiz-adv-x="1038" d="M93 493q0 232 131.5 378t326.5 146t301.5 -126.5t106.5 -350.5v-83h-701q4 -166 89.5 -256t234.5 -90q168 0 308 110v-149q-130 -95 -346 -95q-210 0 -330.5 135t-120.5 381zM260 592h536q-1 137 -66.5 214t-181.5 77q-112 0 -191 -80.5t-97 -210.5zM248 1193 q10 103 84.5 167t187.5 64t187.5 -64.5t84.5 -166.5h-103q-23 135 -169 135t-169 -135h-103z" />
<glyph unicode="&#x208;" horiz-adv-x="528" d="M47 0v140h135v1111h-135v140h434v-140h-136v-1111h136v-140h-434zM-118 1830h129l202 -309h-93zM122 1830h125l201 -309h-94z" />
<glyph unicode="&#x209;" horiz-adv-x="481" d="M161 0v993h159v-993h-159zM-141 1490h129l202 -309h-93zM99 1490h125l201 -309h-94z" />
<glyph unicode="&#x20a;" horiz-adv-x="528" d="M47 0v140h135v1111h-135v140h434v-140h-136v-1111h136v-140h-434zM-8 1530q10 103 84.5 167t187.5 64t187.5 -64.5t84.5 -166.5h-103q-23 135 -169 135t-169 -135h-103z" />
<glyph unicode="&#x20b;" horiz-adv-x="481" d="M161 0v993h159v-993h-159zM-25 1181q4 111 76.5 178t185.5 67q110 0 185 -67t85 -178h-99q-9 70 -56 111t-113 41q-155 0 -167 -152h-97z" />
<glyph unicode="&#x20c;" horiz-adv-x="1497" d="M91 679q0 336 181.5 535.5t493.5 199.5q288 0 464 -194t176 -507q0 -341 -180 -538.5t-483 -197.5q-296 0 -474 195t-178 507zM262 694q0 -258 133.5 -414.5t347.5 -156.5q229 0 361 149.5t132 418.5q0 275 -128 425.5t-353 150.5q-220 0 -356.5 -158t-136.5 -415z M355 1830h129l202 -309h-93zM595 1830h125l201 -309h-94z" />
<glyph unicode="&#x20d;" horiz-adv-x="1164" d="M93 485q0 250 137 391t369 141q223 0 347.5 -137t124.5 -379q0 -238 -134.5 -381t-360.5 -143q-220 0 -351.5 139t-131.5 369zM256 491q0 -177 90 -278.5t242 -101.5q154 0 237 99.5t83 284.5q0 186 -83 287t-237 101q-153 0 -242.5 -104.5t-89.5 -287.5zM187 1490h129 l202 -309h-93zM427 1490h125l201 -309h-94z" />
<glyph unicode="&#x20e;" horiz-adv-x="1497" d="M91 679q0 336 181.5 535.5t493.5 199.5q288 0 464 -194t176 -507q0 -341 -180 -538.5t-483 -197.5q-296 0 -474 195t-178 507zM262 694q0 -258 133.5 -414.5t347.5 -156.5q229 0 361 149.5t132 418.5q0 275 -128 425.5t-353 150.5q-220 0 -356.5 -158t-136.5 -415z M477 1530q10 103 84.5 167t187.5 64t187.5 -64.5t84.5 -166.5h-103q-23 135 -169 135t-169 -135h-103z" />
<glyph unicode="&#x20f;" horiz-adv-x="1164" d="M93 485q0 250 137 391t369 141q223 0 347.5 -137t124.5 -379q0 -238 -134.5 -381t-360.5 -143q-220 0 -351.5 139t-131.5 369zM256 491q0 -177 90 -278.5t242 -101.5q154 0 237 99.5t83 284.5q0 186 -83 287t-237 101q-153 0 -242.5 -104.5t-89.5 -287.5zM310 1193 q10 103 84.5 167t187.5 64t187.5 -64.5t84.5 -166.5h-103q-23 135 -169 135t-169 -135h-103z" />
<glyph unicode="&#x210;" horiz-adv-x="1142" d="M182 0v1391h416q91 0 168 -23t133.5 -69.5t88.5 -115.5t32 -163q0 -72 -21.5 -133t-62 -108.5t-97 -81t-127.5 -51.5v-4q35 -15 60.5 -35t49 -47t46 -61.5t51.5 -80.5l261 -418h-194l-233 390q-32 54 -62 92.5t-61.5 62.5t-68 35.5t-82.5 11.5h-134v-592h-163zM345 739 h221q62 0 113.5 18.5t89.5 53t59.5 84.5t21.5 112q0 111 -72.5 174t-209.5 63h-223v-505zM155 1830h129l202 -309h-93zM395 1830h125l201 -309h-94z" />
<glyph unicode="&#x211;" horiz-adv-x="690" d="M161 0v993h159v-204h4q34 104 104 163t156 59q62 0 95 -14v-165q-42 32 -120 32q-102 0 -170.5 -96t-68.5 -262v-506h-159zM4 1490h129l202 -309h-93zM244 1490h125l201 -309h-94z" />
<glyph unicode="&#x212;" horiz-adv-x="1188" d="M182 0v1391h416q91 0 168 -23t133.5 -69.5t88.5 -115.5t32 -163q0 -72 -21.5 -133t-62 -108.5t-97 -81t-127.5 -51.5v-4q35 -15 60.5 -35t49 -47t46 -61.5t51.5 -80.5l261 -418h-194l-233 390q-32 54 -62 92.5t-61.5 62.5t-68 35.5t-82.5 11.5h-134v-592h-163zM345 739 h221q62 0 113.5 18.5t89.5 53t59.5 84.5t21.5 112q0 111 -72.5 174t-209.5 63h-223v-505zM308 1530q10 103 84.5 167t187.5 64t187.5 -64.5t84.5 -166.5h-103q-23 135 -169 135t-169 -135h-103z" />
<glyph unicode="&#x213;" horiz-adv-x="690" d="M161 0v993h159v-204h4q34 104 104 163t156 59q62 0 95 -14v-165q-42 32 -120 32q-102 0 -170.5 -96t-68.5 -262v-506h-159zM149 1193q10 103 84.5 167t187.5 64t187.5 -64.5t84.5 -166.5h-103q-23 135 -169 135t-169 -135h-103z" />
<glyph unicode="&#x214;" horiz-adv-x="1364" d="M165 540v851h163v-840q0 -428 361 -428q348 0 348 413v855h163v-828q0 -586 -529 -586q-506 0 -506 563zM296 1830h129l202 -309h-93zM536 1830h125l201 -309h-94z" />
<glyph unicode="&#x215;" d="M140 400v593h158v-568q0 -314 240 -314q117 0 192 85.5t75 224.5v572h159v-993h-159v157h-4q-99 -180 -306 -180q-355 0 -355 423zM169 1490h129l202 -309h-93zM409 1490h125l201 -309h-94z" />
<glyph unicode="&#x216;" horiz-adv-x="1364" d="M165 540v851h163v-840q0 -428 361 -428q348 0 348 413v855h163v-828q0 -586 -529 -586q-506 0 -506 563zM411 1530q10 103 84.5 167t187.5 64t187.5 -64.5t84.5 -166.5h-103q-23 135 -169 135t-169 -135h-103z" />
<glyph unicode="&#x217;" d="M140 400v593h158v-568q0 -314 240 -314q117 0 192 85.5t75 224.5v572h159v-993h-159v157h-4q-99 -180 -306 -180q-355 0 -355 423zM290 1193q10 103 84.5 167t187.5 64t187.5 -64.5t84.5 -166.5h-103q-23 135 -169 135t-169 -135h-103z" />
<glyph unicode="&#x218;" horiz-adv-x="1055" d="M117 56v192q33 -29 79 -52t97 -39t102.5 -25t95.5 -9q150 0 224.5 56t74.5 161q0 56 -25 97.5t-68.5 76t-103 66t-128.5 66.5q-73 37 -136 75t-109.5 83.5t-73.5 103t-27 135.5q0 95 42 165t110 116t154.5 68t176.5 22q206 0 300 -49v-184q-123 86 -316 86 q-53 0 -106.5 -11t-95.5 -36.5t-68 -65t-26 -97.5q0 -53 20 -92t58.5 -71t94.5 -62t129 -66q74 -37 141 -77.5t117.5 -90t80 -109.5t29.5 -138q0 -103 -40 -174t-108.5 -116t-157.5 -64.5t-188 -19.5q-33 0 -81.5 5t-99 15.5t-95.5 25.5t-73 33zM331 -368l114 253h167 l-161 -253h-120z" />
<glyph unicode="&#x219;" horiz-adv-x="842" d="M101 36v171q130 -96 286 -96q210 0 210 139q0 40 -18 67.5t-48.5 49t-72 38.5t-88.5 35q-66 27 -116 53.5t-83.5 60t-50.5 76t-17 99.5q0 70 32 124t85.5 90.5t121.5 55t141 18.5q129 0 231 -45v-161q-110 72 -252 72q-45 0 -81 -10.5t-61.5 -29t-39.5 -44t-14 -56.5 q0 -39 14 -65t41 -46.5t66 -37t88 -35.5q66 -25 118.5 -52t89.5 -60.5t57 -77t20 -103.5q0 -74 -32.5 -128.5t-87 -90t-125.5 -53t-148 -17.5q-154 0 -266 59zM221 -368l114 253h167l-161 -253h-120z" />
<glyph unicode="&#x21a;" horiz-adv-x="1040" d="M40 1244v147h965v-147h-402v-1244h-163v1244h-400zM355 -368l114 253h167l-161 -253h-120z" />
<glyph unicode="&#x21b;" horiz-adv-x="673" d="M42 857v136h170v243l160 51v-294h250v-136h-250v-559q0 -100 33.5 -142.5t112.5 -42.5q60 0 104 33v-136q-56 -31 -149 -31q-261 0 -261 291v587h-170zM253 -368l114 253h167l-161 -253h-120z" />
<glyph unicode="&#x21c;" horiz-adv-x="1001" d="M16 -300q73 -18 172 -18q248 0 415 132.5t167 332.5q0 156 -110.5 254t-287.5 98q-88 0 -199 -31v146l109 24q417 92 417 349q0 128 -94 204t-256 76q-167 0 -324 -87v159q150 75 334 75q239 0 373 -114.5t134 -302.5q0 -272 -288 -383v-9q168 -39 266 -160t98 -292 q0 -256 -214 -437t-536 -181q-100 0 -176 14v151z" />
<glyph unicode="&#x21d;" horiz-adv-x="853" d="M29 803v147q130 67 301 67q193 0 305 -92t112 -238q0 -193 -225 -299v-7q128 -29 205.5 -125.5t77.5 -232.5q0 -210 -168.5 -349t-437.5 -139q-94 0 -153 12v141q64 -18 146 -18q197 0 323.5 97t126.5 250q0 122 -79.5 196.5t-215.5 74.5q-85 0 -176 -28v136l93 17 q153 29 238.5 100t85.5 166t-71.5 149.5t-204.5 54.5q-145 0 -283 -80z" />
<glyph unicode="&#x21e;" horiz-adv-x="1410" d="M182 0v1391h163v-610h720v610h163v-1391h-163v634h-720v-634h-163zM433 1834h111l160 -223l159 223h115l-208 -321h-128z" />
<glyph unicode="&#x21f;" d="M161 0v1471h159v-643h4q114 189 326 189q336 0 336 -405v-612h-160v572q0 311 -230 311q-117 0 -196.5 -90t-79.5 -230v-563h-159zM224 1834h111l160 -223l159 223h115l-208 -321h-128z" />
<glyph unicode="&#x220;" horiz-adv-x="1457" d="M182 0v1391h163v-254h6q153 277 462 277q226 0 346 -149t120 -425v-1297h-163v1253q0 471 -342 471q-186 0 -307.5 -137t-121.5 -343v-787h-163z" />
<glyph unicode="&#x221;" horiz-adv-x="1279" d="M93 473q0 247 124 395.5t331 148.5q205 0 298 -161h4v615h159v-1452q0 -75 18 -138q100 119 247 119q107 0 175 -56.5t68 -146.5q0 -92 -78.5 -153t-202.5 -61q-109 0 -188 49q-15 -62 -17 -100h-141q7 99 45 196q-85 117 -85 291v150h-4q-111 -192 -342 -192 q-187 0 -299 133t-112 363zM256 481q0 -172 80 -271t215 -99q133 0 216 96t83 242v147q0 120 -79.5 203.5t-202.5 83.5q-145 0 -228.5 -107t-83.5 -295zM1100 -239q58 -45 136 -45q141 0 141 81q0 74 -108 74q-103 0 -169 -110z" />
<glyph unicode="&#x222;" horiz-adv-x="1171" d="M60 436q0 278 272 402q-199 103 -199 318q0 117 53 235h167q-57 -109 -57 -227q0 -113 79.5 -185.5t212.5 -72.5q134 0 214.5 72.5t80.5 185.5q0 114 -60 227h168q54 -120 54 -235q0 -200 -203 -318q130 -50 203 -154t73 -239q0 -208 -151 -338t-383 -130 q-235 0 -379.5 124.5t-144.5 334.5zM231 440q0 -144 104.5 -230.5t252.5 -86.5q154 0 257 86t103 231t-106 230t-254 85q-153 0 -255 -85t-102 -230z" />
<glyph unicode="&#x223;" horiz-adv-x="1126" d="M70 447q0 285 258 410q-92 47 -145.5 143t-53.5 216q0 125 42 255h155q-38 -117 -38 -245q0 -138 74 -222t203 -84t201 84.5t72 221.5q0 128 -37 245h154q42 -130 42 -255q0 -237 -198 -359q258 -122 258 -406q0 -209 -144 -341.5t-356 -132.5q-217 0 -352 129.5 t-135 340.5zM233 449q0 -151 97 -244.5t233 -93.5q140 0 235.5 93t95.5 245q0 149 -97 242.5t-232 93.5q-142 0 -237 -92t-95 -244z" />
<glyph unicode="&#x224;" horiz-adv-x="1132" d="M32 0v46l808 1198h-743v147h993v-39l-815 -1205h555q283 0 283 -244q0 -69 -32 -140h-159q37 68 37 126q0 111 -140 111h-787z" />
<glyph unicode="&#x225;" horiz-adv-x="898" d="M32 0v49l588 808h-533v136h767v-45l-588 -812h372q260 0 260 -225q0 -63 -30 -130h-144q33 62 33 116q0 103 -129 103h-596z" />
<glyph unicode="&#x226;" horiz-adv-x="1281" d="M21 0l534 1391h169l535 -1391h-180l-148 390h-590l-138 -390h-182zM396 536h482l-218 593q-11 29 -22 93h-4q-9 -59 -22 -93zM546 1623q0 39 28 66.5t68 27.5t67.5 -27t27.5 -67q0 -39 -27.5 -67.5t-67.5 -28.5q-39 0 -67.5 28t-28.5 68z" />
<glyph unicode="&#x227;" horiz-adv-x="1002" d="M79 264q0 278 328 324l298 42q0 253 -205 253q-179 0 -324 -123v163q147 94 338 94q350 0 350 -371v-646h-159v155h-4q-104 -178 -305 -178q-149 0 -233 78.5t-84 208.5zM242 275q0 -72 52 -118t138 -46q119 0 196 82.5t77 210.5v98l-240 -33q-110 -15 -166.5 -54.5 t-56.5 -139.5zM408 1277q0 39 28 66.5t68 27.5t67.5 -27t27.5 -67q0 -39 -27.5 -67.5t-67.5 -28.5q-39 0 -67.5 28t-28.5 68z" />
<glyph unicode="&#x228;" horiz-adv-x="1004" d="M182 0v1391h707v-147h-544v-463h503v-147h-503v-487h575v-147h-738zM431 -330q42 -6 68 -6q137 0 137 88q0 75 -125 75q-10 0 -40 -4v177h105v-101q85 0 135 -38.5t50 -108.5q0 -171 -266 -171q-37 0 -64 2v87z" />
<glyph unicode="&#x229;" horiz-adv-x="1038" d="M93 493q0 232 131.5 378t326.5 146t301.5 -126.5t106.5 -350.5v-83h-701q4 -166 89.5 -256t234.5 -90q168 0 308 110v-149q-130 -95 -346 -95q-210 0 -330.5 135t-120.5 381zM260 592h536q-1 137 -66.5 214t-181.5 77q-112 0 -191 -80.5t-97 -210.5zM419 -330 q42 -6 68 -6q137 0 137 88q0 75 -125 75q-10 0 -40 -4v177h105v-101q85 0 135 -38.5t50 -108.5q0 -171 -266 -171q-37 0 -64 2v87z" />
<glyph unicode="&#x22a;" horiz-adv-x="1497" d="M91 679q0 336 181.5 535.5t493.5 199.5q288 0 464 -194t176 -507q0 -341 -180 -538.5t-483 -197.5q-296 0 -474 195t-178 507zM262 694q0 -258 133.5 -414.5t347.5 -156.5q229 0 361 149.5t132 418.5q0 275 -128 425.5t-353 150.5q-220 0 -356.5 -158t-136.5 -415z M469 1627q0 41 27.5 68.5t68.5 27.5q40 0 68.5 -28t28.5 -68q0 -39 -27.5 -67.5t-67.5 -28.5t-69 28t-29 68zM507 1790v106h492v-106h-492zM844 1627q0 41 27.5 68.5t65.5 27.5q41 0 69.5 -28t28.5 -68q0 -39 -27.5 -67.5t-68.5 -28.5q-39 0 -67 27.5t-28 68.5z" />
<glyph unicode="&#x22b;" horiz-adv-x="1164" d="M93 485q0 250 137 391t369 141q223 0 347.5 -137t124.5 -379q0 -238 -134.5 -381t-360.5 -143q-220 0 -351.5 139t-131.5 369zM256 491q0 -177 90 -278.5t242 -101.5q154 0 237 99.5t83 284.5q0 186 -83 287t-237 101q-153 0 -242.5 -104.5t-89.5 -287.5zM298 1277 q0 41 27.5 68.5t68.5 27.5q40 0 68.5 -28t28.5 -68q0 -39 -27.5 -67.5t-67.5 -28.5t-69 28t-29 68zM336 1440v106h492v-106h-492zM673 1277q0 41 27.5 68.5t65.5 27.5q41 0 69.5 -28t28.5 -68q0 -39 -27.5 -67.5t-68.5 -28.5q-39 0 -67 27.5t-28 68.5z" />
<glyph unicode="&#x22c;" horiz-adv-x="1497" d="M91 679q0 336 181.5 535.5t493.5 199.5q288 0 464 -194t176 -507q0 -341 -180 -538.5t-483 -197.5q-296 0 -474 195t-178 507zM262 694q0 -258 133.5 -414.5t347.5 -156.5q229 0 361 149.5t132 418.5q0 275 -128 425.5t-353 150.5q-220 0 -356.5 -158t-136.5 -415z M447 1509q0 104 46.5 166.5t130.5 62.5q63 0 144 -51q72 -42 125 -42q81 0 81 112h95q0 -102 -46.5 -166.5t-126.5 -64.5q-68 0 -157 51q-74 42 -115 42q-86 0 -86 -110h-91zM506 1810v105h493v-105h-493z" />
<glyph unicode="&#x22d;" horiz-adv-x="1164" d="M93 485q0 250 137 391t369 141q223 0 347.5 -137t124.5 -379q0 -238 -134.5 -381t-360.5 -143q-220 0 -351.5 139t-131.5 369zM256 491q0 -177 90 -278.5t242 -101.5q154 0 237 99.5t83 284.5q0 186 -83 287t-237 101q-153 0 -242.5 -104.5t-89.5 -287.5zM282 1166 q0 104 46.5 166.5t130.5 62.5q63 0 144 -51q72 -42 125 -42q81 0 81 112h95q0 -102 -46.5 -166.5t-126.5 -64.5q-68 0 -157 51q-74 42 -115 42q-86 0 -86 -110h-91zM341 1467v105h493v-105h-493z" />
<glyph unicode="&#x22e;" horiz-adv-x="1497" d="M91 679q0 336 181.5 535.5t493.5 199.5q288 0 464 -194t176 -507q0 -341 -180 -538.5t-483 -197.5q-296 0 -474 195t-178 507zM262 694q0 -258 133.5 -414.5t347.5 -156.5q229 0 361 149.5t132 418.5q0 275 -128 425.5t-353 150.5q-220 0 -356.5 -158t-136.5 -415z M654 1623q0 39 28 66.5t68 27.5t67.5 -27t27.5 -67q0 -39 -27.5 -67.5t-67.5 -28.5q-39 0 -67.5 28t-28.5 68z" />
<glyph unicode="&#x22f;" horiz-adv-x="1164" d="M93 485q0 250 137 391t369 141q223 0 347.5 -137t124.5 -379q0 -238 -134.5 -381t-360.5 -143q-220 0 -351.5 139t-131.5 369zM256 491q0 -177 90 -278.5t242 -101.5q154 0 237 99.5t83 284.5q0 186 -83 287t-237 101q-153 0 -242.5 -104.5t-89.5 -287.5zM487 1277 q0 39 28 66.5t68 27.5t67.5 -27t27.5 -67q0 -39 -27.5 -67.5t-67.5 -28.5q-39 0 -67.5 28t-28.5 68z" />
<glyph unicode="&#x230;" horiz-adv-x="1497" d="M91 679q0 336 181.5 535.5t493.5 199.5q288 0 464 -194t176 -507q0 -341 -180 -538.5t-483 -197.5q-296 0 -474 195t-178 507zM262 694q0 -258 133.5 -414.5t347.5 -156.5q229 0 361 149.5t132 418.5q0 275 -128 425.5t-353 150.5q-220 0 -356.5 -158t-136.5 -415z M502 1782v105h493v-105h-493zM653 1623q0 40 28.5 67t66.5 27q40 0 68 -27t28 -67q0 -39 -28 -67.5t-68 -28.5q-38 0 -66.5 28t-28.5 68z" />
<glyph unicode="&#x237;" horiz-adv-x="481" d="M-192 -288q72 -44 136 -44q217 0 217 348v977h159v-951q0 -245 -98.5 -377.5t-281.5 -132.5q-68 0 -132 32v148z" />
<glyph unicode="&#x292;" horiz-adv-x="877" d="M-34 -229q160 -101 332 -101q169 0 277 88.5t108 227.5q0 145 -107.5 225.5t-307.5 80.5h-80v49l373 516h-561v136h789v-49l-382 -527q212 -25 325.5 -138.5t113.5 -288.5q0 -198 -157 -326.5t-397 -128.5q-177 0 -326 79v157z" />
<glyph unicode="&#x2be;" horiz-adv-x="661" d="M243 1181v90q92 0 92 88q0 85 -92 85v92q76 0 125.5 -50.5t49.5 -126.5t-49.5 -127t-125.5 -51z" />
<glyph unicode="&#x2c6;" horiz-adv-x="737" d="M89 1181l209 323h129l209 -323h-118l-159 224l-160 -224h-110z" />
<glyph unicode="&#x2c7;" horiz-adv-x="737" d="M99 1502h111l160 -223l159 223h115l-208 -321h-128z" />
<glyph unicode="&#x2c9;" horiz-adv-x="615" d="M60 1181v106h493v-106h-493z" />
<glyph unicode="&#x2d8;" horiz-adv-x="603" d="M36 1426h97q12 -150 167 -150q66 0 113 40.5t56 109.5h99q-9 -110 -85.5 -177.5t-184.5 -67.5q-114 0 -185.5 67t-76.5 178z" />
<glyph unicode="&#x2d9;" horiz-adv-x="399" d="M105 1277q0 39 28 66.5t68 27.5t67.5 -27t27.5 -67q0 -39 -27.5 -67.5t-67.5 -28.5q-39 0 -67.5 28t-28.5 68z" />
<glyph unicode="&#x2da;" horiz-adv-x="556" d="M80 1325q0 87 57 139.5t145 52.5q87 0 142 -52.5t55 -133.5q0 -82 -59 -136t-145 -54q-84 0 -139.5 51t-55.5 133zM167 1329q0 -109 108 -109q49 0 81 31t32 78t-32 78.5t-81 31.5q-46 0 -77 -32t-31 -78z" />
<glyph unicode="&#x2db;" horiz-adv-x="367" d="M60 -242q0 118 152 242h116q-146 -137 -146 -216q0 -68 66 -68q29 0 55 12v-103q-29 -13 -80 -13q-74 0 -118.5 39t-44.5 107z" />
<glyph unicode="&#x2dc;" horiz-adv-x="669" d="M34 1166q0 104 46.5 166.5t129.5 62.5q64 0 145 -51q72 -42 124 -42q82 0 82 112h95q0 -102 -46.5 -166.5t-126.5 -64.5q-69 0 -157 51q-75 42 -116 42q-85 0 -85 -110h-91z" />
<glyph unicode="&#x2dd;" horiz-adv-x="644" d="M62 1181l200 309h126l-233 -309h-93zM296 1181l203 309h129l-238 -309h-94z" />
<glyph unicode="&#x309;" horiz-adv-x="603" d="M166 1420v104q36 4 77 4q86 0 140.5 -41t54.5 -110q0 -59 -37 -99.5t-93 -47.5v-49h-104v112q108 0 108 74q0 61 -91 61q-16 0 -55 -8z" />
<glyph unicode="&#x30f;" horiz-adv-x="0" d="M-282 1490h129l202 -309h-93zM-42 1490h125l201 -309h-94z" />
<glyph unicode="&#x311;" horiz-adv-x="0" d="M-266 1181q4 111 76.5 178t185.5 67q110 0 185 -67t85 -178h-99q-9 70 -56 111t-113 41q-155 0 -167 -152h-97z" />
<glyph unicode="&#x323;" horiz-adv-x="661" d="M235 -209q0 40 29 67t67 27q40 0 68 -27t28 -67q0 -39 -28 -67.5t-68 -28.5t-68 28.5t-28 67.5z" />
<glyph unicode="&#x393;" horiz-adv-x="937" d="M182 0v1391h722v-151h-558v-1240h-164z" />
<glyph unicode="&#x3a0;" horiz-adv-x="1416" d="M182 0v1391h1056v-1391h-165v1240h-727v-1240h-164z" />
<glyph unicode="&#x401;" horiz-adv-x="1004" d="M182 0v1391h707v-147h-544v-463h503v-147h-503v-487h575v-147h-738zM256 1615q0 41 28 68.5t67 27.5q40 0 69 -28t29 -68q0 -39 -28 -67.5t-67 -28.5q-41 0 -69.5 29t-28.5 67zM632 1615q0 41 27 68.5t66 27.5q40 0 68.5 -28t28.5 -68q0 -39 -27.5 -67.5t-67.5 -28.5 q-39 0 -67 27.5t-28 68.5z" />
<glyph unicode="&#x410;" horiz-adv-x="1281" d="M21 0l534 1391h169l535 -1391h-180l-148 390h-590l-138 -390h-182zM396 536h482l-218 593q-11 29 -22 93h-4q-9 -59 -22 -93z" />
<glyph unicode="&#x411;" horiz-adv-x="1135" d="M182 0v1391h743v-147h-580v-443h264q208 0 323.5 -100.5t115.5 -285.5q0 -192 -121.5 -303.5t-330.5 -111.5h-414zM345 147h229q145 0 223.5 68t78.5 190q0 249 -302 249h-229v-507z" />
<glyph unicode="&#x412;" horiz-adv-x="1138" d="M182 0v1391h396q181 0 286.5 -88.5t105.5 -229.5q0 -119 -64 -206t-177 -124v-4q141 -16 225.5 -106t84.5 -233q0 -179 -128 -289.5t-323 -110.5h-406zM345 147h221q144 0 223 68t79 187q0 246 -335 246h-188v-501zM345 794h167q134 0 210.5 64.5t76.5 182.5 q0 203 -266 203h-188v-450z" />
<glyph unicode="&#x413;" horiz-adv-x="937" d="M182 0v1391h722v-151h-558v-1240h-164z" />
<glyph unicode="&#x414;" horiz-adv-x="1377" d="M15 147h107q140 256 237.5 596.5t109.5 647.5h655v-1244h187v-520h-150v373h-996v-373h-150v520zM299 147h662v1097h-353q-15 -240 -106.5 -561t-202.5 -536z" />
<glyph unicode="&#x415;" horiz-adv-x="1004" d="M182 0v1391h707v-147h-544v-463h503v-147h-503v-487h575v-147h-738z" />
<glyph unicode="&#x416;" horiz-adv-x="1721" d="M-21 0l637 722l-595 669h200l522 -602q21 -25 36 -48h4v650h154v-650h5q12 21 36 48l522 602h198l-594 -669l636 -722h-218l-544 636q-24 27 -36 49h-5v-685h-154v685h-4q-15 -24 -36 -49l-544 -636h-220z" />
<glyph unicode="&#x417;" horiz-adv-x="1072" d="M93 58v177q163 -120 370 -120q150 0 239 73t89 196q0 268 -362 268h-145v135h133q154 0 239 67t85 189q0 105 -70.5 168t-193.5 63q-174 0 -339 -110v165q153 85 353 85q198 0 311.5 -94t113.5 -247q0 -271 -264 -342v-3q143 -17 227.5 -108t84.5 -226 q0 -191 -135.5 -304t-371.5 -113t-364 81z" />
<glyph unicode="&#x418;" horiz-adv-x="1487" d="M182 0v1391h163v-980q0 -157 -7 -204h3q22 42 55 93l698 1091h210v-1391h-163v1005q0 136 9 191h-5q-19 -48 -45 -87l-716 -1109h-202z" />
<glyph unicode="&#x419;" horiz-adv-x="1487" d="M182 0v1391h163v-980q0 -157 -7 -204h3q22 42 55 93l698 1091h210v-1391h-163v1005q0 136 9 191h-5q-19 -48 -45 -87l-716 -1109h-202zM407 1814h158q13 -182 186 -182q77 0 127.5 48t62.5 134h157q-14 -136 -110 -215.5t-239 -79.5q-148 0 -240.5 79.5t-101.5 215.5z " />
<glyph unicode="&#x41a;" horiz-adv-x="1152" d="M182 0v1391h163v-654h4q14 22 37 48l520 606h203l-597 -667l638 -724h-227l-537 636q-30 36 -37 49h-4v-685h-163z" />
<glyph unicode="&#x41b;" horiz-adv-x="1336" d="M16 -2v153q49 -28 109 -28t113 72t108 373.5t122 822.5h684v-1391h-163v1244h-386q-67 -526 -105.5 -743.5t-78.5 -320t-108 -152.5t-163 -50q-76 0 -132 20z" />
<glyph unicode="&#x41c;" horiz-adv-x="1783" d="M182 0v1391h216l426 -970q50 -112 65 -167h5q42 115 67 171l436 966h203v-1391h-161v933q0 111 13 271h-4q-23 -94 -42 -135l-475 -1069h-79l-475 1061q-20 47 -41 143h-4q8 -84 8 -273v-931h-158z" />
<glyph unicode="&#x41d;" horiz-adv-x="1410" d="M182 0v1391h163v-610h720v610h163v-1391h-163v634h-720v-634h-163z" />
<glyph unicode="&#x41e;" horiz-adv-x="1497" d="M91 679q0 336 181.5 535.5t493.5 199.5q288 0 464 -194t176 -507q0 -341 -180 -538.5t-483 -197.5q-296 0 -474 195t-178 507zM262 694q0 -258 133.5 -414.5t347.5 -156.5q229 0 361 149.5t132 418.5q0 275 -128 425.5t-353 150.5q-220 0 -356.5 -158t-136.5 -415z" />
<glyph unicode="&#x41f;" horiz-adv-x="1416" d="M182 0v1391h1056v-1391h-165v1240h-727v-1240h-164z" />
<glyph unicode="&#x420;" horiz-adv-x="1112" d="M182 0v1391h383q223 0 345.5 -108.5t122.5 -306.5t-136.5 -324t-367.5 -126h-184v-526h-163zM345 673h171q169 0 257.5 77t88.5 218q0 276 -326 276h-191v-571z" />
<glyph unicode="&#x421;" horiz-adv-x="1229" d="M91 669q0 334 201 539.5t509 205.5q198 0 328 -57v-174q-149 84 -330 84q-239 0 -388 -160t-149 -428q0 -254 139 -405t365 -151q210 0 363 93v-158q-154 -81 -384 -81q-297 0 -475.5 191t-178.5 501z" />
<glyph unicode="&#x422;" horiz-adv-x="1040" d="M40 1244v147h965v-147h-402v-1244h-163v1244h-400z" />
<glyph unicode="&#x423;" horiz-adv-x="1127" d="M58 1391h185l334 -743q9 -18 36 -90h2q3 8 40 94l309 739h175l-430 -971q-114 -258 -221 -351t-233 -93q-104 0 -174 30v165q84 -50 161 -50q79 0 145 60.5t143 214.5z" />
<glyph unicode="&#x424;" horiz-adv-x="1443" d="M91 731q0 222 151.5 373t387.5 151h24v175h151v-175h23q239 0 389 -149t150 -375q0 -229 -152 -389t-385 -160h-25v-182h-151v182h-26q-233 0 -385 159t-152 390zM262 729q0 -184 100 -293.5t266 -109.5h26v792h-24q-165 0 -266.5 -108.5t-101.5 -280.5zM805 326h25 q166 0 266 110t100 293q0 175 -100 282t-268 107h-23v-792z" />
<glyph unicode="&#x425;" horiz-adv-x="1171" d="M25 0l466 699l-429 692h200l284 -489q28 -48 50 -97h3q31 64 55 101l296 485h187l-438 -690l444 -701h-199l-320 533q-15 24 -32 68h-4q-10 -22 -33 -68l-330 -533h-200z" />
<glyph unicode="&#x426;" horiz-adv-x="1474" d="M182 0v1391h163v-1244h720v1244h163v-1244h186v-520h-150v373h-1082z" />
<glyph unicode="&#x427;" horiz-adv-x="1313" d="M161 868v523h163v-515q0 -224 239 -224q172 0 392 107v632h163v-1391h-163v626q-222 -118 -413 -118q-182 0 -281.5 94.5t-99.5 265.5z" />
<glyph unicode="&#x428;" horiz-adv-x="1885" d="M182 0v1391h163v-1244h515v1244h162v-1244h515v1244h163v-1391h-1518z" />
<glyph unicode="&#x429;" horiz-adv-x="1946" d="M182 0v1391h163v-1244h515v1244h163v-1244h514v1244h163v-1244h188v-520h-151v373h-1555z" />
<glyph unicode="&#x42a;" horiz-adv-x="1401" d="M40 1242v149h563v-590h265q207 0 322.5 -100t115.5 -286q0 -192 -121.5 -303.5t-330.5 -111.5h-414v1242h-400zM603 147h229q145 0 224 68.5t79 189.5q0 249 -303 249h-229v-507z" />
<glyph unicode="&#x42b;" horiz-adv-x="1555" d="M182 0v1391h163v-590h264q208 0 323.5 -100.5t115.5 -285.5q0 -192 -121.5 -303.5t-330.5 -111.5h-414zM345 147h229q145 0 223.5 68t78.5 190q0 249 -302 249h-229v-507zM1210 0v1391h163v-1391h-163z" />
<glyph unicode="&#x42c;" horiz-adv-x="1144" d="M182 0v1391h163v-590h264q208 0 323.5 -100.5t115.5 -285.5q0 -192 -121.5 -303.5t-330.5 -111.5h-414zM345 147h229q145 0 223.5 68t78.5 190q0 249 -302 249h-229v-507z" />
<glyph unicode="&#x42d;" horiz-adv-x="1224" d="M101 58v158q152 -93 370 -93q208 0 340.5 131.5t147.5 365.5h-616v146h614q-25 238 -156.5 369.5t-341.5 131.5q-197 0 -358 -84v171q149 60 358 60q300 0 487 -201t187 -538q0 -309 -180 -503.5t-474 -194.5q-224 0 -378 81z" />
<glyph unicode="&#x42e;" horiz-adv-x="2023" d="M182 0v1391h163v-595h330q29 291 199 454.5t441 163.5q281 0 448 -191.5t167 -509.5q0 -344 -171.5 -540t-467.5 -196q-277 0 -445.5 184t-176.5 489h-324v-650h-163zM840 699q0 -274 118.5 -425t332.5 -151q223 0 346 148.5t123 419.5q0 279 -118 427.5t-332 148.5 q-221 0 -345.5 -151.5t-124.5 -416.5z" />
<glyph unicode="&#x42f;" horiz-adv-x="1173" d="M59 0l212 465q20 45 62 96t99 72v4q-139 30 -216 127t-77 235q0 178 123.5 285t324.5 107h403v-1391h-163v592h-202q-59 0 -103 -31.5t-94 -141.5l-175 -419h-194zM311 995q0 -118 78 -187t209 -69h229v505h-226q-137 0 -213.5 -65t-76.5 -184z" />
<glyph unicode="&#x430;" horiz-adv-x="1010" d="M87 264q0 278 328 324l298 42q0 253 -205 253q-179 0 -324 -123v163q147 94 338 94q350 0 350 -371v-646h-159v155h-4q-104 -178 -305 -178q-149 0 -233 78.5t-84 208.5zM250 275q0 -72 52 -118t138 -46q119 0 196 82.5t77 210.5v98l-240 -33q-110 -15 -166.5 -54.5 t-56.5 -139.5z" />
<glyph unicode="&#x431;" horiz-adv-x="1150" d="M115 603q0 235 45 398.5t124 246t175.5 113.5t331.5 73q93 21 138 48v-149q-40 -29 -128 -44q-218 -33 -305 -63.5t-142.5 -130.5t-71.5 -292h4q117 169 332 169q197 0 317 -135t120 -356q0 -228 -125.5 -366t-337.5 -138q-229 0 -353 162.5t-124 463.5zM280 508 q1 -77 23.5 -152t64 -132t98.5 -85t130 -28q132 0 214 99t82 255q0 170 -83.5 270.5t-226.5 100.5q-200 0 -302 -190v-138z" />
<glyph unicode="&#x432;" horiz-adv-x="1052" d="M161 0v993h433q146 0 231 -65t85 -177q0 -193 -190 -235q228 -29 228 -230q0 -121 -94 -203.5t-232 -82.5h-461zM320 136h276q193 0 193 156q0 150 -217 150h-252v-306zM320 578h239q192 0 192 150q0 129 -173 129h-258v-279z" />
<glyph unicode="&#x433;" horiz-adv-x="760" d="M161 0v993h552v-136h-393v-857h-159z" />
<glyph unicode="&#x434;" horiz-adv-x="1086" d="M17 135h89q254 366 258 858h516v-858h147v-497h-135v362h-739v-362h-136v497zM275 135h446v723h-220q-27 -401 -226 -723z" />
<glyph unicode="&#x435;" horiz-adv-x="1038" d="M93 493q0 232 131.5 378t326.5 146t301.5 -126.5t106.5 -350.5v-83h-701q4 -166 89.5 -256t234.5 -90q168 0 308 110v-149q-130 -95 -346 -95q-210 0 -330.5 135t-120.5 381zM260 592h536q-1 137 -66.5 214t-181.5 77q-112 0 -191 -80.5t-97 -210.5z" />
<glyph unicode="&#x436;" horiz-adv-x="1482" d="M4 0l493 512l-463 481h203l425 -464h3v464h152v-464h4l424 464h205l-464 -481l494 -512h-215l-444 491h-4v-491h-152v491h-3l-446 -491h-212z" />
<glyph unicode="&#x437;" horiz-adv-x="885" d="M78 28v156q130 -72 303 -72q263 0 263 166q0 165 -288 165h-98v135h93q253 0 253 157q0 67 -58 107t-159 40q-145 0 -290 -73v148q165 61 303 61q362 0 362 -267q0 -87 -53.5 -149.5t-150.5 -82.5v-5q110 -9 177 -75t67 -166q0 -136 -109.5 -216.5t-301.5 -80.5 q-205 0 -313 52z" />
<glyph unicode="&#x438;" horiz-adv-x="1154" d="M161 0v993h146v-783q11 29 50 97l471 686h165v-993h-143v792q-22 -41 -65 -117l-459 -675h-165z" />
<glyph unicode="&#x439;" horiz-adv-x="1154" d="M161 0v993h146v-783q11 29 50 97l471 686h165v-993h-143v792q-22 -41 -65 -117l-459 -675h-165zM244 1476h158q13 -182 186 -182q77 0 127.5 48t62.5 134h157q-14 -136 -110 -215.5t-239 -79.5q-148 0 -240.5 79.5t-101.5 215.5z" />
<glyph unicode="&#x43a;" horiz-adv-x="987" d="M161 0v993h159v-455h4l417 455h209l-461 -479l497 -514h-224l-438 477h-4v-477h-159z" />
<glyph unicode="&#x43b;" horiz-adv-x="1046" d="M16 0v137q33 -18 73 -18q214 0 275 874h522v-993h-158v858h-231q-40 -482 -136.5 -677t-259.5 -195q-50 0 -85 14z" />
<glyph unicode="&#x43c;" horiz-adv-x="1394" d="M161 0v993h203l262 -648q28 -70 71 -196l71 192l254 652h212v-993h-157v819q-22 -62 -66 -183l-249 -636h-142l-256 636q-21 52 -66 183v-819h-137z" />
<glyph unicode="&#x43d;" horiz-adv-x="1146" d="M161 0v993h159v-407h506v407h160v-993h-160v451h-506v-451h-159z" />
<glyph unicode="&#x43e;" horiz-adv-x="1164" d="M93 485q0 250 137 391t369 141q223 0 347.5 -137t124.5 -379q0 -238 -134.5 -381t-360.5 -143q-220 0 -351.5 139t-131.5 369zM256 491q0 -177 90 -278.5t242 -101.5q154 0 237 99.5t83 284.5q0 186 -83 287t-237 101q-153 0 -242.5 -104.5t-89.5 -287.5z" />
<glyph unicode="&#x43f;" horiz-adv-x="1146" d="M161 0v993h825v-993h-160v857h-506v-857h-159z" />
<glyph unicode="&#x440;" horiz-adv-x="1167" d="M161 -457v1450h159v-174h4q117 198 343 198q192 0 300 -133.5t108 -357.5q0 -250 -121.5 -399.5t-331.5 -149.5q-193 0 -298 167h-4v-601h-159zM320 405q0 -123 80 -208.5t203 -85.5q145 0 227 110.5t82 307.5q0 166 -76.5 260t-207.5 94q-139 0 -223.5 -96.5 t-84.5 -242.5v-139z" />
<glyph unicode="&#x441;" horiz-adv-x="917" d="M93 473q0 246 140.5 395t375.5 149q131 0 231 -49v-163q-111 78 -237 78q-152 0 -249.5 -109.5t-97.5 -286.5q0 -175 91.5 -275.5t246.5 -100.5q130 0 244 86v-151q-114 -69 -272 -69q-212 0 -342.5 138t-130.5 358z" />
<glyph unicode="&#x442;" horiz-adv-x="814" d="M29 857v136h756v-136h-298v-857h-159v857h-299z" />
<glyph unicode="&#x443;" horiz-adv-x="961" d="M14 993h176l269 -764q5 -15 20 -76h6q5 24 19 74l283 766h165l-457 -1152q-123 -309 -344 -309q-62 0 -103 13v143q51 -18 94 -18q120 0 180 144l80 188z" />
<glyph unicode="&#x444;" horiz-adv-x="1362" d="M93 485q0 242 135.5 387t357.5 145h23v397h144v-397h21q224 0 359.5 -144.5t135.5 -387.5q0 -227 -133 -367.5t-349 -140.5h-34v-445h-144v445h-31q-217 0 -351 140.5t-134 367.5zM256 491q0 -174 90.5 -277t243.5 -103h19v772h-23q-150 0 -240 -104.5t-90 -287.5z M753 111h21q151 0 241.5 102t90.5 278q0 184 -89 288t-238 104h-26v-772z" />
<glyph unicode="&#x445;" horiz-adv-x="911" d="M25 0l339 487l-324 506h185l192 -339q21 -38 42 -78h4l248 417h176l-334 -502l328 -491h-186l-194 322q-19 30 -44 76h-4q-5 -9 -46 -76l-198 -322h-184z" />
<glyph unicode="&#x446;" horiz-adv-x="1192" d="M161 0v993h159v-858h506v858h160v-858h146v-497h-137v362h-834z" />
<glyph unicode="&#x447;" horiz-adv-x="1122" d="M147 658v335h160v-328q0 -218 188 -218q143 0 308 84v462h158v-993h-158v400q-174 -95 -322 -95q-334 0 -334 353z" />
<glyph unicode="&#x448;" horiz-adv-x="1588" d="M161 0v993h159v-857h396v857h158v-857h395v857h159v-993h-1267z" />
<glyph unicode="&#x449;" horiz-adv-x="1637" d="M161 0v993h159v-858h395v858h159v-858h396v858h159v-858h148v-497h-138v362h-1278z" />
<glyph unicode="&#x44a;" horiz-adv-x="1173" d="M29 857v136h462v-381h268q152 0 241.5 -79t89.5 -223q0 -143 -90 -226.5t-228 -83.5h-440v857h-303zM491 136h238q198 0 198 174q0 165 -199 165h-237v-339z" />
<glyph unicode="&#x44b;" horiz-adv-x="1409" d="M161 0v993h159v-381h268q152 0 242 -79.5t90 -222.5t-90.5 -226.5t-228.5 -83.5h-440zM320 136h239q198 0 198 174q0 165 -200 165h-237v-339zM1090 0v993h157v-993h-157z" />
<glyph unicode="&#x44c;" horiz-adv-x="1001" d="M161 0v993h159v-381h268q152 0 242 -79.5t90 -222.5t-90.5 -226.5t-228.5 -83.5h-440zM320 136h239q198 0 198 174q0 165 -200 165h-237v-339z" />
<glyph unicode="&#x44d;" horiz-adv-x="917" d="M87 44v150q113 -83 258 -83q141 0 228 86.5t94 235.5h-423v135h423q-11 148 -97.5 231.5t-229.5 83.5q-139 0 -241 -76v157q103 53 242 53q237 0 364 -138.5t127 -389.5q0 -234 -130.5 -373t-350.5 -139q-152 0 -264 67z" />
<glyph unicode="&#x44e;" horiz-adv-x="1615" d="M161 0v993h159v-407h283q26 204 150.5 317.5t319.5 113.5q212 0 329 -134t117 -382q0 -242 -125 -383t-344 -141q-207 0 -323 124.5t-126 349.5h-281v-451h-159zM762 495q0 -384 301 -384q294 0 294 384q0 388 -298 388q-297 0 -297 -388z" />
<glyph unicode="&#x44f;" horiz-adv-x="999" d="M60 0l167 307q58 106 141 140q-117 16 -178 85.5t-61 174.5q0 132 95.5 209t268.5 77h347v-993h-159v411h-133q-96 0 -175 -155l-129 -256h-184zM292 705q0 -161 195 -161h194v313h-188q-201 0 -201 -152z" />
<glyph unicode="&#x451;" horiz-adv-x="1038" d="M93 493q0 232 131.5 378t326.5 146t301.5 -126.5t106.5 -350.5v-83h-701q4 -166 89.5 -256t234.5 -90q168 0 308 110v-149q-130 -95 -346 -95q-210 0 -330.5 135t-120.5 381zM260 592h536q-1 137 -66.5 214t-181.5 77q-112 0 -191 -80.5t-97 -210.5zM244 1277 q0 41 28 68.5t67 27.5q40 0 69 -28t29 -68q0 -39 -28 -67.5t-67 -28.5q-41 0 -69.5 29t-28.5 67zM620 1277q0 41 27 68.5t66 27.5q40 0 68.5 -28t28.5 -68q0 -39 -27.5 -67.5t-67.5 -28.5q-39 0 -67 27.5t-28 68.5z" />
<glyph unicode="&#x1e00;" horiz-adv-x="1281" d="M21 0l534 1391h169l535 -1391h-180l-148 390h-590l-138 -390h-182zM396 536h482l-218 593q-11 29 -22 93h-4q-9 -59 -22 -93zM442 -308q0 87 57 139.5t145 52.5q87 0 142 -52.5t55 -133.5q0 -82 -59 -136t-145 -54q-84 0 -139.5 51t-55.5 133zM529 -304q0 -109 108 -109 q49 0 81 31t32 78t-32 78.5t-81 31.5q-46 0 -77 -32t-31 -78z" />
<glyph unicode="&#x1e01;" horiz-adv-x="1010" d="M87 264q0 278 328 324l298 42q0 253 -205 253q-179 0 -324 -123v163q147 94 338 94q350 0 350 -371v-646h-159v155h-4q-104 -178 -305 -178q-149 0 -233 78.5t-84 208.5zM250 275q0 -72 52 -118t138 -46q119 0 196 82.5t77 210.5v98l-240 -33q-110 -15 -166.5 -54.5 t-56.5 -139.5zM306 -308q0 87 57 139.5t145 52.5q87 0 142 -52.5t55 -133.5q0 -82 -59 -136t-145 -54q-84 0 -139.5 51t-55.5 133zM393 -304q0 -109 108 -109q49 0 81 31t32 78t-32 78.5t-81 31.5q-46 0 -77 -32t-31 -78z" />
<glyph unicode="&#x1e02;" horiz-adv-x="1138" d="M182 0v1391h396q181 0 286.5 -88.5t105.5 -229.5q0 -119 -64 -206t-177 -124v-4q141 -16 225.5 -106t84.5 -233q0 -179 -128 -289.5t-323 -110.5h-406zM345 147h221q144 0 223 68t79 187q0 246 -335 246h-188v-501zM345 794h167q134 0 210.5 64.5t76.5 182.5 q0 203 -266 203h-188v-450zM422 1616q0 39 28 66.5t68 27.5t67.5 -27t27.5 -67q0 -39 -27.5 -67.5t-67.5 -28.5q-39 0 -67.5 28t-28.5 68z" />
<glyph unicode="&#x1e03;" horiz-adv-x="1167" d="M161 0v1471h159v-652h4q117 198 343 198q191 0 299.5 -133.5t108.5 -357.5q0 -250 -121.5 -399.5t-331.5 -149.5q-197 0 -298 167h-4v-144h-159zM320 405q0 -123 80 -208.5t203 -85.5q145 0 227 110.5t82 307.5q0 166 -76.5 260t-207.5 94q-139 0 -223.5 -96.5 t-84.5 -242.5v-139zM488 1277q0 39 28 66.5t68 27.5t67.5 -27t27.5 -67q0 -39 -27.5 -67.5t-67.5 -28.5q-39 0 -67.5 28t-28.5 68z" />
<glyph unicode="&#x1e04;" horiz-adv-x="1138" d="M182 0v1391h396q181 0 286.5 -88.5t105.5 -229.5q0 -119 -64 -206t-177 -124v-4q141 -16 225.5 -106t84.5 -233q0 -179 -128 -289.5t-323 -110.5h-406zM345 147h221q144 0 223 68t79 187q0 246 -335 246h-188v-501zM345 794h167q134 0 210.5 64.5t76.5 182.5 q0 203 -266 203h-188v-450zM453 -209q0 40 29 67t67 27q40 0 68 -27t28 -67q0 -39 -28 -67.5t-68 -28.5t-68 28.5t-28 67.5z" />
<glyph unicode="&#x1e05;" horiz-adv-x="1167" d="M161 0v1471h159v-652h4q117 198 343 198q191 0 299.5 -133.5t108.5 -357.5q0 -250 -121.5 -399.5t-331.5 -149.5q-197 0 -298 167h-4v-144h-159zM320 405q0 -123 80 -208.5t203 -85.5q145 0 227 110.5t82 307.5q0 166 -76.5 260t-207.5 94q-139 0 -223.5 -96.5 t-84.5 -242.5v-139zM509 -209q0 40 29 67t67 27q40 0 68 -27t28 -67q0 -39 -28 -67.5t-68 -28.5t-68 28.5t-28 67.5z" />
<glyph unicode="&#x1e06;" horiz-adv-x="1138" d="M182 0v1391h396q181 0 286.5 -88.5t105.5 -229.5q0 -119 -64 -206t-177 -124v-4q141 -16 225.5 -106t84.5 -233q0 -179 -128 -289.5t-323 -110.5h-406zM345 147h221q144 0 223 68t79 187q0 246 -335 246h-188v-501zM345 794h167q134 0 210.5 64.5t76.5 182.5 q0 203 -266 203h-188v-450zM335 -220v106h493v-106h-493z" />
<glyph unicode="&#x1e07;" horiz-adv-x="1167" d="M161 0v1471h159v-652h4q117 198 343 198q191 0 299.5 -133.5t108.5 -357.5q0 -250 -121.5 -399.5t-331.5 -149.5q-197 0 -298 167h-4v-144h-159zM320 405q0 -123 80 -208.5t203 -85.5q145 0 227 110.5t82 307.5q0 166 -76.5 260t-207.5 94q-139 0 -223.5 -96.5 t-84.5 -242.5v-139zM369 -220v106h493v-106h-493z" />
<glyph unicode="&#x1e08;" horiz-adv-x="1229" d="M91 669q0 334 201 539.5t509 205.5q198 0 328 -57v-174q-149 84 -330 84q-239 0 -388 -160t-149 -428q0 -254 139 -405t365 -151q210 0 363 93v-158q-154 -81 -384 -81q-297 0 -475.5 191t-178.5 501zM601 -330q42 -6 68 -6q137 0 137 88q0 75 -125 75q-10 0 -40 -4v177 h105v-101q85 0 135 -38.5t50 -108.5q0 -171 -266 -171q-37 0 -64 2v87zM617 1520l216 319h161l-254 -319h-123z" />
<glyph unicode="&#x1e09;" horiz-adv-x="917" d="M93 473q0 246 140.5 395t375.5 149q131 0 231 -49v-163q-111 78 -237 78q-152 0 -249.5 -109.5t-97.5 -286.5q0 -175 91.5 -275.5t246.5 -100.5q130 0 244 86v-151q-114 -69 -272 -69q-212 0 -342.5 138t-130.5 358zM424 -330q42 -6 68 -6q137 0 137 88q0 75 -125 75 q-10 0 -40 -4v177h105v-101q85 0 135 -38.5t50 -108.5q0 -171 -266 -171q-37 0 -64 2v87zM425 1181l216 319h161l-254 -319h-123z" />
<glyph unicode="&#x1e0a;" horiz-adv-x="1392" d="M182 0v1391h384q736 0 736 -678q0 -322 -204.5 -517.5t-546.5 -195.5h-369zM345 147h208q273 0 425.5 146.5t152.5 415.5q0 535 -568 535h-218v-1097zM557 1616q0 39 28 66.5t68 27.5t67.5 -27t27.5 -67q0 -39 -27.5 -67.5t-67.5 -28.5q-39 0 -67.5 28t-28.5 68z" />
<glyph unicode="&#x1e0b;" horiz-adv-x="1169" d="M93 473q0 247 124 395.5t331 148.5q205 0 298 -161h4v615h159v-1471h-159v169h-4q-111 -192 -342 -192q-187 0 -299 133t-112 363zM256 481q0 -172 80 -271t215 -99q133 0 216 96t83 242v147q0 120 -79.5 203.5t-202.5 83.5q-145 0 -228.5 -107t-83.5 -295zM450 1277 q0 39 28 66.5t68 27.5t67.5 -27t27.5 -67q0 -39 -27.5 -67.5t-67.5 -28.5q-39 0 -67.5 28t-28.5 68z" />
<glyph unicode="&#x1e0c;" horiz-adv-x="1392" d="M182 0v1391h384q736 0 736 -678q0 -322 -204.5 -517.5t-546.5 -195.5h-369zM345 147h208q273 0 425.5 146.5t152.5 415.5q0 535 -568 535h-218v-1097zM565 -209q0 40 29 67t67 27q40 0 68 -27t28 -67q0 -39 -28 -67.5t-68 -28.5t-68 28.5t-28 67.5z" />
<glyph unicode="&#x1e0d;" horiz-adv-x="1169" d="M93 473q0 247 124 395.5t331 148.5q205 0 298 -161h4v615h159v-1471h-159v169h-4q-111 -192 -342 -192q-187 0 -299 133t-112 363zM256 481q0 -172 80 -271t215 -99q133 0 216 96t83 242v147q0 120 -79.5 203.5t-202.5 83.5q-145 0 -228.5 -107t-83.5 -295zM485 -209 q0 40 29 67t67 27q40 0 68 -27t28 -67q0 -39 -28 -67.5t-68 -28.5t-68 28.5t-28 67.5z" />
<glyph unicode="&#x1e0e;" horiz-adv-x="1392" d="M182 0v1391h384q736 0 736 -678q0 -322 -204.5 -517.5t-546.5 -195.5h-369zM345 147h208q273 0 425.5 146.5t152.5 415.5q0 535 -568 535h-218v-1097zM376 -220v106h493v-106h-493z" />
<glyph unicode="&#x1e0f;" horiz-adv-x="1169" d="M93 473q0 247 124 395.5t331 148.5q205 0 298 -161h4v615h159v-1471h-159v169h-4q-111 -192 -342 -192q-187 0 -299 133t-112 363zM256 481q0 -172 80 -271t215 -99q133 0 216 96t83 242v147q0 120 -79.5 203.5t-202.5 83.5q-145 0 -228.5 -107t-83.5 -295zM335 -220v106 h493v-106h-493z" />
<glyph unicode="&#x1e10;" horiz-adv-x="1392" d="M182 0v1391h384q736 0 736 -678q0 -322 -204.5 -517.5t-546.5 -195.5h-369zM345 147h208q273 0 425.5 146.5t152.5 415.5q0 535 -568 535h-218v-1097zM532 -368l114 253h167l-161 -253h-120z" />
<glyph unicode="&#x1e11;" horiz-adv-x="1169" d="M93 473q0 247 124 395.5t331 148.5q205 0 298 -161h4v615h159v-1471h-159v169h-4q-111 -192 -342 -192q-187 0 -299 133t-112 363zM256 481q0 -172 80 -271t215 -99q133 0 216 96t83 242v147q0 120 -79.5 203.5t-202.5 83.5q-145 0 -228.5 -107t-83.5 -295zM426 -368 l114 253h167l-161 -253h-120z" />
<glyph unicode="&#x1e12;" horiz-adv-x="1392" d="M182 0v1391h384q736 0 736 -678q0 -322 -204.5 -517.5t-546.5 -195.5h-369zM345 147h208q273 0 425.5 146.5t152.5 415.5q0 535 -568 535h-218v-1097zM398 -438l209 323h129l209 -323h-118l-159 224l-160 -224h-110z" />
<glyph unicode="&#x1e13;" horiz-adv-x="1169" d="M93 473q0 247 124 395.5t331 148.5q205 0 298 -161h4v615h159v-1471h-159v169h-4q-111 -192 -342 -192q-187 0 -299 133t-112 363zM256 481q0 -172 80 -271t215 -99q133 0 216 96t83 242v147q0 120 -79.5 203.5t-202.5 83.5q-145 0 -228.5 -107t-83.5 -295zM306 -437 l209 323h129l209 -323h-118l-159 224l-160 -224h-110z" />
<glyph unicode="&#x1e14;" horiz-adv-x="1004" d="M182 0v1391h707v-147h-544v-463h503v-147h-503v-487h575v-147h-738zM289 1519v107h493v-107h-493zM305 1939h163l174 -239h-123z" />
<glyph unicode="&#x1e15;" horiz-adv-x="1038" d="M93 493q0 232 131.5 378t326.5 146t301.5 -126.5t106.5 -350.5v-83h-701q4 -166 89.5 -256t234.5 -90q168 0 308 110v-149q-130 -95 -346 -95q-210 0 -330.5 135t-120.5 381zM260 592h536q-1 137 -66.5 214t-181.5 77q-112 0 -191 -80.5t-97 -210.5zM281 1181v106h493 v-106h-493zM297 1600h163l174 -237h-123z" />
<glyph unicode="&#x1e16;" horiz-adv-x="1004" d="M182 0v1391h707v-147h-544v-463h503v-147h-503v-487h575v-147h-738zM305 1519v107h493v-107h-493zM444 1700l174 239h163l-214 -239h-123z" />
<glyph unicode="&#x1e17;" horiz-adv-x="1038" d="M93 493q0 232 131.5 378t326.5 146t301.5 -126.5t106.5 -350.5v-83h-701q4 -166 89.5 -256t234.5 -90q168 0 308 110v-149q-130 -95 -346 -95q-210 0 -330.5 135t-120.5 381zM260 592h536q-1 137 -66.5 214t-181.5 77q-112 0 -191 -80.5t-97 -210.5zM281 1181v106h493 v-106h-493zM420 1363l174 237h163l-214 -237h-123z" />
<glyph unicode="&#x1e18;" horiz-adv-x="1004" d="M182 0v1391h707v-147h-544v-463h503v-147h-503v-487h575v-147h-738zM299 -439l209 323h129l209 -323h-118l-159 224l-160 -224h-110z" />
<glyph unicode="&#x1e19;" horiz-adv-x="1038" d="M93 493q0 232 131.5 378t326.5 146t301.5 -126.5t106.5 -350.5v-83h-701q4 -166 89.5 -256t234.5 -90q168 0 308 110v-149q-130 -95 -346 -95q-210 0 -330.5 135t-120.5 381zM260 592h536q-1 137 -66.5 214t-181.5 77q-112 0 -191 -80.5t-97 -210.5zM300 -438l209 323 h129l209 -323h-118l-159 224l-160 -224h-110z" />
<glyph unicode="&#x1e1a;" horiz-adv-x="1004" d="M182 0v1391h707v-147h-544v-463h503v-147h-503v-487h575v-147h-738zM237 -347q0 104 46.5 166.5t129.5 62.5q64 0 145 -51q72 -42 124 -42q82 0 82 112h95q0 -102 -46.5 -166.5t-126.5 -64.5q-69 0 -157 51q-75 42 -116 42q-85 0 -85 -110h-91z" />
<glyph unicode="&#x1e1b;" horiz-adv-x="1038" d="M93 493q0 232 131.5 378t326.5 146t301.5 -126.5t106.5 -350.5v-83h-701q4 -166 89.5 -256t234.5 -90q168 0 308 110v-149q-130 -95 -346 -95q-210 0 -330.5 135t-120.5 381zM260 592h536q-1 137 -66.5 214t-181.5 77q-112 0 -191 -80.5t-97 -210.5zM252 -348 q0 104 46.5 166.5t129.5 62.5q64 0 145 -51q72 -42 124 -42q82 0 82 112h95q0 -102 -46.5 -166.5t-126.5 -64.5q-69 0 -157 51q-75 42 -116 42q-85 0 -85 -110h-91z" />
<glyph unicode="&#x1e1c;" horiz-adv-x="1004" d="M182 0v1391h707v-147h-544v-463h503v-147h-503v-487h575v-147h-738zM431 -330q42 -6 68 -6q137 0 137 88q0 75 -125 75q-10 0 -40 -4v177h105v-101q85 0 135 -38.5t50 -108.5q0 -171 -266 -171q-37 0 -64 2v87zM265 1766h97q12 -150 167 -150q66 0 113 40.5t56 109.5h99 q-9 -110 -85.5 -177.5t-184.5 -67.5q-114 0 -185.5 67t-76.5 178z" />
<glyph unicode="&#x1e1d;" horiz-adv-x="1038" d="M93 493q0 232 131.5 378t326.5 146t301.5 -126.5t106.5 -350.5v-83h-701q4 -166 89.5 -256t234.5 -90q168 0 308 110v-149q-130 -95 -346 -95q-210 0 -330.5 135t-120.5 381zM260 592h536q-1 137 -66.5 214t-181.5 77q-112 0 -191 -80.5t-97 -210.5zM419 -330 q42 -6 68 -6q137 0 137 88q0 75 -125 75q-10 0 -40 -4v177h105v-101q85 0 135 -38.5t50 -108.5q0 -171 -266 -171q-37 0 -64 2v87zM258 1426h97q12 -150 167 -150q66 0 113 40.5t56 109.5h99q-9 -110 -85.5 -177.5t-184.5 -67.5q-114 0 -185.5 67t-76.5 178z" />
<glyph unicode="&#x1e1e;" horiz-adv-x="970" d="M182 0v1391h707v-147h-544v-482h503v-146h-503v-616h-163zM425 1616q0 39 28 66.5t68 27.5t67.5 -27t27.5 -67q0 -39 -27.5 -67.5t-67.5 -28.5q-39 0 -67.5 28t-28.5 68z" />
<glyph unicode="&#x1e1f;" horiz-adv-x="621" d="M51 857v136h170v161q0 156 90.5 247t224.5 91q73 0 116 -18v-143q-47 26 -106 26q-167 0 -167 -210v-154h233v-136h-233v-857h-158v857h-170zM108 1616q0 39 28 66.5t68 27.5t67.5 -27t27.5 -67q0 -39 -27.5 -67.5t-67.5 -28.5q-39 0 -67.5 28t-28.5 68z" />
<glyph unicode="&#x1e20;" horiz-adv-x="1362" d="M91 677q0 323 204.5 530t517.5 207q227 0 381 -73v-181q-169 107 -400 107q-233 0 -382.5 -161t-149.5 -417q0 -264 138.5 -415t376.5 -151q163 0 282 65v390h-304v148h467v-631q-209 -118 -465 -118q-298 0 -482 192t-184 508zM520 1520v106h493v-106h-493z" />
<glyph unicode="&#x1e21;" horiz-adv-x="1169" d="M93 465q0 253 122 402.5t333 149.5q201 0 298 -161h4v137h159v-913q0 -548 -524 -548q-184 0 -322 70v159q168 -93 320 -93q367 0 367 390v109h-4q-114 -190 -342 -190q-185 0 -298 132.5t-113 355.5zM256 475q0 -166 80 -265t212 -99q134 0 218 95t84 243v147 q0 118 -80 202.5t-200 84.5q-147 0 -230.5 -107.5t-83.5 -300.5zM331 1181v106h493v-106h-493z" />
<glyph unicode="&#x1e22;" horiz-adv-x="1410" d="M182 0v1391h163v-610h720v610h163v-1391h-163v634h-720v-634h-163zM603 1616q0 39 28 66.5t68 27.5t67.5 -27t27.5 -67q0 -39 -27.5 -67.5t-67.5 -28.5q-39 0 -67.5 28t-28.5 68z" />
<glyph unicode="&#x1e23;" d="M161 0v1471h159v-643h4q114 189 326 189q336 0 336 -405v-612h-160v572q0 311 -230 311q-117 0 -196.5 -90t-79.5 -230v-563h-159zM489 1277q0 39 28 66.5t68 27.5t67.5 -27t27.5 -67q0 -39 -27.5 -67.5t-67.5 -28.5q-39 0 -67.5 28t-28.5 68z" />
<glyph unicode="&#x1e24;" horiz-adv-x="1410" d="M182 0v1391h163v-610h720v610h163v-1391h-163v634h-720v-634h-163zM622 -209q0 40 29 67t67 27q40 0 68 -27t28 -67q0 -39 -28 -67.5t-68 -28.5t-68 28.5t-28 67.5z" />
<glyph unicode="&#x1e25;" d="M161 0v1471h159v-643h4q114 189 326 189q336 0 336 -405v-612h-160v572q0 311 -230 311q-117 0 -196.5 -90t-79.5 -230v-563h-159zM459 -209q0 40 29 67t67 27q40 0 68 -27t28 -67q0 -39 -28 -67.5t-68 -28.5t-68 28.5t-28 67.5z" />
<glyph unicode="&#x1e26;" horiz-adv-x="1410" d="M182 0v1391h163v-610h720v610h163v-1391h-163v634h-720v-634h-163zM424 1616q0 41 28 68.5t67 27.5q40 0 69 -28t29 -68q0 -39 -28 -67.5t-67 -28.5q-41 0 -69.5 29t-28.5 67zM800 1616q0 41 27 68.5t66 27.5q40 0 68.5 -28t28.5 -68q0 -39 -27.5 -67.5t-67.5 -28.5 q-39 0 -67 27.5t-28 68.5z" />
<glyph unicode="&#x1e27;" d="M161 0v1471h159v-643h4q114 189 326 189q336 0 336 -405v-612h-160v572q0 311 -230 311q-117 0 -196.5 -90t-79.5 -230v-563h-159zM341 1616q0 41 28 68.5t67 27.5q40 0 69 -28t29 -68q0 -39 -28 -67.5t-67 -28.5q-41 0 -69.5 29t-28.5 67zM717 1616q0 41 27 68.5 t66 27.5q40 0 68.5 -28t28.5 -68q0 -39 -27.5 -67.5t-67.5 -28.5q-39 0 -67 27.5t-28 68.5z" />
<glyph unicode="&#x1e28;" horiz-adv-x="1410" d="M182 0v1391h163v-610h720v610h163v-1391h-163v634h-720v-634h-163zM155 -330q42 -6 68 -6q137 0 137 88q0 75 -125 75q-10 0 -40 -4v177h105v-101q85 0 135 -38.5t50 -108.5q0 -171 -266 -171q-37 0 -64 2v87z" />
<glyph unicode="&#x1e29;" d="M161 0v1471h159v-643h4q114 189 326 189q336 0 336 -405v-612h-160v572q0 311 -230 311q-117 0 -196.5 -90t-79.5 -230v-563h-159zM135 -330q42 -6 68 -6q137 0 137 88q0 75 -125 75q-10 0 -40 -4v177h105v-101q85 0 135 -38.5t50 -108.5q0 -171 -266 -171q-37 0 -64 2 v87z" />
<glyph unicode="&#x1e2a;" horiz-adv-x="1410" d="M182 0v1391h163v-610h720v610h163v-1391h-163v634h-720v-634h-163zM445 -116h97q12 -150 167 -150q66 0 113 40.5t56 109.5h99q-9 -110 -85.5 -177.5t-184.5 -67.5q-114 0 -185.5 67t-76.5 178z" />
<glyph unicode="&#x1e2b;" d="M161 0v1471h159v-643h4q114 189 326 189q336 0 336 -405v-612h-160v572q0 311 -230 311q-117 0 -196.5 -90t-79.5 -230v-563h-159zM322 -116h97q12 -150 167 -150q66 0 113 40.5t56 109.5h99q-9 -110 -85.5 -177.5t-184.5 -67.5q-114 0 -185.5 67t-76.5 178z" />
<glyph unicode="&#x1e2c;" horiz-adv-x="528" d="M47 0v140h135v1111h-135v140h434v-140h-136v-1111h136v-140h-434zM-47 -345q0 104 46.5 166.5t129.5 62.5q64 0 145 -51q72 -42 124 -42q82 0 82 112h95q0 -102 -46.5 -166.5t-126.5 -64.5q-69 0 -157 51q-75 42 -116 42q-85 0 -85 -110h-91z" />
<glyph unicode="&#x1e2d;" horiz-adv-x="481" d="M140 1348q0 45 30 74.5t72 29.5q44 0 74.5 -29.5t30.5 -74.5q0 -42 -30.5 -72.5t-74.5 -30.5q-42 0 -72 29.5t-30 73.5zM161 0v993h159v-993h-159zM-69 -345q0 104 46.5 166.5t129.5 62.5q64 0 145 -51q72 -42 124 -42q82 0 82 112h95q0 -102 -46.5 -166.5t-126.5 -64.5 q-69 0 -157 51q-75 42 -116 42q-85 0 -85 -110h-91z" />
<glyph unicode="&#x1e2e;" horiz-adv-x="528" d="M47 0v140h135v1111h-135v140h434v-140h-136v-1111h136v-140h-434zM-14 1615q0 41 28.5 68.5t66.5 27.5q40 0 69 -28t29 -68t-28 -68t-67 -28q-41 0 -69.5 28.5t-28.5 67.5zM191 1702l175 239h162l-214 -239h-123zM362 1615q0 41 27 68.5t66 27.5q40 0 68.5 -28t28.5 -68 t-27.5 -68t-67.5 -28q-39 0 -67 27.5t-28 68.5z" />
<glyph unicode="&#x1e2f;" horiz-adv-x="481" d="M161 0v993h159v-993h-159zM-43 1277q0 41 28 68.5t67 27.5q40 0 69 -28t29 -68q0 -39 -28 -67.5t-67 -28.5q-41 0 -69.5 29t-28.5 67zM162 1365l175 237h162l-214 -237h-123zM333 1277q0 41 27 68.5t66 27.5q40 0 68.5 -28t28.5 -68q0 -39 -27.5 -67.5t-67.5 -28.5 q-39 0 -67 27.5t-28 68.5z" />
<glyph unicode="&#x1e30;" horiz-adv-x="1152" d="M182 0v1391h163v-654h4q14 22 37 48l520 606h203l-597 -667l638 -724h-227l-537 636q-30 36 -37 49h-4v-685h-163zM474 1518l216 319h161l-254 -319h-123z" />
<glyph unicode="&#x1e31;" horiz-adv-x="987" d="M161 0v1471h159v-933h4l417 455h209l-461 -479l497 -514h-224l-438 477h-4v-477h-159zM350 1520l216 319h161l-254 -319h-123z" />
<glyph unicode="&#x1e32;" horiz-adv-x="1152" d="M182 0v1391h163v-654h4q14 22 37 48l520 606h203l-597 -667l638 -724h-227l-537 636q-30 36 -37 49h-4v-685h-163zM523 -209q0 40 29 67t67 27q40 0 68 -27t28 -67q0 -39 -28 -67.5t-68 -28.5t-68 28.5t-28 67.5z" />
<glyph unicode="&#x1e33;" horiz-adv-x="987" d="M161 0v1471h159v-933h4l417 455h209l-461 -479l497 -514h-224l-438 477h-4v-477h-159zM429 -209q0 40 29 67t67 27q40 0 68 -27t28 -67q0 -39 -28 -67.5t-68 -28.5t-68 28.5t-28 67.5z" />
<glyph unicode="&#x1e34;" horiz-adv-x="1152" d="M182 0v1391h163v-654h4q14 22 37 48l520 606h203l-597 -667l638 -724h-227l-537 636q-30 36 -37 49h-4v-685h-163zM385 -222v106h493v-106h-493z" />
<glyph unicode="&#x1e35;" horiz-adv-x="987" d="M161 0v1471h159v-933h4l417 455h209l-461 -479l497 -514h-224l-438 477h-4v-477h-159zM308 -222v106h493v-106h-493z" />
<glyph unicode="&#x1e36;" horiz-adv-x="935" d="M182 0v1391h163v-1244h559v-147h-722zM434 -209q0 40 29 67t67 27q40 0 68 -27t28 -67q0 -39 -28 -67.5t-68 -28.5t-68 28.5t-28 67.5z" />
<glyph unicode="&#x1e37;" horiz-adv-x="481" d="M161 0v1471h159v-1471h-159zM145 -209q0 40 29 67t67 27q40 0 68 -27t28 -67q0 -39 -28 -67.5t-68 -28.5t-68 28.5t-28 67.5z" />
<glyph unicode="&#x1e38;" horiz-adv-x="935" d="M182 0v1391h163v-1244h559v-147h-722zM261 1520v106h493v-106h-493zM434 -209q0 40 29 67t67 27q40 0 68 -27t28 -67q0 -39 -28 -67.5t-68 -28.5t-68 28.5t-28 67.5z" />
<glyph unicode="&#x1e39;" horiz-adv-x="481" d="M161 0v1471h159v-1471h-159zM-6 1520v106h493v-106h-493zM144 -209q0 40 29 67t67 27q40 0 68 -27t28 -67q0 -39 -28 -67.5t-68 -28.5t-68 28.5t-28 67.5z" />
<glyph unicode="&#x1e3a;" horiz-adv-x="935" d="M182 0v1391h163v-1244h559v-147h-722zM306 -222v106h493v-106h-493z" />
<glyph unicode="&#x1e3b;" horiz-adv-x="481" d="M161 0v1471h159v-1471h-159zM-4 -222v106h493v-106h-493z" />
<glyph unicode="&#x1e3c;" horiz-adv-x="935" d="M182 0v1391h163v-1244h559v-147h-722zM270 -438l209 323h129l209 -323h-118l-159 224l-160 -224h-110z" />
<glyph unicode="&#x1e3d;" horiz-adv-x="481" d="M161 0v1471h159v-1471h-159zM-32 -437l209 323h129l209 -323h-118l-159 224l-160 -224h-110z" />
<glyph unicode="&#x1e3e;" horiz-adv-x="1783" d="M182 0v1391h216l426 -970q50 -112 65 -167h5q42 115 67 171l436 966h203v-1391h-161v933q0 111 13 271h-4q-23 -94 -42 -135l-475 -1069h-79l-475 1061q-20 47 -41 143h-4q8 -84 8 -273v-931h-158zM697 1520l216 319h161l-254 -319h-123z" />
<glyph unicode="&#x1e3f;" horiz-adv-x="1711" d="M161 0v993h159v-157h4q106 181 308 181q102 0 178 -57t104 -149q110 206 330 206q327 0 327 -405v-612h-159v570q0 165 -51 239t-171 74q-102 0 -173 -93.5t-71 -223.5v-566h-159v590q0 293 -226 293q-105 0 -173 -88t-68 -229v-566h-159zM676 1181l216 319h161 l-254 -319h-123z" />
<glyph unicode="&#x1e40;" horiz-adv-x="1783" d="M182 0v1391h216l426 -970q50 -112 65 -167h5q42 115 67 171l436 966h203v-1391h-161v933q0 111 13 271h-4q-23 -94 -42 -135l-475 -1069h-79l-475 1061q-20 47 -41 143h-4q8 -84 8 -273v-931h-158zM718 1616q0 39 28 66.5t68 27.5t67.5 -27t27.5 -67q0 -39 -27.5 -67.5 t-67.5 -28.5q-39 0 -67.5 28t-28.5 68z" />
<glyph unicode="&#x1e41;" horiz-adv-x="1711" d="M161 0v993h159v-157h4q106 181 308 181q102 0 178 -57t104 -149q110 206 330 206q327 0 327 -405v-612h-159v570q0 165 -51 239t-171 74q-102 0 -173 -93.5t-71 -223.5v-566h-159v590q0 293 -226 293q-105 0 -173 -88t-68 -229v-566h-159zM768 1277q0 39 28 66.5t68 27.5 t67.5 -27t27.5 -67q0 -39 -27.5 -67.5t-67.5 -28.5q-39 0 -67.5 28t-28.5 68z" />
<glyph unicode="&#x1e42;" horiz-adv-x="1783" d="M182 0v1391h216l426 -970q50 -112 65 -167h5q42 115 67 171l436 966h203v-1391h-161v933q0 111 13 271h-4q-23 -94 -42 -135l-475 -1069h-79l-475 1061q-20 47 -41 143h-4q8 -84 8 -273v-931h-158zM718 -209q0 40 29 67t67 27q40 0 68 -27t28 -67q0 -39 -28 -67.5 t-68 -28.5t-68 28.5t-28 67.5z" />
<glyph unicode="&#x1e43;" horiz-adv-x="1711" d="M161 0v993h159v-157h4q106 181 308 181q102 0 178 -57t104 -149q110 206 330 206q327 0 327 -405v-612h-159v570q0 165 -51 239t-171 74q-102 0 -173 -93.5t-71 -223.5v-566h-159v590q0 293 -226 293q-105 0 -173 -88t-68 -229v-566h-159zM769 -209q0 40 29 67t67 27 q40 0 68 -27t28 -67q0 -39 -28 -67.5t-68 -28.5t-68 28.5t-28 67.5z" />
<glyph unicode="&#x1e44;" horiz-adv-x="1486" d="M182 0v1391h212l696 -1091q44 -68 57 -93h3q-9 60 -9 204v980h163v-1391h-200l-716 1109q-27 41 -45 87h-5q7 -45 7 -191v-1005h-163zM639 1617q0 39 28 66.5t68 27.5t67.5 -27t27.5 -67q0 -39 -27.5 -67.5t-67.5 -28.5q-39 0 -67.5 28t-28.5 68z" />
<glyph unicode="&#x1e45;" d="M161 0v993h159v-165h4q112 189 326 189q163 0 249.5 -105.5t86.5 -304.5v-607h-160v566q0 317 -230 317q-120 0 -198 -90t-78 -227v-566h-159zM487 1277q0 39 28 66.5t68 27.5t67.5 -27t27.5 -67q0 -39 -27.5 -67.5t-67.5 -28.5q-39 0 -67.5 28t-28.5 68z" />
<glyph unicode="&#x1e46;" horiz-adv-x="1486" d="M182 0v1391h212l696 -1091q44 -68 57 -93h3q-9 60 -9 204v980h163v-1391h-200l-716 1109q-27 41 -45 87h-5q7 -45 7 -191v-1005h-163zM639 -209q0 40 29 67t67 27q40 0 68 -27t28 -67q0 -39 -28 -67.5t-68 -28.5t-68 28.5t-28 67.5z" />
<glyph unicode="&#x1e47;" d="M161 0v993h159v-165h4q112 189 326 189q163 0 249.5 -105.5t86.5 -304.5v-607h-160v566q0 317 -230 317q-120 0 -198 -90t-78 -227v-566h-159zM487 -209q0 40 29 67t67 27q40 0 68 -27t28 -67q0 -39 -28 -67.5t-68 -28.5t-68 28.5t-28 67.5z" />
<glyph unicode="&#x1e48;" horiz-adv-x="1486" d="M182 0v1391h212l696 -1091q44 -68 57 -93h3q-9 60 -9 204v980h163v-1391h-200l-716 1109q-27 41 -45 87h-5q7 -45 7 -191v-1005h-163zM494 -222v106h493v-106h-493z" />
<glyph unicode="&#x1e49;" d="M161 0v993h159v-165h4q112 189 326 189q163 0 249.5 -105.5t86.5 -304.5v-607h-160v566q0 317 -230 317q-120 0 -198 -90t-78 -227v-566h-159zM340 -222v106h493v-106h-493z" />
<glyph unicode="&#x1e4a;" horiz-adv-x="1486" d="M182 0v1391h212l696 -1091q44 -68 57 -93h3q-9 60 -9 204v980h163v-1391h-200l-716 1109q-27 41 -45 87h-5q7 -45 7 -191v-1005h-163zM478 -439l209 323h129l209 -323h-118l-159 224l-160 -224h-110z" />
<glyph unicode="&#x1e4b;" d="M161 0v993h159v-165h4q112 189 326 189q163 0 249.5 -105.5t86.5 -304.5v-607h-160v566q0 317 -230 317q-120 0 -198 -90t-78 -227v-566h-159zM308 -439l209 323h129l209 -323h-118l-159 224l-160 -224h-110z" />
<glyph unicode="&#x1e4c;" horiz-adv-x="1497" d="M91 679q0 336 181.5 535.5t493.5 199.5q288 0 464 -194t176 -507q0 -341 -180 -538.5t-483 -197.5q-296 0 -474 195t-178 507zM262 694q0 -258 133.5 -414.5t347.5 -156.5q229 0 361 149.5t132 418.5q0 275 -128 425.5t-353 150.5q-220 0 -356.5 -158t-136.5 -415z M441 1502q0 209 176 209q62 0 141 -37t128 -37q82 0 82 93h95q0 -97 -45.5 -154t-127.5 -57q-65 0 -148 36q-85 36 -125 36q-85 0 -85 -89h-91zM620 1756l175 238h163l-213 -238h-125z" />
<glyph unicode="&#x1e4d;" horiz-adv-x="1164" d="M93 485q0 250 137 391t369 141q223 0 347.5 -137t124.5 -379q0 -238 -134.5 -381t-360.5 -143q-220 0 -351.5 139t-131.5 369zM256 491q0 -177 90 -278.5t242 -101.5q154 0 237 99.5t83 284.5q0 186 -83 287t-237 101q-153 0 -242.5 -104.5t-89.5 -287.5zM270 1166 q0 208 176 208q62 0 141 -35q79 -37 128 -37q82 0 82 93h95q0 -98 -45.5 -155t-127.5 -57q-65 0 -148 36q-85 36 -125 36q-85 0 -85 -89h-91zM449 1420l175 239h163l-213 -239h-125z" />
<glyph unicode="&#x1e4e;" horiz-adv-x="1497" d="M91 679q0 336 181.5 535.5t493.5 199.5q288 0 464 -194t176 -507q0 -341 -180 -538.5t-483 -197.5q-296 0 -474 195t-178 507zM262 694q0 -258 133.5 -414.5t347.5 -156.5q229 0 361 149.5t132 418.5q0 275 -128 425.5t-353 150.5q-220 0 -356.5 -158t-136.5 -415z M439 1502q0 209 176 209q62 0 141 -37t128 -37q82 0 82 93h95q0 -97 -45.5 -154t-127.5 -57q-65 0 -148 36q-85 36 -125 36q-85 0 -85 -89h-91zM467 1893q0 41 28 68t67 27q41 0 69 -27.5t28 -67.5t-27 -67.5t-68 -27.5q-39 0 -68 27.5t-29 67.5zM841 1893q0 41 28 68t67 27 t68.5 -27.5t29.5 -67.5t-28.5 -67.5t-67.5 -27.5q-40 0 -68.5 27.5t-28.5 67.5z" />
<glyph unicode="&#x1e4f;" horiz-adv-x="1164" d="M93 485q0 250 137 391t369 141q223 0 347.5 -137t124.5 -379q0 -238 -134.5 -381t-360.5 -143q-220 0 -351.5 139t-131.5 369zM256 491q0 -177 90 -278.5t242 -101.5q154 0 237 99.5t83 284.5q0 186 -83 287t-237 101q-153 0 -242.5 -104.5t-89.5 -287.5zM276 1166 q0 208 176 208q62 0 141 -35q79 -37 128 -37q82 0 82 93h95q0 -98 -45.5 -155t-127.5 -57q-65 0 -148 36q-85 36 -125 36q-85 0 -85 -89h-91zM304 1558q0 41 28 68t67 27q41 0 69 -27.5t28 -67.5q0 -41 -27 -68t-68 -27q-39 0 -68 27t-29 68zM678 1558q0 41 28 68t67 27 t68.5 -27.5t29.5 -67.5q0 -41 -28.5 -68t-67.5 -27q-40 0 -68.5 27t-28.5 68z" />
<glyph unicode="&#x1e50;" horiz-adv-x="1497" d="M91 679q0 336 181.5 535.5t493.5 199.5q288 0 464 -194t176 -507q0 -341 -180 -538.5t-483 -197.5q-296 0 -474 195t-178 507zM262 694q0 -258 133.5 -414.5t347.5 -156.5q229 0 361 149.5t132 418.5q0 275 -128 425.5t-353 150.5q-220 0 -356.5 -158t-136.5 -415z M504 1519v107h493v-107h-493zM520 1939h163l174 -239h-123z" />
<glyph unicode="&#x1e51;" horiz-adv-x="1164" d="M93 485q0 250 137 391t369 141q223 0 347.5 -137t124.5 -379q0 -238 -134.5 -381t-360.5 -143q-220 0 -351.5 139t-131.5 369zM256 491q0 -177 90 -278.5t242 -101.5q154 0 237 99.5t83 284.5q0 186 -83 287t-237 101q-153 0 -242.5 -104.5t-89.5 -287.5zM335 1181v106 h493v-106h-493zM351 1600h163l174 -237h-123z" />
<glyph unicode="&#x1e52;" horiz-adv-x="1497" d="M91 679q0 336 181.5 535.5t493.5 199.5q288 0 464 -194t176 -507q0 -341 -180 -538.5t-483 -197.5q-296 0 -474 195t-178 507zM262 694q0 -258 133.5 -414.5t347.5 -156.5q229 0 361 149.5t132 418.5q0 275 -128 425.5t-353 150.5q-220 0 -356.5 -158t-136.5 -415z M504 1519v107h493v-107h-493zM643 1700l174 239h163l-214 -239h-123z" />
<glyph unicode="&#x1e53;" horiz-adv-x="1164" d="M93 485q0 250 137 391t369 141q223 0 347.5 -137t124.5 -379q0 -238 -134.5 -381t-360.5 -143q-220 0 -351.5 139t-131.5 369zM256 491q0 -177 90 -278.5t242 -101.5q154 0 237 99.5t83 284.5q0 186 -83 287t-237 101q-153 0 -242.5 -104.5t-89.5 -287.5zM327 1181v106 h493v-106h-493zM466 1363l174 237h163l-214 -237h-123z" />
<glyph unicode="&#x1e54;" horiz-adv-x="1112" d="M182 0v1391h383q223 0 345.5 -108.5t122.5 -306.5t-136.5 -324t-367.5 -126h-184v-526h-163zM345 673h171q169 0 257.5 77t88.5 218q0 276 -326 276h-191v-571zM350 1520l216 319h161l-254 -319h-123z" />
<glyph unicode="&#x1e55;" horiz-adv-x="1167" d="M161 -457v1450h159v-174h4q117 198 343 198q192 0 300 -133.5t108 -357.5q0 -250 -121.5 -399.5t-331.5 -149.5q-193 0 -298 167h-4v-601h-159zM320 405q0 -123 80 -208.5t203 -85.5q145 0 227 110.5t82 307.5q0 166 -76.5 260t-207.5 94q-139 0 -223.5 -96.5 t-84.5 -242.5v-139zM406 1181l216 319h161l-254 -319h-123z" />
<glyph unicode="&#x1e56;" horiz-adv-x="1112" d="M182 0v1391h383q223 0 345.5 -108.5t122.5 -306.5t-136.5 -324t-367.5 -126h-184v-526h-163zM345 673h171q169 0 257.5 77t88.5 218q0 276 -326 276h-191v-571zM443 1616q0 39 28 66.5t68 27.5t67.5 -27t27.5 -67q0 -39 -27.5 -67.5t-67.5 -28.5q-39 0 -67.5 28t-28.5 68 z" />
<glyph unicode="&#x1e57;" horiz-adv-x="1167" d="M161 -457v1450h159v-174h4q117 198 343 198q192 0 300 -133.5t108 -357.5q0 -250 -121.5 -399.5t-331.5 -149.5q-193 0 -298 167h-4v-601h-159zM320 405q0 -123 80 -208.5t203 -85.5q145 0 227 110.5t82 307.5q0 166 -76.5 260t-207.5 94q-139 0 -223.5 -96.5 t-84.5 -242.5v-139zM508 1277q0 39 28 66.5t68 27.5t67.5 -27t27.5 -67q0 -39 -27.5 -67.5t-67.5 -28.5q-39 0 -67.5 28t-28.5 68z" />
<glyph unicode="&#x1e58;" horiz-adv-x="1188" d="M182 0v1391h416q91 0 168 -23t133.5 -69.5t88.5 -115.5t32 -163q0 -72 -21.5 -133t-62 -108.5t-97 -81t-127.5 -51.5v-4q35 -15 60.5 -35t49 -47t46 -61.5t51.5 -80.5l261 -418h-194l-233 390q-32 54 -62 92.5t-61.5 62.5t-68 35.5t-82.5 11.5h-134v-592h-163zM345 739 h221q62 0 113.5 18.5t89.5 53t59.5 84.5t21.5 112q0 111 -72.5 174t-209.5 63h-223v-505zM484 1616q0 39 28 66.5t68 27.5t67.5 -27t27.5 -67q0 -39 -27.5 -67.5t-67.5 -28.5q-39 0 -67.5 28t-28.5 68z" />
<glyph unicode="&#x1e59;" horiz-adv-x="690" d="M161 0v993h159v-204h4q34 104 104 163t156 59q62 0 95 -14v-165q-42 32 -120 32q-102 0 -170.5 -96t-68.5 -262v-506h-159zM282 1277q0 39 28 66.5t68 27.5t67.5 -27t27.5 -67q0 -39 -27.5 -67.5t-67.5 -28.5q-39 0 -67.5 28t-28.5 68z" />
<glyph unicode="&#x1e5a;" horiz-adv-x="1188" d="M182 0v1391h416q91 0 168 -23t133.5 -69.5t88.5 -115.5t32 -163q0 -72 -21.5 -133t-62 -108.5t-97 -81t-127.5 -51.5v-4q35 -15 60.5 -35t49 -47t46 -61.5t51.5 -80.5l261 -418h-194l-233 390q-32 54 -62 92.5t-61.5 62.5t-68 35.5t-82.5 11.5h-134v-592h-163zM345 739 h221q62 0 113.5 18.5t89.5 53t59.5 84.5t21.5 112q0 111 -72.5 174t-209.5 63h-223v-505zM533 -209q0 40 29 67t67 27q40 0 68 -27t28 -67q0 -39 -28 -67.5t-68 -28.5t-68 28.5t-28 67.5z" />
<glyph unicode="&#x1e5b;" horiz-adv-x="690" d="M161 0v993h159v-204h4q34 104 104 163t156 59q62 0 95 -14v-165q-42 32 -120 32q-102 0 -170.5 -96t-68.5 -262v-506h-159zM322 -209q0 40 29 67t67 27q40 0 68 -27t28 -67q0 -39 -28 -67.5t-68 -28.5t-68 28.5t-28 67.5z" />
<glyph unicode="&#x1e5c;" horiz-adv-x="1188" d="M182 0v1391h416q91 0 168 -23t133.5 -69.5t88.5 -115.5t32 -163q0 -72 -21.5 -133t-62 -108.5t-97 -81t-127.5 -51.5v-4q35 -15 60.5 -35t49 -47t46 -61.5t51.5 -80.5l261 -418h-194l-233 390q-32 54 -62 92.5t-61.5 62.5t-68 35.5t-82.5 11.5h-134v-592h-163zM345 739 h221q62 0 113.5 18.5t89.5 53t59.5 84.5t21.5 112q0 111 -72.5 174t-209.5 63h-223v-505zM342 1520v106h493v-106h-493zM533 -209q0 40 29 67t67 27q40 0 68 -27t28 -67q0 -39 -28 -67.5t-68 -28.5t-68 28.5t-28 67.5z" />
<glyph unicode="&#x1e5d;" horiz-adv-x="690" d="M161 0v993h159v-204h4q34 104 104 163t156 59q62 0 95 -14v-165q-42 32 -120 32q-102 0 -170.5 -96t-68.5 -262v-506h-159zM165 1181v106h493v-106h-493zM322 -209q0 40 29 67t67 27q40 0 68 -27t28 -67q0 -39 -28 -67.5t-68 -28.5t-68 28.5t-28 67.5z" />
<glyph unicode="&#x1e5e;" horiz-adv-x="1188" d="M182 0v1391h416q91 0 168 -23t133.5 -69.5t88.5 -115.5t32 -163q0 -72 -21.5 -133t-62 -108.5t-97 -81t-127.5 -51.5v-4q35 -15 60.5 -35t49 -47t46 -61.5t51.5 -80.5l261 -418h-194l-233 390q-32 54 -62 92.5t-61.5 62.5t-68 35.5t-82.5 11.5h-134v-592h-163zM345 739 h221q62 0 113.5 18.5t89.5 53t59.5 84.5t21.5 112q0 111 -72.5 174t-209.5 63h-223v-505zM398 -223v106h493v-106h-493z" />
<glyph unicode="&#x1e5f;" horiz-adv-x="690" d="M161 0v993h159v-204h4q34 104 104 163t156 59q62 0 95 -14v-165q-42 32 -120 32q-102 0 -170.5 -96t-68.5 -262v-506h-159zM197 -221v106h493v-106h-493z" />
<glyph unicode="&#x1e60;" horiz-adv-x="1055" d="M117 56v192q33 -29 79 -52t97 -39t102.5 -25t95.5 -9q150 0 224.5 56t74.5 161q0 56 -25 97.5t-68.5 76t-103 66t-128.5 66.5q-73 37 -136 75t-109.5 83.5t-73.5 103t-27 135.5q0 95 42 165t110 116t154.5 68t176.5 22q206 0 300 -49v-184q-123 86 -316 86 q-53 0 -106.5 -11t-95.5 -36.5t-68 -65t-26 -97.5q0 -53 20 -92t58.5 -71t94.5 -62t129 -66q74 -37 141 -77.5t117.5 -90t80 -109.5t29.5 -138q0 -103 -40 -174t-108.5 -116t-157.5 -64.5t-188 -19.5q-33 0 -81.5 5t-99 15.5t-95.5 25.5t-73 33zM480 1616q0 39 28 66.5 t68 27.5t67.5 -27t27.5 -67q0 -39 -27.5 -67.5t-67.5 -28.5q-39 0 -67.5 28t-28.5 68z" />
<glyph unicode="&#x1e61;" horiz-adv-x="842" d="M101 36v171q130 -96 286 -96q210 0 210 139q0 40 -18 67.5t-48.5 49t-72 38.5t-88.5 35q-66 27 -116 53.5t-83.5 60t-50.5 76t-17 99.5q0 70 32 124t85.5 90.5t121.5 55t141 18.5q129 0 231 -45v-161q-110 72 -252 72q-45 0 -81 -10.5t-61.5 -29t-39.5 -44t-14 -56.5 q0 -39 14 -65t41 -46.5t66 -37t88 -35.5q66 -25 118.5 -52t89.5 -60.5t57 -77t20 -103.5q0 -74 -32.5 -128.5t-87 -90t-125.5 -53t-148 -17.5q-154 0 -266 59zM358 1277q0 39 28 66.5t68 27.5t67.5 -27t27.5 -67q0 -39 -27.5 -67.5t-67.5 -28.5q-39 0 -67.5 28t-28.5 68z " />
<glyph unicode="&#x1e62;" horiz-adv-x="1055" d="M117 56v192q33 -29 79 -52t97 -39t102.5 -25t95.5 -9q150 0 224.5 56t74.5 161q0 56 -25 97.5t-68.5 76t-103 66t-128.5 66.5q-73 37 -136 75t-109.5 83.5t-73.5 103t-27 135.5q0 95 42 165t110 116t154.5 68t176.5 22q206 0 300 -49v-184q-123 86 -316 86 q-53 0 -106.5 -11t-95.5 -36.5t-68 -65t-26 -97.5q0 -53 20 -92t58.5 -71t94.5 -62t129 -66q74 -37 141 -77.5t117.5 -90t80 -109.5t29.5 -138q0 -103 -40 -174t-108.5 -116t-157.5 -64.5t-188 -19.5q-33 0 -81.5 5t-99 15.5t-95.5 25.5t-73 33zM440 -209q0 40 29 67t67 27 q40 0 68 -27t28 -67q0 -39 -28 -67.5t-68 -28.5t-68 28.5t-28 67.5z" />
<glyph unicode="&#x1e63;" horiz-adv-x="842" d="M101 36v171q130 -96 286 -96q210 0 210 139q0 40 -18 67.5t-48.5 49t-72 38.5t-88.5 35q-66 27 -116 53.5t-83.5 60t-50.5 76t-17 99.5q0 70 32 124t85.5 90.5t121.5 55t141 18.5q129 0 231 -45v-161q-110 72 -252 72q-45 0 -81 -10.5t-61.5 -29t-39.5 -44t-14 -56.5 q0 -39 14 -65t41 -46.5t66 -37t88 -35.5q66 -25 118.5 -52t89.5 -60.5t57 -77t20 -103.5q0 -74 -32.5 -128.5t-87 -90t-125.5 -53t-148 -17.5q-154 0 -266 59zM346 -209q0 40 29 67t67 27q40 0 68 -27t28 -67q0 -39 -28 -67.5t-68 -28.5t-68 28.5t-28 67.5z" />
<glyph unicode="&#x1e64;" horiz-adv-x="1055" d="M117 56v192q33 -29 79 -52t97 -39t102.5 -25t95.5 -9q150 0 224.5 56t74.5 161q0 56 -25 97.5t-68.5 76t-103 66t-128.5 66.5q-73 37 -136 75t-109.5 83.5t-73.5 103t-27 135.5q0 95 42 165t110 116t154.5 68t176.5 22q206 0 300 -49v-184q-123 86 -316 86 q-53 0 -106.5 -11t-95.5 -36.5t-68 -65t-26 -97.5q0 -53 20 -92t58.5 -71t94.5 -62t129 -66q74 -37 141 -77.5t117.5 -90t80 -109.5t29.5 -138q0 -103 -40 -174t-108.5 -116t-157.5 -64.5t-188 -19.5q-33 0 -81.5 5t-99 15.5t-95.5 25.5t-73 33zM355 1748q0 40 28 66.5 t67 26.5t67.5 -26.5t28.5 -66.5q0 -39 -28.5 -67t-67.5 -28q-38 0 -66.5 27t-28.5 68zM512 1519l175 239h163l-215 -239h-123z" />
<glyph unicode="&#x1e65;" horiz-adv-x="842" d="M101 36v171q130 -96 286 -96q210 0 210 139q0 40 -18 67.5t-48.5 49t-72 38.5t-88.5 35q-66 27 -116 53.5t-83.5 60t-50.5 76t-17 99.5q0 70 32 124t85.5 90.5t121.5 55t141 18.5q129 0 231 -45v-161q-110 72 -252 72q-45 0 -81 -10.5t-61.5 -29t-39.5 -44t-14 -56.5 q0 -39 14 -65t41 -46.5t66 -37t88 -35.5q66 -25 118.5 -52t89.5 -60.5t57 -77t20 -103.5q0 -74 -32.5 -128.5t-87 -90t-125.5 -53t-148 -17.5q-154 0 -266 59zM231 1410q0 40 28 67t67 27t67.5 -27t28.5 -67q0 -39 -28.5 -67t-67.5 -28q-38 0 -66.5 27.5t-28.5 67.5z M388 1181l175 239h163l-215 -239h-123z" />
<glyph unicode="&#x1e66;" horiz-adv-x="1055" d="M117 56v192q33 -29 79 -52t97 -39t102.5 -25t95.5 -9q150 0 224.5 56t74.5 161q0 56 -25 97.5t-68.5 76t-103 66t-128.5 66.5q-73 37 -136 75t-109.5 83.5t-73.5 103t-27 135.5q0 95 42 165t110 116t154.5 68t176.5 22q206 0 300 -49v-184q-123 86 -316 86 q-53 0 -106.5 -11t-95.5 -36.5t-68 -65t-26 -97.5q0 -53 20 -92t58.5 -71t94.5 -62t129 -66q74 -37 141 -77.5t117.5 -90t80 -109.5t29.5 -138q0 -103 -40 -174t-108.5 -116t-157.5 -64.5t-188 -19.5q-33 0 -81.5 5t-99 15.5t-95.5 25.5t-73 33zM299 1762h109l161 -143 l159 143h117l-208 -243h-130zM474 1854q0 38 27.5 65.5t67.5 27.5t67.5 -27t27.5 -66q0 -40 -27.5 -68t-67.5 -28q-39 0 -67 27.5t-28 68.5z" />
<glyph unicode="&#x1e67;" horiz-adv-x="842" d="M101 36v171q130 -96 286 -96q210 0 210 139q0 40 -18 67.5t-48.5 49t-72 38.5t-88.5 35q-66 27 -116 53.5t-83.5 60t-50.5 76t-17 99.5q0 70 32 124t85.5 90.5t121.5 55t141 18.5q129 0 231 -45v-161q-110 72 -252 72q-45 0 -81 -10.5t-61.5 -29t-39.5 -44t-14 -56.5 q0 -39 14 -65t41 -46.5t66 -37t88 -35.5q66 -25 118.5 -52t89.5 -60.5t57 -77t20 -103.5q0 -74 -32.5 -128.5t-87 -90t-125.5 -53t-148 -17.5q-154 0 -266 59zM165 1424h109l161 -143l159 143h117l-208 -243h-130zM340 1515q0 40 27.5 67t67.5 27t67.5 -26.5t27.5 -67.5 q0 -39 -27.5 -67t-67.5 -28q-39 0 -67 27.5t-28 67.5z" />
<glyph unicode="&#x1e68;" horiz-adv-x="1055" d="M117 56v192q33 -29 79 -52t97 -39t102.5 -25t95.5 -9q150 0 224.5 56t74.5 161q0 56 -25 97.5t-68.5 76t-103 66t-128.5 66.5q-73 37 -136 75t-109.5 83.5t-73.5 103t-27 135.5q0 95 42 165t110 116t154.5 68t176.5 22q206 0 300 -49v-184q-123 86 -316 86 q-53 0 -106.5 -11t-95.5 -36.5t-68 -65t-26 -97.5q0 -53 20 -92t58.5 -71t94.5 -62t129 -66q74 -37 141 -77.5t117.5 -90t80 -109.5t29.5 -138q0 -103 -40 -174t-108.5 -116t-157.5 -64.5t-188 -19.5q-33 0 -81.5 5t-99 15.5t-95.5 25.5t-73 33zM496 1616q0 39 28 66.5 t68 27.5t67.5 -27t27.5 -67q0 -39 -27.5 -67.5t-67.5 -28.5q-39 0 -67.5 28t-28.5 68zM494 -209q0 40 29 67t67 27q40 0 68 -27t28 -67q0 -39 -28 -67.5t-68 -28.5t-68 28.5t-28 67.5z" />
<glyph unicode="&#x1e69;" horiz-adv-x="842" d="M101 36v171q130 -96 286 -96q210 0 210 139q0 40 -18 67.5t-48.5 49t-72 38.5t-88.5 35q-66 27 -116 53.5t-83.5 60t-50.5 76t-17 99.5q0 70 32 124t85.5 90.5t121.5 55t141 18.5q129 0 231 -45v-161q-110 72 -252 72q-45 0 -81 -10.5t-61.5 -29t-39.5 -44t-14 -56.5 q0 -39 14 -65t41 -46.5t66 -37t88 -35.5q66 -25 118.5 -52t89.5 -60.5t57 -77t20 -103.5q0 -74 -32.5 -128.5t-87 -90t-125.5 -53t-148 -17.5q-154 0 -266 59zM361 -209q0 40 29 67t67 27q40 0 68 -27t28 -67q0 -39 -28 -67.5t-68 -28.5t-68 28.5t-28 67.5zM352 1277 q0 39 28 66.5t68 27.5t67.5 -27t27.5 -67q0 -39 -27.5 -67.5t-67.5 -28.5q-39 0 -67.5 28t-28.5 68z" />
<glyph unicode="&#x1e6a;" horiz-adv-x="1040" d="M40 1244v147h965v-147h-402v-1244h-163v1244h-400zM428 1616q0 39 28 66.5t68 27.5t67.5 -27t27.5 -67q0 -39 -27.5 -67.5t-67.5 -28.5q-39 0 -67.5 28t-28.5 68z" />
<glyph unicode="&#x1e6b;" horiz-adv-x="673" d="M42 857v136h170v243l160 51v-294h250v-136h-250v-559q0 -100 33.5 -142.5t112.5 -42.5q60 0 104 33v-136q-56 -31 -149 -31q-261 0 -261 291v587h-170zM196 1479q0 39 28 66.5t68 27.5t67.5 -27t27.5 -67q0 -39 -27.5 -67.5t-67.5 -28.5q-39 0 -67.5 28t-28.5 68z" />
<glyph unicode="&#x1e6c;" horiz-adv-x="1040" d="M40 1244v147h965v-147h-402v-1244h-163v1244h-400zM425 -209q0 40 29 67t67 27q40 0 68 -27t28 -67q0 -39 -28 -67.5t-68 -28.5t-68 28.5t-28 67.5z" />
<glyph unicode="&#x1e6d;" horiz-adv-x="673" d="M42 857v136h170v243l160 51v-294h250v-136h-250v-559q0 -100 33.5 -142.5t112.5 -42.5q60 0 104 33v-136q-56 -31 -149 -31q-261 0 -261 291v587h-170zM253 -209q0 40 29 67t67 27q40 0 68 -27t28 -67q0 -39 -28 -67.5t-68 -28.5t-68 28.5t-28 67.5z" />
<glyph unicode="&#x1e6e;" horiz-adv-x="1040" d="M40 1244v147h965v-147h-402v-1244h-163v1244h-400zM277 -222v106h493v-106h-493z" />
<glyph unicode="&#x1e6f;" horiz-adv-x="673" d="M42 857v136h170v243l160 51v-294h250v-136h-250v-559q0 -100 33.5 -142.5t112.5 -42.5q60 0 104 33v-136q-56 -31 -149 -31q-261 0 -261 291v587h-170zM148 -223v106h493v-106h-493z" />
<glyph unicode="&#x1e70;" horiz-adv-x="1040" d="M40 1244v147h965v-147h-402v-1244h-163v1244h-400zM251 -438l209 323h129l209 -323h-118l-159 224l-160 -224h-110z" />
<glyph unicode="&#x1e71;" horiz-adv-x="673" d="M42 857v136h170v243l160 51v-294h250v-136h-250v-559q0 -100 33.5 -142.5t112.5 -42.5q60 0 104 33v-136q-56 -31 -149 -31q-261 0 -261 291v587h-170zM79 -437l209 323h129l209 -323h-118l-159 224l-160 -224h-110z" />
<glyph unicode="&#x1e72;" horiz-adv-x="1364" d="M165 540v851h163v-840q0 -428 361 -428q348 0 348 413v855h163v-828q0 -586 -529 -586q-506 0 -506 563zM392 -212q0 41 28 68.5t67 27.5q40 0 69 -28t29 -68q0 -39 -28 -67.5t-67 -28.5q-41 0 -69.5 29t-28.5 67zM768 -212q0 41 27 68.5t66 27.5q40 0 68.5 -28t28.5 -68 q0 -39 -27.5 -67.5t-67.5 -28.5q-39 0 -67 27.5t-28 68.5z" />
<glyph unicode="&#x1e73;" d="M140 400v593h158v-568q0 -314 240 -314q117 0 192 85.5t75 224.5v572h159v-993h-159v157h-4q-99 -180 -306 -180q-355 0 -355 423zM244 -211q0 41 28 68.5t67 27.5q40 0 69 -28t29 -68q0 -39 -28 -67.5t-67 -28.5q-41 0 -69.5 29t-28.5 67zM620 -211q0 41 27 68.5 t66 27.5q40 0 68.5 -28t28.5 -68q0 -39 -27.5 -67.5t-67.5 -28.5q-39 0 -67 27.5t-28 68.5z" />
<glyph unicode="&#x1e74;" horiz-adv-x="1364" d="M165 540v851h163v-840q0 -428 361 -428q348 0 348 413v855h163v-828q0 -586 -529 -586q-506 0 -506 563zM356 -343q0 104 46.5 166.5t129.5 62.5q64 0 145 -51q72 -42 124 -42q82 0 82 112h95q0 -102 -46.5 -166.5t-126.5 -64.5q-69 0 -157 51q-75 42 -116 42 q-85 0 -85 -110h-91z" />
<glyph unicode="&#x1e75;" d="M140 400v593h158v-568q0 -314 240 -314q117 0 192 85.5t75 224.5v572h159v-993h-159v157h-4q-99 -180 -306 -180q-355 0 -355 423zM239 -343q0 104 46.5 166.5t129.5 62.5q64 0 145 -51q72 -42 124 -42q82 0 82 112h95q0 -102 -46.5 -166.5t-126.5 -64.5q-69 0 -157 51 q-75 42 -116 42q-85 0 -85 -110h-91z" />
<glyph unicode="&#x1e76;" horiz-adv-x="1364" d="M165 540v851h163v-840q0 -428 361 -428q348 0 348 413v855h163v-828q0 -586 -529 -586q-506 0 -506 563zM401 -438l209 323h129l209 -323h-118l-159 224l-160 -224h-110z" />
<glyph unicode="&#x1e77;" d="M140 400v593h158v-568q0 -314 240 -314q117 0 192 85.5t75 224.5v572h159v-993h-159v157h-4q-99 -180 -306 -180q-355 0 -355 423zM270 -438l209 323h129l209 -323h-118l-159 224l-160 -224h-110z" />
<glyph unicode="&#x1e78;" horiz-adv-x="1364" d="M165 540v851h163v-840q0 -428 361 -428q348 0 348 413v855h163v-828q0 -586 -529 -586q-506 0 -506 563zM377 1502q0 209 176 209q62 0 141 -37t128 -37q82 0 82 93h95q0 -97 -45.5 -154t-127.5 -57q-65 0 -148 36q-85 36 -125 36q-85 0 -85 -89h-91zM556 1756l175 238 h163l-213 -238h-125z" />
<glyph unicode="&#x1e79;" d="M140 400v593h158v-568q0 -314 240 -314q117 0 192 85.5t75 224.5v572h159v-993h-159v157h-4q-99 -180 -306 -180q-355 0 -355 423zM250 1166q0 208 176 208q62 0 141 -35q79 -37 128 -37q82 0 82 93h95q0 -98 -45.5 -155t-127.5 -57q-65 0 -148 36q-85 36 -125 36 q-85 0 -85 -89h-91zM429 1420l175 239h163l-213 -239h-125z" />
<glyph unicode="&#x1e7a;" horiz-adv-x="1364" d="M165 540v851h163v-840q0 -428 361 -428q348 0 348 413v855h163v-828q0 -586 -529 -586q-506 0 -506 563zM403 1796q0 40 28 68t67 28q40 0 68.5 -28.5t28.5 -67.5q0 -40 -27.5 -68t-67.5 -28q-41 0 -69 28t-28 68zM444 1519v107h493v-107h-493zM778 1796q0 41 27.5 68.5 t66.5 27.5q40 0 68.5 -28.5t28.5 -67.5q0 -40 -27.5 -68t-67.5 -28t-68 27.5t-28 68.5z" />
<glyph unicode="&#x1e7b;" d="M140 400v593h158v-568q0 -314 240 -314q117 0 192 85.5t75 224.5v572h159v-993h-159v157h-4q-99 -180 -306 -180q-355 0 -355 423zM266 1458q0 41 28.5 68.5t66.5 27.5q40 0 68.5 -28t28.5 -68t-27.5 -67.5t-67.5 -27.5t-68.5 27t-28.5 68zM307 1181v106h493v-106h-493z M641 1458q0 41 27.5 68.5t66.5 27.5q40 0 68.5 -28t28.5 -68t-27.5 -67.5t-67.5 -27.5t-68 27t-28 68z" />
<glyph unicode="&#x1e7c;" horiz-adv-x="1233" d="M17 1391h182l385 -1103q18 -53 28 -123h4q8 58 32 125l393 1101h175l-515 -1391h-179zM310 1505q0 104 46.5 166.5t129.5 62.5q64 0 145 -51q72 -42 124 -42q82 0 82 112h95q0 -102 -46.5 -166.5t-126.5 -64.5q-69 0 -157 51q-75 42 -116 42q-85 0 -85 -110h-91z" />
<glyph unicode="&#x1e7d;" horiz-adv-x="951" d="M14 993h174l252 -721q29 -80 35 -139h4q10 75 31 135l264 725h168l-396 -993h-156zM170 1166q0 104 46.5 166.5t129.5 62.5q64 0 145 -51q72 -42 124 -42q82 0 82 112h95q0 -102 -46.5 -166.5t-126.5 -64.5q-69 0 -157 51q-75 42 -116 42q-85 0 -85 -110h-91z" />
<glyph unicode="&#x1e7e;" horiz-adv-x="1233" d="M17 1391h182l385 -1103q18 -53 28 -123h4q8 58 32 125l393 1101h175l-515 -1391h-179zM523 -209q0 40 29 67t67 27q40 0 68 -27t28 -67q0 -39 -28 -67.5t-68 -28.5t-68 28.5t-28 67.5z" />
<glyph unicode="&#x1e7f;" horiz-adv-x="951" d="M14 993h174l252 -721q29 -80 35 -139h4q10 75 31 135l264 725h168l-396 -993h-156zM377 -209q0 40 29 67t67 27q40 0 68 -27t28 -67q0 -39 -28 -67.5t-68 -28.5t-68 28.5t-28 67.5z" />
<glyph unicode="&#x1e80;" horiz-adv-x="1855" d="M25 1391h180l296 -1067q18 -67 23 -140h5q5 52 30 140l307 1067h156l295 -1075q16 -55 24 -130h3q4 51 27 134l284 1071h176l-392 -1391h-192l-286 1017q-18 65 -22 141h-4q-6 -72 -25 -140l-288 -1018h-189zM732 1838h162l215 -319h-123z" />
<glyph unicode="&#x1e81;" horiz-adv-x="1435" d="M23 993h167l206 -747q9 -34 13 -89h8q3 43 18 91l228 745h146l206 -749q9 -35 14 -89h8q2 38 16 89l202 749h157l-297 -993h-165l-205 711q-12 41 -16 92h-3q-3 -35 -21 -90l-222 -713h-159zM504 1500h162l215 -319h-123z" />
<glyph unicode="&#x1e82;" horiz-adv-x="1855" d="M25 1391h180l296 -1067q18 -67 23 -140h5q5 52 30 140l307 1067h156l295 -1075q16 -55 24 -130h3q4 51 27 134l284 1071h176l-392 -1391h-192l-286 1017q-18 65 -22 141h-4q-6 -72 -25 -140l-288 -1018h-189zM773 1519l216 319h161l-254 -319h-123z" />
<glyph unicode="&#x1e83;" horiz-adv-x="1435" d="M23 993h167l206 -747q9 -34 13 -89h8q3 43 18 91l228 745h146l206 -749q9 -35 14 -89h8q2 38 16 89l202 749h157l-297 -993h-165l-205 711q-12 41 -16 92h-3q-3 -35 -21 -90l-222 -713h-159zM569 1181l216 319h161l-254 -319h-123z" />
<glyph unicode="&#x1e84;" horiz-adv-x="1855" d="M25 1391h180l296 -1067q18 -67 23 -140h5q5 52 30 140l307 1067h156l295 -1075q16 -55 24 -130h3q4 51 27 134l284 1071h176l-392 -1391h-192l-286 1017q-18 65 -22 141h-4q-6 -72 -25 -140l-288 -1018h-189zM645 1616q0 41 28 68.5t67 27.5q40 0 69 -28t29 -68 q0 -39 -28 -67.5t-67 -28.5q-41 0 -69.5 29t-28.5 67zM1021 1616q0 41 27 68.5t66 27.5q40 0 68.5 -28t28.5 -68q0 -39 -27.5 -67.5t-67.5 -28.5q-39 0 -67 27.5t-28 68.5z" />
<glyph unicode="&#x1e85;" horiz-adv-x="1435" d="M23 993h167l206 -747q9 -34 13 -89h8q3 43 18 91l228 745h146l206 -749q9 -35 14 -89h8q2 38 16 89l202 749h157l-297 -993h-165l-205 711q-12 41 -16 92h-3q-3 -35 -21 -90l-222 -713h-159zM435 1277q0 41 28 68.5t67 27.5q40 0 69 -28t29 -68q0 -39 -28 -67.5 t-67 -28.5q-41 0 -69.5 29t-28.5 67zM811 1277q0 41 27 68.5t66 27.5q40 0 68.5 -28t28.5 -68q0 -39 -27.5 -67.5t-67.5 -28.5q-39 0 -67 27.5t-28 68.5z" />
<glyph unicode="&#x1e86;" horiz-adv-x="1855" d="M25 1391h180l296 -1067q18 -67 23 -140h5q5 52 30 140l307 1067h156l295 -1075q16 -55 24 -130h3q4 51 27 134l284 1071h176l-392 -1391h-192l-286 1017q-18 65 -22 141h-4q-6 -72 -25 -140l-288 -1018h-189zM847 1616q0 39 28 66.5t68 27.5t67.5 -27t27.5 -67 q0 -39 -27.5 -67.5t-67.5 -28.5q-39 0 -67.5 28t-28.5 68z" />
<glyph unicode="&#x1e87;" horiz-adv-x="1435" d="M23 993h167l206 -747q9 -34 13 -89h8q3 43 18 91l228 745h146l206 -749q9 -35 14 -89h8q2 38 16 89l202 749h157l-297 -993h-165l-205 711q-12 41 -16 92h-3q-3 -35 -21 -90l-222 -713h-159zM637 1277q0 39 28 66.5t68 27.5t67.5 -27t27.5 -67q0 -39 -27.5 -67.5 t-67.5 -28.5q-39 0 -67.5 28t-28.5 68z" />
<glyph unicode="&#x1e88;" horiz-adv-x="1855" d="M25 1391h180l296 -1067q18 -67 23 -140h5q5 52 30 140l307 1067h156l295 -1075q16 -55 24 -130h3q4 51 27 134l284 1071h176l-392 -1391h-192l-286 1017q-18 65 -22 141h-4q-6 -72 -25 -140l-288 -1018h-189zM845 -209q0 40 29 67t67 27q40 0 68 -27t28 -67 q0 -39 -28 -67.5t-68 -28.5t-68 28.5t-28 67.5z" />
<glyph unicode="&#x1e89;" horiz-adv-x="1435" d="M23 993h167l206 -747q9 -34 13 -89h8q3 43 18 91l228 745h146l206 -749q9 -35 14 -89h8q2 38 16 89l202 749h157l-297 -993h-165l-205 711q-12 41 -16 92h-3q-3 -35 -21 -90l-222 -713h-159zM628 -209q0 40 29 67t67 27q40 0 68 -27t28 -67q0 -39 -28 -67.5t-68 -28.5 t-68 28.5t-28 67.5z" />
<glyph unicode="&#x1e8a;" horiz-adv-x="1171" d="M25 0l466 699l-429 692h200l284 -489q28 -48 50 -97h3q31 64 55 101l296 485h187l-438 -690l444 -701h-199l-320 533q-15 24 -32 68h-4q-10 -22 -33 -68l-330 -533h-200zM496 1616q0 39 28 66.5t68 27.5t67.5 -27t27.5 -67q0 -39 -27.5 -67.5t-67.5 -28.5q-39 0 -67.5 28 t-28.5 68z" />
<glyph unicode="&#x1e8b;" horiz-adv-x="911" d="M25 0l339 487l-324 506h185l192 -339q21 -38 42 -78h4l248 417h176l-334 -502l328 -491h-186l-194 322q-19 30 -44 76h-4q-5 -9 -46 -76l-198 -322h-184zM367 1277q0 39 28 66.5t68 27.5t67.5 -27t27.5 -67q0 -39 -27.5 -67.5t-67.5 -28.5q-39 0 -67.5 28t-28.5 68z" />
<glyph unicode="&#x1e8c;" horiz-adv-x="1171" d="M25 0l466 699l-429 692h200l284 -489q28 -48 50 -97h3q31 64 55 101l296 485h187l-438 -690l444 -701h-199l-320 533q-15 24 -32 68h-4q-10 -22 -33 -68l-330 -533h-200zM320 1616q0 41 28 68.5t67 27.5q40 0 69 -28t29 -68q0 -39 -28 -67.5t-67 -28.5q-41 0 -69.5 29 t-28.5 67zM696 1616q0 41 27 68.5t66 27.5q40 0 68.5 -28t28.5 -68q0 -39 -27.5 -67.5t-67.5 -28.5q-39 0 -67 27.5t-28 68.5z" />
</font>
</defs>
</svg>
